%TF.GenerationSoftware,KiCad,Pcbnew,8.0.5*%
%TF.CreationDate,2024-12-16T18:06:57+02:00*%
%TF.ProjectId,TheXeric,54686558-6572-4696-932e-6b696361645f,1.0*%
%TF.SameCoordinates,Original*%
%TF.FileFunction,Copper,L1,Top*%
%TF.FilePolarity,Positive*%
%FSLAX46Y46*%
G04 Gerber Fmt 4.6, Leading zero omitted, Abs format (unit mm)*
G04 Created by KiCad (PCBNEW 8.0.5) date 2024-12-16 18:06:57*
%MOMM*%
%LPD*%
G01*
G04 APERTURE LIST*
G04 Aperture macros list*
%AMRoundRect*
0 Rectangle with rounded corners*
0 $1 Rounding radius*
0 $2 $3 $4 $5 $6 $7 $8 $9 X,Y pos of 4 corners*
0 Add a 4 corners polygon primitive as box body*
4,1,4,$2,$3,$4,$5,$6,$7,$8,$9,$2,$3,0*
0 Add four circle primitives for the rounded corners*
1,1,$1+$1,$2,$3*
1,1,$1+$1,$4,$5*
1,1,$1+$1,$6,$7*
1,1,$1+$1,$8,$9*
0 Add four rect primitives between the rounded corners*
20,1,$1+$1,$2,$3,$4,$5,0*
20,1,$1+$1,$4,$5,$6,$7,0*
20,1,$1+$1,$6,$7,$8,$9,0*
20,1,$1+$1,$8,$9,$2,$3,0*%
G04 Aperture macros list end*
%TA.AperFunction,SMDPad,CuDef*%
%ADD10RoundRect,0.225000X-0.250000X0.225000X-0.250000X-0.225000X0.250000X-0.225000X0.250000X0.225000X0*%
%TD*%
%TA.AperFunction,ComponentPad*%
%ADD11R,1.700000X1.700000*%
%TD*%
%TA.AperFunction,ComponentPad*%
%ADD12O,1.700000X1.700000*%
%TD*%
%TA.AperFunction,SMDPad,CuDef*%
%ADD13RoundRect,0.225000X0.225000X0.250000X-0.225000X0.250000X-0.225000X-0.250000X0.225000X-0.250000X0*%
%TD*%
%TA.AperFunction,SMDPad,CuDef*%
%ADD14RoundRect,0.200000X0.275000X-0.200000X0.275000X0.200000X-0.275000X0.200000X-0.275000X-0.200000X0*%
%TD*%
%TA.AperFunction,SMDPad,CuDef*%
%ADD15RoundRect,0.147500X0.172500X-0.147500X0.172500X0.147500X-0.172500X0.147500X-0.172500X-0.147500X0*%
%TD*%
%TA.AperFunction,SMDPad,CuDef*%
%ADD16RoundRect,0.135000X-0.135000X-0.185000X0.135000X-0.185000X0.135000X0.185000X-0.135000X0.185000X0*%
%TD*%
%TA.AperFunction,SMDPad,CuDef*%
%ADD17RoundRect,0.075000X0.325000X0.075000X-0.325000X0.075000X-0.325000X-0.075000X0.325000X-0.075000X0*%
%TD*%
%TA.AperFunction,SMDPad,CuDef*%
%ADD18RoundRect,0.075000X0.075000X0.325000X-0.075000X0.325000X-0.075000X-0.325000X0.075000X-0.325000X0*%
%TD*%
%TA.AperFunction,HeatsinkPad*%
%ADD19R,3.350000X3.350000*%
%TD*%
%TA.AperFunction,SMDPad,CuDef*%
%ADD20RoundRect,0.150000X0.512500X0.150000X-0.512500X0.150000X-0.512500X-0.150000X0.512500X-0.150000X0*%
%TD*%
%TA.AperFunction,SMDPad,CuDef*%
%ADD21RoundRect,0.135000X0.185000X-0.135000X0.185000X0.135000X-0.185000X0.135000X-0.185000X-0.135000X0*%
%TD*%
%TA.AperFunction,SMDPad,CuDef*%
%ADD22RoundRect,0.200000X-0.275000X0.200000X-0.275000X-0.200000X0.275000X-0.200000X0.275000X0.200000X0*%
%TD*%
%TA.AperFunction,SMDPad,CuDef*%
%ADD23RoundRect,0.218750X0.256250X-0.218750X0.256250X0.218750X-0.256250X0.218750X-0.256250X-0.218750X0*%
%TD*%
%TA.AperFunction,SMDPad,CuDef*%
%ADD24RoundRect,0.140000X0.170000X-0.140000X0.170000X0.140000X-0.170000X0.140000X-0.170000X-0.140000X0*%
%TD*%
%TA.AperFunction,SMDPad,CuDef*%
%ADD25RoundRect,0.140000X-0.170000X0.140000X-0.170000X-0.140000X0.170000X-0.140000X0.170000X0.140000X0*%
%TD*%
%TA.AperFunction,SMDPad,CuDef*%
%ADD26RoundRect,0.150000X-0.512500X-0.150000X0.512500X-0.150000X0.512500X0.150000X-0.512500X0.150000X0*%
%TD*%
%TA.AperFunction,SMDPad,CuDef*%
%ADD27RoundRect,0.218750X0.218750X0.256250X-0.218750X0.256250X-0.218750X-0.256250X0.218750X-0.256250X0*%
%TD*%
%TA.AperFunction,SMDPad,CuDef*%
%ADD28RoundRect,0.218750X-0.256250X0.218750X-0.256250X-0.218750X0.256250X-0.218750X0.256250X0.218750X0*%
%TD*%
%TA.AperFunction,SMDPad,CuDef*%
%ADD29RoundRect,0.225000X0.250000X-0.225000X0.250000X0.225000X-0.250000X0.225000X-0.250000X-0.225000X0*%
%TD*%
%TA.AperFunction,SMDPad,CuDef*%
%ADD30RoundRect,0.150000X-0.425000X0.150000X-0.425000X-0.150000X0.425000X-0.150000X0.425000X0.150000X0*%
%TD*%
%TA.AperFunction,SMDPad,CuDef*%
%ADD31RoundRect,0.075000X-0.500000X0.075000X-0.500000X-0.075000X0.500000X-0.075000X0.500000X0.075000X0*%
%TD*%
%TA.AperFunction,ComponentPad*%
%ADD32O,2.100000X1.000000*%
%TD*%
%TA.AperFunction,ComponentPad*%
%ADD33O,1.800000X1.000000*%
%TD*%
%TA.AperFunction,SMDPad,CuDef*%
%ADD34RoundRect,0.135000X-0.185000X0.135000X-0.185000X-0.135000X0.185000X-0.135000X0.185000X0.135000X0*%
%TD*%
%TA.AperFunction,SMDPad,CuDef*%
%ADD35R,1.700000X0.900000*%
%TD*%
%TA.AperFunction,SMDPad,CuDef*%
%ADD36RoundRect,0.135000X0.135000X0.185000X-0.135000X0.185000X-0.135000X-0.185000X0.135000X-0.185000X0*%
%TD*%
%TA.AperFunction,SMDPad,CuDef*%
%ADD37RoundRect,0.200000X0.200000X0.275000X-0.200000X0.275000X-0.200000X-0.275000X0.200000X-0.275000X0*%
%TD*%
%TA.AperFunction,SMDPad,CuDef*%
%ADD38RoundRect,0.140000X-0.140000X-0.170000X0.140000X-0.170000X0.140000X0.170000X-0.140000X0.170000X0*%
%TD*%
%TA.AperFunction,SMDPad,CuDef*%
%ADD39RoundRect,0.140000X0.140000X0.170000X-0.140000X0.170000X-0.140000X-0.170000X0.140000X-0.170000X0*%
%TD*%
%TA.AperFunction,SMDPad,CuDef*%
%ADD40RoundRect,0.150000X0.150000X-0.587500X0.150000X0.587500X-0.150000X0.587500X-0.150000X-0.587500X0*%
%TD*%
%TA.AperFunction,SMDPad,CuDef*%
%ADD41RoundRect,0.075000X-0.662500X-0.075000X0.662500X-0.075000X0.662500X0.075000X-0.662500X0.075000X0*%
%TD*%
%TA.AperFunction,SMDPad,CuDef*%
%ADD42RoundRect,0.075000X-0.075000X-0.662500X0.075000X-0.662500X0.075000X0.662500X-0.075000X0.662500X0*%
%TD*%
%TA.AperFunction,SMDPad,CuDef*%
%ADD43R,0.900000X1.700000*%
%TD*%
%TA.AperFunction,SMDPad,CuDef*%
%ADD44R,1.000000X0.800000*%
%TD*%
%TA.AperFunction,SMDPad,CuDef*%
%ADD45R,0.700000X1.500000*%
%TD*%
%TA.AperFunction,SMDPad,CuDef*%
%ADD46RoundRect,0.218750X-0.218750X-0.256250X0.218750X-0.256250X0.218750X0.256250X-0.218750X0.256250X0*%
%TD*%
%TA.AperFunction,SMDPad,CuDef*%
%ADD47R,1.000000X1.800000*%
%TD*%
%TA.AperFunction,ViaPad*%
%ADD48C,0.700000*%
%TD*%
%TA.AperFunction,Conductor*%
%ADD49C,0.300000*%
%TD*%
G04 APERTURE END LIST*
D10*
%TO.P,C5,1*%
%TO.N,VBUS*%
X121010000Y-85985000D03*
%TO.P,C5,2*%
%TO.N,GND*%
X121010000Y-87535000D03*
%TD*%
D11*
%TO.P,J3,1,Pin_1*%
%TO.N,XDIR*%
X125410000Y-110340000D03*
D12*
%TO.P,J3,2,Pin_2*%
%TO.N,XCK*%
X122870000Y-110340000D03*
%TO.P,J3,3,Pin_3*%
%TO.N,RxD*%
X120330000Y-110340000D03*
%TO.P,J3,4,Pin_4*%
%TO.N,TxD*%
X117790000Y-110340000D03*
%TD*%
D13*
%TO.P,C8,1*%
%TO.N,+3.3V*%
X155175000Y-87970000D03*
%TO.P,C8,2*%
%TO.N,GND*%
X153625000Y-87970000D03*
%TD*%
%TO.P,C6,1*%
%TO.N,+3.3V*%
X125235000Y-90162500D03*
%TO.P,C6,2*%
%TO.N,GND*%
X123685000Y-90162500D03*
%TD*%
D14*
%TO.P,R4,1*%
%TO.N,Net-(D1-A)*%
X129870000Y-84887500D03*
%TO.P,R4,2*%
%TO.N,+3.3V*%
X129870000Y-83237500D03*
%TD*%
D15*
%TO.P,F1,1*%
%TO.N,VBUS*%
X119440000Y-91645000D03*
%TO.P,F1,2*%
%TO.N,+5V*%
X119440000Y-90675000D03*
%TD*%
D16*
%TO.P,R7,1*%
%TO.N,Net-(J1-CC1)*%
X118930000Y-92950000D03*
%TO.P,R7,2*%
%TO.N,GND*%
X119950000Y-92950000D03*
%TD*%
D17*
%TO.P,U5,1,~{RST}*%
%TO.N,M_RST*%
X136030000Y-96080000D03*
%TO.P,U5,2,GP0*%
%TO.N,CS_M*%
X136030000Y-95430000D03*
%TO.P,U5,3,GP1*%
%TO.N,unconnected-(U5-GP1-Pad3)*%
X136030000Y-94780000D03*
%TO.P,U5,4,GP2*%
%TO.N,unconnected-(U5-GP2-Pad4)*%
X136030000Y-94130000D03*
%TO.P,U5,5,GP3*%
%TO.N,T_LED*%
X136030000Y-93480000D03*
D18*
%TO.P,U5,6,MOSI*%
%TO.N,MOSI_M*%
X134880000Y-92330000D03*
%TO.P,U5,7,GP4*%
%TO.N,L_LED*%
X134230000Y-92330000D03*
%TO.P,U5,8,SCK*%
%TO.N,SCK_M*%
X133580000Y-92330000D03*
%TO.P,U5,9,GP5*%
%TO.N,C_LED*%
X132930000Y-92330000D03*
%TO.P,U5,10,MISO*%
%TO.N,MISO_M*%
X132280000Y-92330000D03*
D17*
%TO.P,U5,11,GP6*%
%TO.N,unconnected-(U5-GP6-Pad11)*%
X131130000Y-93480000D03*
%TO.P,U5,12,GP7*%
%TO.N,unconnected-(U5-GP7-Pad12)*%
X131130000Y-94130000D03*
%TO.P,U5,13,GP8*%
%TO.N,unconnected-(U5-GP8-Pad13)*%
X131130000Y-94780000D03*
%TO.P,U5,14,VUSB*%
%TO.N,+3.3V*%
X131130000Y-95430000D03*
%TO.P,U5,15,D-*%
%TO.N,M_D-*%
X131130000Y-96080000D03*
D18*
%TO.P,U5,16,D+*%
%TO.N,M_D+*%
X132280000Y-97230000D03*
%TO.P,U5,17,VSS*%
%TO.N,GND*%
X132930000Y-97230000D03*
%TO.P,U5,18,VDD*%
%TO.N,+3.3V*%
X133580000Y-97230000D03*
%TO.P,U5,19,OSC1*%
%TO.N,Net-(U5-OSC1)*%
X134230000Y-97230000D03*
%TO.P,U5,20,OSC2*%
%TO.N,Net-(U5-OSC2)*%
X134880000Y-97230000D03*
D19*
%TO.P,U5,21,EP*%
%TO.N,GND*%
X133580000Y-94780000D03*
%TD*%
D20*
%TO.P,U4,1,SCL*%
%TO.N,SCL_A*%
X146827500Y-103220000D03*
%TO.P,U4,2,GND*%
%TO.N,GND*%
X146827500Y-102270000D03*
%TO.P,U4,3,SDA*%
%TO.N,SDA_A*%
X146827500Y-101320000D03*
%TO.P,U4,4,VCC*%
%TO.N,+3.3V*%
X144552500Y-101320000D03*
%TO.P,U4,5,WP*%
%TO.N,Net-(SW1-B)*%
X144552500Y-103220000D03*
%TD*%
D21*
%TO.P,R10,1*%
%TO.N,M_RST*%
X142560000Y-99050000D03*
%TO.P,R10,2*%
%TO.N,+3.3V*%
X142560000Y-98030000D03*
%TD*%
D22*
%TO.P,R5,1*%
%TO.N,Net-(D3-A)*%
X132440000Y-86760000D03*
%TO.P,R5,2*%
%TO.N,C_LED*%
X132440000Y-88410000D03*
%TD*%
D23*
%TO.P,FB1,1*%
%TO.N,+3.3VA*%
X164280000Y-97687500D03*
%TO.P,FB1,2*%
%TO.N,+3.3V*%
X164280000Y-96112500D03*
%TD*%
D24*
%TO.P,C9,1*%
%TO.N,+3.3VA*%
X160790000Y-96540000D03*
%TO.P,C9,2*%
%TO.N,GND*%
X160790000Y-95580000D03*
%TD*%
D25*
%TO.P,C2,1*%
%TO.N,Net-(U5-OSC1)*%
X134900000Y-101520000D03*
%TO.P,C2,2*%
%TO.N,GND*%
X134900000Y-102480000D03*
%TD*%
D26*
%TO.P,U1,1,I/O1*%
%TO.N,U_D+*%
X122612500Y-93727500D03*
%TO.P,U1,2,GND*%
%TO.N,+5V*%
X122612500Y-94677500D03*
%TO.P,U1,3,I/O2*%
%TO.N,U_D-*%
X122612500Y-95627500D03*
%TO.P,U1,4,I/O2*%
%TO.N,M_D-*%
X124887500Y-95627500D03*
%TO.P,U1,5,VBUS*%
%TO.N,GND*%
X124887500Y-94677500D03*
%TO.P,U1,6,I/O1*%
%TO.N,M_D+*%
X124887500Y-93727500D03*
%TD*%
D11*
%TO.P,J9,1,Pin_1*%
%TO.N,+3.3V*%
X156760000Y-78860000D03*
D12*
%TO.P,J9,2,Pin_2*%
%TO.N,DEBUG*%
X154220000Y-78860000D03*
%TO.P,J9,3,Pin_3*%
%TO.N,GND*%
X151680000Y-78860000D03*
%TD*%
D21*
%TO.P,R15,1*%
%TO.N,+3.3V*%
X148440000Y-104310000D03*
%TO.P,R15,2*%
%TO.N,SCL_A*%
X148440000Y-103290000D03*
%TD*%
D27*
%TO.P,D6,1,K*%
%TO.N,GND*%
X142685000Y-93470000D03*
%TO.P,D6,2,A*%
%TO.N,Net-(D6-A)*%
X141110000Y-93470000D03*
%TD*%
D28*
%TO.P,D3,1,K*%
%TO.N,GND*%
X132425000Y-83327500D03*
%TO.P,D3,2,A*%
%TO.N,Net-(D3-A)*%
X132425000Y-84902500D03*
%TD*%
D16*
%TO.P,R12,1*%
%TO.N,+3.3V*%
X167770000Y-81760000D03*
%TO.P,R12,2*%
%TO.N,SDA*%
X168790000Y-81760000D03*
%TD*%
D29*
%TO.P,C11,1*%
%TO.N,+3.3V*%
X166420000Y-96935000D03*
%TO.P,C11,2*%
%TO.N,GND*%
X166420000Y-95385000D03*
%TD*%
D11*
%TO.P,J4,1,Pin_1*%
%TO.N,SDA*%
X167990000Y-78860000D03*
D12*
%TO.P,J4,2,Pin_2*%
%TO.N,SCL*%
X165450000Y-78860000D03*
%TO.P,J4,3,Pin_3*%
%TO.N,GND*%
X162910000Y-78860000D03*
%TD*%
D11*
%TO.P,J8,1,Pin_1*%
%TO.N,PB4*%
X145510000Y-78860000D03*
D12*
%TO.P,J8,2,Pin_2*%
%TO.N,PB5*%
X142970000Y-78860000D03*
%TO.P,J8,3,Pin_3*%
%TO.N,PC0*%
X140430000Y-78860000D03*
%TO.P,J8,4,Pin_4*%
%TO.N,PC1*%
X137890000Y-78860000D03*
%TD*%
D25*
%TO.P,C1,1*%
%TO.N,M_RST*%
X142580000Y-100540000D03*
%TO.P,C1,2*%
%TO.N,GND*%
X142580000Y-101500000D03*
%TD*%
D30*
%TO.P,J1,A1,GND*%
%TO.N,GND*%
X116830000Y-91400000D03*
%TO.P,J1,A4,VBUS*%
%TO.N,VBUS*%
X116830000Y-92200000D03*
D31*
%TO.P,J1,A5,CC1*%
%TO.N,Net-(J1-CC1)*%
X116830000Y-93350000D03*
%TO.P,J1,A6,D+*%
%TO.N,U_D+*%
X116830000Y-94350000D03*
%TO.P,J1,A7,D-*%
%TO.N,U_D-*%
X116830000Y-94850000D03*
%TO.P,J1,A8,SBU1*%
%TO.N,unconnected-(J1-SBU1-PadA8)*%
X116830000Y-95850000D03*
D30*
%TO.P,J1,A9,VBUS*%
%TO.N,VBUS*%
X116830000Y-97000000D03*
%TO.P,J1,A12,GND*%
%TO.N,GND*%
X116830000Y-97800000D03*
%TO.P,J1,B1,GND*%
X116830000Y-97800000D03*
%TO.P,J1,B4,VBUS*%
%TO.N,VBUS*%
X116830000Y-97000000D03*
D31*
%TO.P,J1,B5,CC2*%
%TO.N,Net-(J1-CC2)*%
X116830000Y-96350000D03*
%TO.P,J1,B6,D+*%
%TO.N,U_D+*%
X116830000Y-95350000D03*
%TO.P,J1,B7,D-*%
%TO.N,U_D-*%
X116830000Y-93850000D03*
%TO.P,J1,B8,SBU2*%
%TO.N,unconnected-(J1-SBU2-PadB8)*%
X116830000Y-92850000D03*
D30*
%TO.P,J1,B9,VBUS*%
%TO.N,VBUS*%
X116830000Y-92200000D03*
%TO.P,J1,B12,GND*%
%TO.N,GND*%
X116830000Y-91400000D03*
D32*
%TO.P,J1,S1,SHIELD*%
%TO.N,unconnected-(J1-SHIELD-PadS1)_2*%
X116255000Y-90280000D03*
D33*
%TO.N,unconnected-(J1-SHIELD-PadS1)_3*%
X112075000Y-90280000D03*
D32*
%TO.N,unconnected-(J1-SHIELD-PadS1)_1*%
X116255000Y-98920000D03*
D33*
%TO.N,unconnected-(J1-SHIELD-PadS1)*%
X112075000Y-98920000D03*
%TD*%
D34*
%TO.P,R14,1*%
%TO.N,+3.3V*%
X148420000Y-100150000D03*
%TO.P,R14,2*%
%TO.N,SDA_A*%
X148420000Y-101170000D03*
%TD*%
D35*
%TO.P,SW2,1,1*%
%TO.N,M_RST*%
X139920000Y-99300000D03*
%TO.P,SW2,2,2*%
%TO.N,GND*%
X139920000Y-102700000D03*
%TD*%
D23*
%TO.P,D1,1,K*%
%TO.N,GND*%
X129880000Y-87970000D03*
%TO.P,D1,2,A*%
%TO.N,Net-(D1-A)*%
X129880000Y-86395000D03*
%TD*%
D36*
%TO.P,R13,1*%
%TO.N,+3.3V*%
X165970000Y-81740000D03*
%TO.P,R13,2*%
%TO.N,SCL*%
X164950000Y-81740000D03*
%TD*%
D34*
%TO.P,R2,1*%
%TO.N,Net-(U3-V_{OUT})*%
X149320000Y-87590000D03*
%TO.P,R2,2*%
%TO.N,PA1_T*%
X149320000Y-88610000D03*
%TD*%
D28*
%TO.P,D4,1,K*%
%TO.N,GND*%
X134780000Y-83283750D03*
%TO.P,D4,2,A*%
%TO.N,Net-(D4-A)*%
X134780000Y-84858750D03*
%TD*%
D37*
%TO.P,R8,1*%
%TO.N,Net-(D6-A)*%
X139325000Y-93450000D03*
%TO.P,R8,2*%
%TO.N,T_LED*%
X137675000Y-93450000D03*
%TD*%
D28*
%TO.P,L1,1,1*%
%TO.N,Net-(U6-SW)*%
X127010000Y-86472500D03*
%TO.P,L1,2,2*%
%TO.N,+3.3V*%
X127010000Y-88047500D03*
%TD*%
D16*
%TO.P,R9,1*%
%TO.N,Net-(J1-CC2)*%
X118910000Y-96780000D03*
%TO.P,R9,2*%
%TO.N,GND*%
X119930000Y-96780000D03*
%TD*%
D14*
%TO.P,R3,1*%
%TO.N,Net-(D2-A)*%
X154520000Y-102635000D03*
%TO.P,R3,2*%
%TO.N,LED*%
X154520000Y-100985000D03*
%TD*%
D26*
%TO.P,U6,1,Vin*%
%TO.N,VBUS*%
X122772500Y-86520000D03*
%TO.P,U6,2,GND*%
%TO.N,GND*%
X122772500Y-87470000D03*
%TO.P,U6,3,EN*%
%TO.N,VBUS*%
X122772500Y-88420000D03*
%TO.P,U6,4,FB*%
%TO.N,+3.3V*%
X125047500Y-88420000D03*
%TO.P,U6,5,SW*%
%TO.N,Net-(U6-SW)*%
X125047500Y-86520000D03*
%TD*%
D38*
%TO.P,C4,1*%
%TO.N,RST*%
X160790000Y-85510000D03*
%TO.P,C4,2*%
%TO.N,GND*%
X161750000Y-85510000D03*
%TD*%
D11*
%TO.P,J6,1,Pin_1*%
%TO.N,PD3*%
X145510000Y-110340000D03*
D12*
%TO.P,J6,2,Pin_2*%
%TO.N,PD2*%
X142970000Y-110340000D03*
%TO.P,J6,3,Pin_3*%
%TO.N,PD1*%
X140430000Y-110340000D03*
%TO.P,J6,4,Pin_4*%
%TO.N,PD0*%
X137890000Y-110340000D03*
%TD*%
D39*
%TO.P,C12,1*%
%TO.N,+3.3V*%
X133650000Y-98460000D03*
%TO.P,C12,2*%
%TO.N,GND*%
X132690000Y-98460000D03*
%TD*%
D40*
%TO.P,U3,1,V_{DD}*%
%TO.N,+3.3V*%
X145630000Y-87985000D03*
%TO.P,U3,2,V_{OUT}*%
%TO.N,Net-(U3-V_{OUT})*%
X147530000Y-87985000D03*
%TO.P,U3,3,GND*%
%TO.N,GND*%
X146580000Y-86110000D03*
%TD*%
D36*
%TO.P,R11,1*%
%TO.N,RST*%
X158260000Y-85530000D03*
%TO.P,R11,2*%
%TO.N,+3.3V*%
X157240000Y-85530000D03*
%TD*%
D11*
%TO.P,J2,1,Pin_1*%
%TO.N,+3.3V*%
X125410000Y-78860000D03*
D12*
%TO.P,J2,2,Pin_2*%
%TO.N,+5V*%
X122870000Y-78860000D03*
%TO.P,J2,3,Pin_3*%
%TO.N,GND*%
X120330000Y-78860000D03*
%TO.P,J2,4,Pin_4*%
X117790000Y-78860000D03*
%TD*%
D41*
%TO.P,U2,1,PA5*%
%TO.N,MISO_M*%
X150737500Y-92307500D03*
%TO.P,U2,2,PA6*%
%TO.N,SCK_M*%
X150737500Y-92807500D03*
%TO.P,U2,3,PA7*%
%TO.N,CS_M*%
X150737500Y-93307500D03*
%TO.P,U2,4,PB0*%
%TO.N,TxD*%
X150737500Y-93807500D03*
%TO.P,U2,5,PB1*%
%TO.N,RxD*%
X150737500Y-94307500D03*
%TO.P,U2,6,PB2*%
%TO.N,XCK*%
X150737500Y-94807500D03*
%TO.P,U2,7,PB3*%
%TO.N,XDIR*%
X150737500Y-95307500D03*
%TO.P,U2,8,PB4*%
%TO.N,PB4*%
X150737500Y-95807500D03*
%TO.P,U2,9,PB5*%
%TO.N,PB5*%
X150737500Y-96307500D03*
%TO.P,U2,10,PC0*%
%TO.N,PC0*%
X150737500Y-96807500D03*
%TO.P,U2,11,PC1*%
%TO.N,PC1*%
X150737500Y-97307500D03*
%TO.P,U2,12,PC2*%
%TO.N,SDA_A*%
X150737500Y-97807500D03*
D42*
%TO.P,U2,13,PC3*%
%TO.N,SCL_A*%
X152150000Y-99220000D03*
%TO.P,U2,14,VCC*%
%TO.N,+3.3V*%
X152650000Y-99220000D03*
%TO.P,U2,15,GND*%
%TO.N,GND*%
X153150000Y-99220000D03*
%TO.P,U2,16,PC4*%
%TO.N,unconnected-(U2-PC4-Pad16)*%
X153650000Y-99220000D03*
%TO.P,U2,17,PC5*%
%TO.N,unconnected-(U2-PC5-Pad17)*%
X154150000Y-99220000D03*
%TO.P,U2,18,PC6*%
%TO.N,unconnected-(U2-PC6-Pad18)*%
X154650000Y-99220000D03*
%TO.P,U2,19,PC7*%
%TO.N,LED*%
X155150000Y-99220000D03*
%TO.P,U2,20,PD0*%
%TO.N,PD0*%
X155650000Y-99220000D03*
%TO.P,U2,21,PD1*%
%TO.N,PD1*%
X156150000Y-99220000D03*
%TO.P,U2,22,PD2*%
%TO.N,PD2*%
X156650000Y-99220000D03*
%TO.P,U2,23,PD3*%
%TO.N,PD3*%
X157150000Y-99220000D03*
%TO.P,U2,24,PD4*%
%TO.N,PD4*%
X157650000Y-99220000D03*
D41*
%TO.P,U2,25,PD5*%
%TO.N,PD5*%
X159062500Y-97807500D03*
%TO.P,U2,26,PD6*%
%TO.N,PD6*%
X159062500Y-97307500D03*
%TO.P,U2,27,PD7*%
%TO.N,PD7*%
X159062500Y-96807500D03*
%TO.P,U2,28,AVCC*%
%TO.N,+3.3VA*%
X159062500Y-96307500D03*
%TO.P,U2,29,GND*%
%TO.N,GND*%
X159062500Y-95807500D03*
%TO.P,U2,30,PE0*%
%TO.N,MOSI*%
X159062500Y-95307500D03*
%TO.P,U2,31,PE1*%
%TO.N,MISO*%
X159062500Y-94807500D03*
%TO.P,U2,32,PE2*%
%TO.N,SCK*%
X159062500Y-94307500D03*
%TO.P,U2,33,PE3*%
%TO.N,CS*%
X159062500Y-93807500D03*
%TO.P,U2,34,PF0*%
%TO.N,unconnected-(U2-PF0-Pad34)*%
X159062500Y-93307500D03*
%TO.P,U2,35,PF1*%
%TO.N,unconnected-(U2-PF1-Pad35)*%
X159062500Y-92807500D03*
%TO.P,U2,36,PF2*%
%TO.N,SDA*%
X159062500Y-92307500D03*
D42*
%TO.P,U2,37,PF3*%
%TO.N,SCL*%
X157650000Y-90895000D03*
%TO.P,U2,38,PF4*%
%TO.N,unconnected-(U2-PF4-Pad38)*%
X157150000Y-90895000D03*
%TO.P,U2,39,PF5*%
%TO.N,unconnected-(U2-PF5-Pad39)*%
X156650000Y-90895000D03*
%TO.P,U2,40,PF6/~{RESET}*%
%TO.N,RST*%
X156150000Y-90895000D03*
%TO.P,U2,41,UPDI*%
%TO.N,DEBUG*%
X155650000Y-90895000D03*
%TO.P,U2,42,VCC*%
%TO.N,+3.3V*%
X155150000Y-90895000D03*
%TO.P,U2,43,GND*%
%TO.N,GND*%
X154650000Y-90895000D03*
%TO.P,U2,44,PA0*%
%TO.N,unconnected-(U2-PA0-Pad44)*%
X154150000Y-90895000D03*
%TO.P,U2,45,PA1*%
%TO.N,PA1_T*%
X153650000Y-90895000D03*
%TO.P,U2,46,PA2*%
%TO.N,unconnected-(U2-PA2-Pad46)*%
X153150000Y-90895000D03*
%TO.P,U2,47,PA3*%
%TO.N,unconnected-(U2-PA3-Pad47)*%
X152650000Y-90895000D03*
%TO.P,U2,48,PA4*%
%TO.N,MOSI_M*%
X152150000Y-90895000D03*
%TD*%
D22*
%TO.P,R6,1*%
%TO.N,Net-(D4-A)*%
X134775000Y-86766250D03*
%TO.P,R6,2*%
%TO.N,L_LED*%
X134775000Y-88416250D03*
%TD*%
D11*
%TO.P,J7,1,Pin_1*%
%TO.N,PD7*%
X156760000Y-110340000D03*
D12*
%TO.P,J7,2,Pin_2*%
%TO.N,PD5*%
X154220000Y-110340000D03*
%TO.P,J7,3,Pin_3*%
%TO.N,PD6*%
X151680000Y-110340000D03*
%TO.P,J7,4,Pin_4*%
%TO.N,PD4*%
X149140000Y-110340000D03*
%TD*%
D43*
%TO.P,SW3,1,1*%
%TO.N,RST*%
X157900000Y-87980000D03*
%TO.P,SW3,2,2*%
%TO.N,GND*%
X161300000Y-87980000D03*
%TD*%
D16*
%TO.P,R1,1*%
%TO.N,Net-(SW1-A)*%
X133910000Y-106840000D03*
%TO.P,R1,2*%
%TO.N,+3.3V*%
X134930000Y-106840000D03*
%TD*%
D25*
%TO.P,C3,1*%
%TO.N,Net-(U5-OSC2)*%
X137430000Y-101480000D03*
%TO.P,C3,2*%
%TO.N,GND*%
X137430000Y-102440000D03*
%TD*%
D29*
%TO.P,C10,1*%
%TO.N,+3.3VA*%
X162120000Y-96905000D03*
%TO.P,C10,2*%
%TO.N,GND*%
X162120000Y-95355000D03*
%TD*%
D11*
%TO.P,J5,1,Pin_1*%
%TO.N,MISO*%
X167990000Y-110340000D03*
D12*
%TO.P,J5,2,Pin_2*%
%TO.N,CS*%
X165450000Y-110340000D03*
%TO.P,J5,3,Pin_3*%
%TO.N,SCK*%
X162910000Y-110340000D03*
%TO.P,J5,4,Pin_4*%
%TO.N,MOSI*%
X160370000Y-110340000D03*
%TD*%
D44*
%TO.P,SW1,*%
%TO.N,*%
X128010000Y-109260000D03*
X128010000Y-111470000D03*
X135310000Y-109260000D03*
X135310000Y-111470000D03*
D45*
%TO.P,SW1,1,B*%
%TO.N,Net-(SW1-B)*%
X129410000Y-108610000D03*
%TO.P,SW1,2,C*%
%TO.N,GND*%
X132410000Y-108610000D03*
%TO.P,SW1,3,A*%
%TO.N,Net-(SW1-A)*%
X133910000Y-108610000D03*
%TD*%
D39*
%TO.P,C7,1*%
%TO.N,+3.3V*%
X155160000Y-89330000D03*
%TO.P,C7,2*%
%TO.N,GND*%
X154200000Y-89330000D03*
%TD*%
D46*
%TO.P,D2,1,K*%
%TO.N,GND*%
X151342500Y-102450000D03*
%TO.P,D2,2,A*%
%TO.N,Net-(D2-A)*%
X152917500Y-102450000D03*
%TD*%
D47*
%TO.P,Y1,1,1*%
%TO.N,Net-(U5-OSC1)*%
X134910000Y-99720000D03*
%TO.P,Y1,2,2*%
%TO.N,Net-(U5-OSC2)*%
X137410000Y-99720000D03*
%TD*%
D48*
%TO.N,GND*%
X138730000Y-104170000D03*
X120320000Y-92150000D03*
X132400000Y-81825000D03*
X133580000Y-94780000D03*
X142590000Y-102530000D03*
X129860000Y-89345000D03*
X117715000Y-91290000D03*
X136620000Y-104170000D03*
X144000000Y-93470000D03*
X148280000Y-102280000D03*
X146590000Y-84560000D03*
X134775000Y-81846250D03*
X153170000Y-97560000D03*
X120920000Y-96750000D03*
X119620000Y-87530000D03*
X137600000Y-104170000D03*
X163570000Y-94700000D03*
X162740000Y-85470000D03*
X153580000Y-86630000D03*
X118290000Y-97860000D03*
X132620000Y-99560000D03*
X162560000Y-87950000D03*
X167690000Y-95400000D03*
X126380000Y-94840000D03*
X132400000Y-106970000D03*
X151310000Y-103800000D03*
%TO.N,+3.3V*%
X128860000Y-97280000D03*
X164730000Y-91580000D03*
X164090000Y-83010000D03*
X165970000Y-83010000D03*
X165760000Y-84270000D03*
X156230000Y-85680000D03*
X168090000Y-84300000D03*
X169490000Y-84320000D03*
X149200000Y-99225761D03*
X164100000Y-84310000D03*
X128850000Y-95380000D03*
X155285025Y-86764975D03*
X164740000Y-94830000D03*
X151659881Y-100782961D03*
%TO.N,+5V*%
X121020000Y-94427500D03*
X117620000Y-88510000D03*
X121020000Y-93027500D03*
X119115000Y-89010000D03*
%TO.N,U_D-*%
X114820000Y-93480000D03*
X114710000Y-95560000D03*
%TO.N,XCK*%
X146943417Y-94705041D03*
%TO.N,RxD*%
X146058676Y-94870079D03*
%TO.N,TxD*%
X145008477Y-94930328D03*
%TO.N,XDIR*%
X147800025Y-95029975D03*
%TO.N,SDA*%
X162338023Y-91168073D03*
X160736988Y-92230000D03*
%TO.N,PB4*%
X143560000Y-95280000D03*
%TO.N,PC1*%
X140460000Y-95320000D03*
%TO.N,PB5*%
X142479899Y-95279999D03*
%TO.N,PC0*%
X141489949Y-95279999D03*
%TO.N,Net-(SW1-B)*%
X134230000Y-104850000D03*
X135630000Y-104870000D03*
%TO.N,M_D+*%
X127500000Y-94927500D03*
X127540000Y-96327500D03*
%TO.N,SCK_M*%
X134075000Y-90590000D03*
X135475000Y-90590000D03*
%TO.N,MOSI_M*%
X144539975Y-90270025D03*
X142430000Y-91300000D03*
%TO.N,MISO_M*%
X135870000Y-89640000D03*
X131740000Y-89660000D03*
%TD*%
D49*
%TO.N,GND*%
X121010000Y-87535000D02*
X119625000Y-87535000D01*
X129880000Y-89325000D02*
X129860000Y-89345000D01*
X162700000Y-85510000D02*
X162740000Y-85470000D01*
X161015000Y-95355000D02*
X160790000Y-95580000D01*
X129880000Y-87970000D02*
X129880000Y-89325000D01*
X167675000Y-95385000D02*
X167690000Y-95400000D01*
X151342500Y-102450000D02*
X151342500Y-103767500D01*
X146827500Y-102270000D02*
X148270000Y-102270000D01*
X154650000Y-90895000D02*
X154650000Y-89826846D01*
X121010000Y-87535000D02*
X122707500Y-87535000D01*
X132930000Y-98220000D02*
X132690000Y-98460000D01*
X134900000Y-102480000D02*
X134900000Y-103490000D01*
X160562500Y-95807500D02*
X160790000Y-95580000D01*
X142685000Y-93470000D02*
X144000000Y-93470000D01*
X153560000Y-88690000D02*
X153560000Y-88035000D01*
X132690000Y-99490000D02*
X132620000Y-99560000D01*
X119950000Y-92520000D02*
X120320000Y-92150000D01*
X146580000Y-84570000D02*
X146590000Y-84560000D01*
X153560000Y-88035000D02*
X153625000Y-87970000D01*
X154200000Y-89330000D02*
X153560000Y-88690000D01*
X119950000Y-92950000D02*
X119950000Y-92520000D01*
X119625000Y-87535000D02*
X119620000Y-87530000D01*
X162120000Y-95355000D02*
X161015000Y-95355000D01*
X142580000Y-102520000D02*
X142590000Y-102530000D01*
X132425000Y-81850000D02*
X132400000Y-81825000D01*
X161750000Y-85510000D02*
X162700000Y-85510000D01*
X134920000Y-103510000D02*
X135350000Y-103940000D01*
X153625000Y-87970000D02*
X153625000Y-86675000D01*
X137430000Y-103450000D02*
X137600000Y-103620000D01*
X139750000Y-104170000D02*
X138730000Y-104170000D01*
X161300000Y-87980000D02*
X162530000Y-87980000D01*
X126217500Y-94677500D02*
X126380000Y-94840000D01*
X118230000Y-97800000D02*
X118290000Y-97860000D01*
X139920000Y-102700000D02*
X139920000Y-103960000D01*
X132410000Y-108610000D02*
X132410000Y-106980000D01*
X132930000Y-95430000D02*
X133580000Y-94780000D01*
X139920000Y-103960000D02*
X139940000Y-103980000D01*
X122707500Y-87535000D02*
X122772500Y-87470000D01*
X153150000Y-99220000D02*
X153150000Y-97580000D01*
X132410000Y-106980000D02*
X132400000Y-106970000D01*
X119620000Y-88330000D02*
X119620000Y-87530000D01*
X154200000Y-89376846D02*
X154200000Y-89330000D01*
X119930000Y-96780000D02*
X120890000Y-96780000D01*
X134900000Y-103490000D02*
X134920000Y-103510000D01*
X132690000Y-98460000D02*
X132690000Y-99490000D01*
X135350000Y-103940000D02*
X136290000Y-103940000D01*
X121452500Y-90162500D02*
X119620000Y-88330000D01*
X146580000Y-86110000D02*
X146580000Y-84570000D01*
X134780000Y-81851250D02*
X134775000Y-81846250D01*
X153150000Y-97580000D02*
X153170000Y-97560000D01*
X137600000Y-103620000D02*
X137600000Y-104170000D01*
X134780000Y-83283750D02*
X134780000Y-81851250D01*
X162915000Y-95355000D02*
X163570000Y-94700000D01*
X154650000Y-89826846D02*
X154200000Y-89376846D01*
X117605000Y-91400000D02*
X117715000Y-91290000D01*
X136520000Y-104170000D02*
X136620000Y-104170000D01*
X123685000Y-90162500D02*
X121452500Y-90162500D01*
X166420000Y-95385000D02*
X167675000Y-95385000D01*
X162120000Y-95355000D02*
X162915000Y-95355000D01*
X148270000Y-102270000D02*
X148280000Y-102280000D01*
X137430000Y-103450000D02*
X137440000Y-103460000D01*
X162530000Y-87980000D02*
X162560000Y-87950000D01*
X116830000Y-97800000D02*
X118230000Y-97800000D01*
X142580000Y-101500000D02*
X142580000Y-102520000D01*
X124887500Y-94677500D02*
X126217500Y-94677500D01*
X136290000Y-103940000D02*
X136520000Y-104170000D01*
X120890000Y-96780000D02*
X120920000Y-96750000D01*
X153625000Y-86675000D02*
X153580000Y-86630000D01*
X132930000Y-97230000D02*
X132930000Y-98220000D01*
X139940000Y-103980000D02*
X139750000Y-104170000D01*
X132425000Y-83327500D02*
X132425000Y-81850000D01*
X159062500Y-95807500D02*
X160562500Y-95807500D01*
X116830000Y-91400000D02*
X117605000Y-91400000D01*
X151342500Y-103767500D02*
X151310000Y-103800000D01*
X137430000Y-102440000D02*
X137430000Y-103450000D01*
%TO.N,M_RST*%
X138990000Y-97440000D02*
X139920000Y-98370000D01*
X136690000Y-96080000D02*
X138050000Y-97440000D01*
X142560000Y-100520000D02*
X142580000Y-100540000D01*
X141090000Y-99300000D02*
X141340000Y-99050000D01*
X139920000Y-98370000D02*
X139920000Y-99300000D01*
X138050000Y-97440000D02*
X138990000Y-97440000D01*
X142560000Y-99050000D02*
X142560000Y-100520000D01*
X136030000Y-96080000D02*
X136690000Y-96080000D01*
X139920000Y-99300000D02*
X141090000Y-99300000D01*
X141340000Y-99050000D02*
X142560000Y-99050000D01*
%TO.N,Net-(U5-OSC1)*%
X134230000Y-97230000D02*
X134230000Y-97860000D01*
X134230000Y-97860000D02*
X134910000Y-98540000D01*
X134910000Y-99720000D02*
X134910000Y-101510000D01*
X134910000Y-98540000D02*
X134910000Y-99720000D01*
X134910000Y-101510000D02*
X134900000Y-101520000D01*
%TO.N,Net-(U5-OSC2)*%
X134880000Y-97230000D02*
X134880000Y-97802893D01*
X134880000Y-97802893D02*
X135277107Y-98200000D01*
X135277107Y-98200000D02*
X136850000Y-98200000D01*
X137410000Y-101460000D02*
X137430000Y-101480000D01*
X137410000Y-98760000D02*
X137410000Y-99720000D01*
X137410000Y-99720000D02*
X137410000Y-101460000D01*
X136850000Y-98200000D02*
X137410000Y-98760000D01*
%TO.N,RST*%
X157150000Y-87980000D02*
X156850000Y-87680000D01*
X160770000Y-85530000D02*
X160790000Y-85510000D01*
X158260000Y-85530000D02*
X160770000Y-85530000D01*
X156150000Y-90054380D02*
X156734380Y-89470000D01*
X156780000Y-89470000D02*
X156780000Y-89100000D01*
X156850000Y-87680000D02*
X156850000Y-86890000D01*
X156150000Y-90895000D02*
X156150000Y-90054380D01*
X156734380Y-89470000D02*
X156780000Y-89470000D01*
X157900000Y-87980000D02*
X157150000Y-87980000D01*
X156900000Y-86890000D02*
X158260000Y-85530000D01*
X156780000Y-89100000D02*
X157900000Y-87980000D01*
X156850000Y-86890000D02*
X156900000Y-86890000D01*
%TO.N,VBUS*%
X116830000Y-92200000D02*
X117860000Y-92200000D01*
X114070000Y-92780000D02*
X115644999Y-92780000D01*
X123950000Y-88000000D02*
X123950000Y-87035001D01*
X121010000Y-85985000D02*
X121525000Y-85985000D01*
X123434999Y-86520000D02*
X122772500Y-86520000D01*
X113882893Y-96760000D02*
X112960000Y-95837107D01*
X115320000Y-96760000D02*
X113882893Y-96760000D01*
X115644999Y-92780000D02*
X115660000Y-92795001D01*
X121525000Y-85985000D02*
X122060000Y-86520000D01*
X117860000Y-92200000D02*
X118415000Y-91645000D01*
X116240000Y-97000000D02*
X115660000Y-96420000D01*
X118415000Y-91645000D02*
X118415000Y-87165000D01*
X123530000Y-88420000D02*
X123950000Y-88000000D01*
X112980000Y-94840000D02*
X112980000Y-93870000D01*
X112960000Y-94860000D02*
X112980000Y-94840000D01*
X118415000Y-91645000D02*
X119440000Y-91645000D01*
X119595000Y-85985000D02*
X121010000Y-85985000D01*
X118415000Y-87165000D02*
X119595000Y-85985000D01*
X116830000Y-97000000D02*
X116240000Y-97000000D01*
X115660000Y-92795001D02*
X116255001Y-92200000D01*
X115660000Y-96420000D02*
X115320000Y-96760000D01*
X122060000Y-86520000D02*
X122772500Y-86520000D01*
X123950000Y-87035001D02*
X123434999Y-86520000D01*
X112960000Y-95837107D02*
X112960000Y-94860000D01*
X116255001Y-92200000D02*
X116830000Y-92200000D01*
X112980000Y-93870000D02*
X114070000Y-92780000D01*
X122772500Y-88420000D02*
X123530000Y-88420000D01*
%TO.N,+3.3V*%
X143730000Y-98030000D02*
X144900000Y-99200000D01*
X128860000Y-99150000D02*
X128860000Y-97280000D01*
X169490000Y-86820000D02*
X169490000Y-84320000D01*
X144900000Y-99830000D02*
X144552500Y-100177500D01*
X164280000Y-95290000D02*
X164740000Y-94830000D01*
X144900000Y-99200000D02*
X144900000Y-99830000D01*
X134260000Y-78970000D02*
X132520000Y-78970000D01*
X167770000Y-81760000D02*
X167770000Y-83380000D01*
X137510000Y-88620000D02*
X137510000Y-83591300D01*
X162340000Y-83010000D02*
X161150000Y-81820000D01*
X132510000Y-77741732D02*
X133394083Y-76857649D01*
X127770000Y-82260000D02*
X125780000Y-82260000D01*
X157240000Y-85530000D02*
X157240000Y-84940000D01*
X152650000Y-98029950D02*
X152440000Y-97819950D01*
X133650000Y-99930000D02*
X133310000Y-100270000D01*
X164730000Y-91580000D02*
X169490000Y-86820000D01*
X132520000Y-78970000D02*
X132510000Y-78980000D01*
X131130000Y-95430000D02*
X130540000Y-95430000D01*
X149200000Y-99225761D02*
X148300000Y-99225761D01*
X155150000Y-91735620D02*
X155150000Y-90895000D01*
X130540000Y-95430000D02*
X129290000Y-94180000D01*
X156380000Y-85530000D02*
X156230000Y-85680000D01*
X129980000Y-100270000D02*
X129110000Y-99400000D01*
X152650000Y-99220000D02*
X152650000Y-98029950D01*
X128380000Y-82870000D02*
X127770000Y-82260000D01*
X167060000Y-84090000D02*
X166880000Y-84270000D01*
X166880000Y-84270000D02*
X165760000Y-84270000D01*
X159479988Y-76859988D02*
X156179988Y-76859988D01*
X125047500Y-89975000D02*
X125235000Y-90162500D01*
X152330000Y-100560000D02*
X152107039Y-100782961D01*
X155160000Y-89330000D02*
X155160000Y-87985000D01*
X125235000Y-90162500D02*
X126397500Y-90162500D01*
X167770000Y-83380000D02*
X167060000Y-84090000D01*
X125410000Y-81890000D02*
X125410000Y-78860000D01*
X133310000Y-100270000D02*
X129980000Y-100270000D01*
X164100000Y-84310000D02*
X162270000Y-84310000D01*
X137950000Y-89060000D02*
X137510000Y-88620000D01*
X155285025Y-87859975D02*
X155175000Y-87970000D01*
X156179988Y-76859988D02*
X156760000Y-77440000D01*
X135560000Y-81641300D02*
X135560000Y-80270000D01*
X161850000Y-84730000D02*
X158980000Y-84730000D01*
X157240000Y-85530000D02*
X156380000Y-85530000D01*
X159900000Y-77280000D02*
X159479988Y-76859988D01*
X164280000Y-96112500D02*
X164280000Y-95290000D01*
X152650000Y-99220000D02*
X152650000Y-100240000D01*
X142560000Y-98030000D02*
X143730000Y-98030000D01*
X148300000Y-99225761D02*
X145504239Y-99225761D01*
X166880000Y-84270000D02*
X168060000Y-84270000D01*
X128850000Y-92615000D02*
X126397500Y-90162500D01*
X148420000Y-99345761D02*
X148300000Y-99225761D01*
X168060000Y-84270000D02*
X168090000Y-84300000D01*
X128382500Y-83237500D02*
X128380000Y-83240000D01*
X133580000Y-97230000D02*
X133580000Y-98390000D01*
X156179988Y-76857649D02*
X156179988Y-76859988D01*
X128850000Y-95380000D02*
X128850000Y-94180000D01*
X129110000Y-99400000D02*
X128860000Y-99150000D01*
X158215000Y-83965000D02*
X159900000Y-82280000D01*
X155285025Y-86764975D02*
X155285025Y-87859975D01*
X128380000Y-83240000D02*
X128380000Y-82870000D01*
X127010000Y-89550000D02*
X127010000Y-88047500D01*
X152440000Y-97819950D02*
X152440000Y-94445620D01*
X127010000Y-88047500D02*
X127892500Y-88047500D01*
X134930000Y-104510000D02*
X134930000Y-106840000D01*
X164090000Y-83010000D02*
X162340000Y-83010000D01*
X165032500Y-96112500D02*
X165855000Y-96935000D01*
X165970000Y-81740000D02*
X165970000Y-83010000D01*
X127892500Y-88047500D02*
X128380000Y-87560000D01*
X157240000Y-84940000D02*
X158215000Y-83965000D01*
X155150000Y-89340000D02*
X155160000Y-89330000D01*
X162270000Y-84310000D02*
X161850000Y-84730000D01*
X145504239Y-99225761D02*
X144900000Y-99830000D01*
X159900000Y-82280000D02*
X159900000Y-81820000D01*
X161150000Y-81820000D02*
X159900000Y-81820000D01*
X152107039Y-100782961D02*
X151659881Y-100782961D01*
X125780000Y-82260000D02*
X125410000Y-81890000D01*
X156760000Y-77440000D02*
X156760000Y-78860000D01*
X129870000Y-83237500D02*
X129870000Y-81900000D01*
X126397500Y-90162500D02*
X127010000Y-89550000D01*
X155150000Y-90895000D02*
X155150000Y-89340000D01*
X144552500Y-100177500D02*
X144552500Y-101320000D01*
X128380000Y-87560000D02*
X128380000Y-83240000D01*
X128850000Y-94180000D02*
X128850000Y-92615000D01*
X132510000Y-78980000D02*
X132510000Y-77741732D01*
X143490000Y-89060000D02*
X137950000Y-89060000D01*
X159900000Y-81820000D02*
X159900000Y-77280000D01*
X158980000Y-84730000D02*
X158215000Y-83965000D01*
X155160000Y-87985000D02*
X155175000Y-87970000D01*
X125047500Y-88420000D02*
X125047500Y-89975000D01*
X165855000Y-96935000D02*
X166420000Y-96935000D01*
X144565000Y-87985000D02*
X143490000Y-89060000D01*
X133310000Y-100270000D02*
X133310000Y-102890000D01*
X145630000Y-87985000D02*
X144565000Y-87985000D01*
X133580000Y-98390000D02*
X133650000Y-98460000D01*
X129290000Y-94180000D02*
X128850000Y-94180000D01*
X164280000Y-96112500D02*
X165032500Y-96112500D01*
X152650000Y-100240000D02*
X152330000Y-100560000D01*
X129870000Y-83237500D02*
X128382500Y-83237500D01*
X129870000Y-81900000D02*
X132510000Y-79260000D01*
X152440000Y-94445620D02*
X155150000Y-91735620D01*
X148420000Y-100150000D02*
X148420000Y-99345761D01*
X132510000Y-79260000D02*
X132510000Y-78980000D01*
X133310000Y-102890000D02*
X134930000Y-104510000D01*
X133394083Y-76857649D02*
X156179988Y-76857649D01*
X137510000Y-83591300D02*
X135560000Y-81641300D01*
X133650000Y-98460000D02*
X133650000Y-99930000D01*
X135560000Y-80270000D02*
X134260000Y-78970000D01*
%TO.N,+3.3VA*%
X160790000Y-96540000D02*
X161755000Y-96540000D01*
X162120000Y-96905000D02*
X162875000Y-96905000D01*
X161755000Y-96540000D02*
X162120000Y-96905000D01*
X163657500Y-97687500D02*
X164280000Y-97687500D01*
X160790000Y-96540000D02*
X160557500Y-96307500D01*
X162875000Y-96905000D02*
X163657500Y-97687500D01*
X160557500Y-96307500D02*
X159062500Y-96307500D01*
%TO.N,Net-(D1-A)*%
X129870000Y-86385000D02*
X129880000Y-86395000D01*
X129870000Y-84887500D02*
X129870000Y-86385000D01*
%TO.N,Net-(D2-A)*%
X153102500Y-102635000D02*
X152917500Y-102450000D01*
X154520000Y-102635000D02*
X153102500Y-102635000D01*
%TO.N,Net-(D3-A)*%
X132425000Y-86745000D02*
X132440000Y-86760000D01*
X132425000Y-84902500D02*
X132425000Y-86745000D01*
%TO.N,Net-(D4-A)*%
X134780000Y-84858750D02*
X134780000Y-86761250D01*
X134780000Y-86761250D02*
X134775000Y-86766250D01*
%TO.N,Net-(D6-A)*%
X141090000Y-93450000D02*
X141110000Y-93470000D01*
X139325000Y-93450000D02*
X141090000Y-93450000D01*
%TO.N,+5V*%
X119440000Y-89900000D02*
X119440000Y-90675000D01*
X119115000Y-89010000D02*
X119115000Y-89575000D01*
X121020000Y-94427500D02*
X121197500Y-94427500D01*
X121200000Y-83760000D02*
X122870000Y-82090000D01*
X121472500Y-94677500D02*
X122612500Y-94677500D01*
X117620000Y-88510000D02*
X117620000Y-84720000D01*
X121460000Y-94690000D02*
X121472500Y-94677500D01*
X122870000Y-82090000D02*
X122870000Y-78860000D01*
X119440000Y-90675000D02*
X120175000Y-90675000D01*
X120460000Y-90960000D02*
X121020000Y-91520000D01*
X121020000Y-91520000D02*
X121020000Y-93027500D01*
X120175000Y-90675000D02*
X120460000Y-90960000D01*
X119115000Y-89575000D02*
X119440000Y-89900000D01*
X118580000Y-83760000D02*
X121200000Y-83760000D01*
X117620000Y-84720000D02*
X118580000Y-83760000D01*
X121197500Y-94427500D02*
X121460000Y-94690000D01*
%TO.N,U_D-*%
X115520000Y-94850000D02*
X116830000Y-94850000D01*
X118970000Y-94850000D02*
X119747500Y-95627500D01*
X116830000Y-94850000D02*
X118970000Y-94850000D01*
X116830000Y-93850000D02*
X115190000Y-93850000D01*
X114810000Y-95560000D02*
X115520000Y-94850000D01*
X115190000Y-93850000D02*
X114820000Y-93480000D01*
X119747500Y-95627500D02*
X122612500Y-95627500D01*
X114710000Y-95560000D02*
X114810000Y-95560000D01*
%TO.N,U_D+*%
X120092500Y-93727500D02*
X122612500Y-93727500D01*
X115483553Y-95776397D02*
X114999950Y-96260000D01*
X116830000Y-94350000D02*
X119180000Y-94350000D01*
X119780000Y-93750000D02*
X120070000Y-93750000D01*
X113460000Y-95240000D02*
X114350000Y-94350000D01*
X115727106Y-95350000D02*
X115483553Y-95593553D01*
X113460000Y-95630000D02*
X113460000Y-95240000D01*
X120070000Y-93750000D02*
X120092500Y-93727500D01*
X119180000Y-94350000D02*
X119780000Y-93750000D01*
X115483553Y-95593553D02*
X115483553Y-95776397D01*
X114999950Y-96260000D02*
X114090000Y-96260000D01*
X114090000Y-96260000D02*
X113460000Y-95630000D01*
X116830000Y-95350000D02*
X115727106Y-95350000D01*
X114350000Y-94350000D02*
X116830000Y-94350000D01*
%TO.N,Net-(J1-CC2)*%
X118420000Y-96780000D02*
X117990000Y-96350000D01*
X118910000Y-96780000D02*
X118420000Y-96780000D01*
X117990000Y-96350000D02*
X116830000Y-96350000D01*
%TO.N,Net-(J1-CC1)*%
X118500000Y-92950000D02*
X118100000Y-93350000D01*
X118100000Y-93350000D02*
X116830000Y-93350000D01*
X118930000Y-92950000D02*
X118500000Y-92950000D01*
%TO.N,XCK*%
X147860000Y-94100000D02*
X147253017Y-94100000D01*
X148567500Y-94807500D02*
X147860000Y-94100000D01*
X146771508Y-94581509D02*
X146819885Y-94581509D01*
X146819885Y-94581509D02*
X146943417Y-94705041D01*
X147253017Y-94100000D02*
X146771508Y-94581509D01*
X150737500Y-94807500D02*
X148567500Y-94807500D01*
%TO.N,RxD*%
X146058676Y-94728677D02*
X146058676Y-94870079D01*
X145987955Y-94657956D02*
X146058676Y-94728677D01*
X148160000Y-93600000D02*
X147045911Y-93600000D01*
X148867500Y-94307500D02*
X148160000Y-93600000D01*
X147045911Y-93600000D02*
X145987955Y-94657956D01*
X150737500Y-94307500D02*
X148867500Y-94307500D01*
%TO.N,TxD*%
X146838805Y-93100000D02*
X145008477Y-94930328D01*
X148430000Y-93100000D02*
X146838805Y-93100000D01*
X149137500Y-93807500D02*
X148430000Y-93100000D01*
X150737500Y-93807500D02*
X149137500Y-93807500D01*
%TO.N,XDIR*%
X150737500Y-95307500D02*
X148077550Y-95307500D01*
X148077550Y-95307500D02*
X147787467Y-95017417D01*
X147787467Y-95017417D02*
X147800025Y-95029975D01*
%TO.N,SDA*%
X167990000Y-78860000D02*
X167990000Y-80590000D01*
X167990000Y-80590000D02*
X168790000Y-81390000D01*
X163971927Y-91168073D02*
X168790000Y-86350000D01*
X160659488Y-92307500D02*
X160736988Y-92230000D01*
X162338023Y-91168073D02*
X163971927Y-91168073D01*
X168790000Y-86350000D02*
X168790000Y-81760000D01*
X159062500Y-92307500D02*
X160659488Y-92307500D01*
X168790000Y-81390000D02*
X168790000Y-81760000D01*
%TO.N,SCL*%
X165450000Y-78860000D02*
X165450000Y-80630000D01*
X164950000Y-87380000D02*
X162010000Y-90320000D01*
X162010000Y-90320000D02*
X158225000Y-90320000D01*
X158225000Y-90320000D02*
X157650000Y-90895000D01*
X164950000Y-81740000D02*
X164950000Y-87380000D01*
X165450000Y-80630000D02*
X164950000Y-81130000D01*
X164950000Y-81130000D02*
X164950000Y-81740000D01*
%TO.N,CS*%
X165450000Y-102300000D02*
X165450000Y-103290000D01*
X165450000Y-103290000D02*
X165440000Y-103300000D01*
X160894821Y-93058123D02*
X160894821Y-93055179D01*
X159062500Y-93807500D02*
X160145444Y-93807500D01*
X169900000Y-97850000D02*
X165450000Y-102300000D01*
X160894821Y-93055179D02*
X161170000Y-92780000D01*
X165440000Y-103300000D02*
X165450000Y-103310000D01*
X169010000Y-92780000D02*
X169900000Y-93670000D01*
X161170000Y-92780000D02*
X169010000Y-92780000D01*
X169900000Y-93670000D02*
X169900000Y-97850000D01*
X165450000Y-103310000D02*
X165450000Y-110340000D01*
X160145444Y-93807500D02*
X160894821Y-93058123D01*
%TO.N,SCK*%
X160635394Y-94307500D02*
X161465059Y-93477835D01*
X168507835Y-93477835D02*
X169070000Y-94040000D01*
X169070000Y-94040000D02*
X169070000Y-97520000D01*
X161465059Y-93477835D02*
X168507835Y-93477835D01*
X169070000Y-97520000D02*
X162910000Y-103680000D01*
X162910000Y-103680000D02*
X162910000Y-110340000D01*
X159062500Y-94307500D02*
X160635394Y-94307500D01*
%TO.N,MOSI*%
X163014795Y-94000000D02*
X168322894Y-94000000D01*
X160380620Y-94830000D02*
X160820000Y-94830000D01*
X160820000Y-94830000D02*
X161472165Y-94177835D01*
X159903120Y-95307500D02*
X160380620Y-94830000D01*
X168570000Y-94247106D02*
X168570000Y-97312894D01*
X168322894Y-94000000D02*
X168570000Y-94247106D01*
X161472165Y-94177835D02*
X162836960Y-94177835D01*
X159062500Y-95307500D02*
X159903120Y-95307500D01*
X168570000Y-97312894D02*
X160370000Y-105512894D01*
X162836960Y-94177835D02*
X163014795Y-94000000D01*
X160370000Y-105512894D02*
X160370000Y-110340000D01*
%TO.N,MISO*%
X159062500Y-94807500D02*
X158221880Y-94807500D01*
X158221880Y-94807500D02*
X157975000Y-94560620D01*
X170400000Y-98060000D02*
X167990000Y-100470000D01*
X161710000Y-91530000D02*
X162460000Y-92280000D01*
X170400000Y-93450000D02*
X170400000Y-98060000D01*
X162460000Y-92280000D02*
X169230000Y-92280000D01*
X157975000Y-92015000D02*
X158460000Y-91530000D01*
X167990000Y-100470000D02*
X167990000Y-110340000D01*
X157975000Y-94560620D02*
X157975000Y-92015000D01*
X158460000Y-91530000D02*
X161710000Y-91530000D01*
X169230000Y-92280000D02*
X170400000Y-93450000D01*
%TO.N,PD0*%
X155650000Y-99220000D02*
X155650000Y-103450000D01*
X149660000Y-104680000D02*
X149110000Y-105230000D01*
X149110000Y-105230000D02*
X141030000Y-105230000D01*
X141030000Y-105230000D02*
X137890000Y-108370000D01*
X154420000Y-104680000D02*
X149660000Y-104680000D01*
X137890000Y-108370000D02*
X137890000Y-110340000D01*
X155650000Y-103450000D02*
X154420000Y-104680000D01*
%TO.N,PD3*%
X145510000Y-107630000D02*
X145510000Y-110340000D01*
X157150000Y-99220000D02*
X157150000Y-104230000D01*
X155170000Y-106210000D02*
X150400000Y-106210000D01*
X150400000Y-106210000D02*
X149810000Y-106800000D01*
X146340000Y-106800000D02*
X145510000Y-107630000D01*
X157150000Y-104230000D02*
X155170000Y-106210000D01*
X149810000Y-106800000D02*
X146340000Y-106800000D01*
%TO.N,PD2*%
X142970000Y-107720000D02*
X142970000Y-110340000D01*
X149520000Y-106300000D02*
X144390000Y-106300000D01*
X156650000Y-103970000D02*
X154910000Y-105710000D01*
X156650000Y-99220000D02*
X156650000Y-103970000D01*
X150110000Y-105710000D02*
X149520000Y-106300000D01*
X144390000Y-106300000D02*
X142970000Y-107720000D01*
X154910000Y-105710000D02*
X150110000Y-105710000D01*
%TO.N,PD1*%
X145253553Y-105783554D02*
X142456446Y-105783554D01*
X140430000Y-107810000D02*
X140430000Y-110340000D01*
X145253553Y-105783553D02*
X145253553Y-105783554D01*
X149286447Y-105783553D02*
X145253553Y-105783553D01*
X142456446Y-105783554D02*
X140430000Y-107810000D01*
X149860000Y-105210000D02*
X149286447Y-105783553D01*
X156150000Y-99220000D02*
X156150000Y-103680000D01*
X156150000Y-103680000D02*
X154620000Y-105210000D01*
X154620000Y-105210000D02*
X149860000Y-105210000D01*
%TO.N,PD5*%
X159062500Y-104451714D02*
X155804214Y-107710000D01*
X154360000Y-107710000D02*
X154220000Y-107850000D01*
X159062500Y-97807500D02*
X159062500Y-104451714D01*
X155804214Y-107710000D02*
X154360000Y-107710000D01*
X154220000Y-107850000D02*
X154220000Y-110340000D01*
%TO.N,PD7*%
X160290000Y-98680000D02*
X160290000Y-97160000D01*
X160290000Y-97160000D02*
X159937500Y-96807500D01*
X159690000Y-99280000D02*
X160290000Y-98680000D01*
X159562500Y-104658821D02*
X159690000Y-104531321D01*
X159937500Y-96807500D02*
X159062500Y-96807500D01*
X159690000Y-104531321D02*
X159690000Y-99280000D01*
X156760000Y-110340000D02*
X156760000Y-107461320D01*
X159370660Y-104850660D02*
X159562500Y-104658821D01*
X156760000Y-107461320D02*
X159370660Y-104850660D01*
%TO.N,PD4*%
X155390000Y-106710000D02*
X150607106Y-106710000D01*
X149602894Y-107300000D02*
X149140000Y-107762894D01*
X149140000Y-107762894D02*
X149140000Y-110340000D01*
X150143553Y-107173553D02*
X150017107Y-107300000D01*
X157650000Y-104450000D02*
X155390000Y-106710000D01*
X150017107Y-107300000D02*
X149602894Y-107300000D01*
X150607106Y-106710000D02*
X150143553Y-107173553D01*
X157650000Y-99220000D02*
X157650000Y-104450000D01*
%TO.N,PD6*%
X155597107Y-107210000D02*
X151920000Y-107210000D01*
X151680000Y-107450000D02*
X151680000Y-110340000D01*
X159062500Y-97307500D02*
X158221880Y-97307500D01*
X151920000Y-107210000D02*
X151680000Y-107450000D01*
X158484380Y-104322727D02*
X155597107Y-107210000D01*
X158484380Y-98570000D02*
X158484380Y-104322727D01*
X157975000Y-97554380D02*
X157975000Y-98060620D01*
X158221880Y-97307500D02*
X157975000Y-97554380D01*
X157975000Y-98060620D02*
X158484380Y-98570000D01*
%TO.N,PB4*%
X147840788Y-96867894D02*
X145980000Y-96867894D01*
X143601472Y-95321472D02*
X143560000Y-95280000D01*
X150737500Y-95807500D02*
X148901182Y-95807500D01*
X147964341Y-96744341D02*
X147840788Y-96867894D01*
X148901182Y-95807500D02*
X147964341Y-96744341D01*
X143827384Y-95521472D02*
X143627384Y-95321472D01*
X143627384Y-95321472D02*
X143601472Y-95321472D01*
X145980000Y-96867894D02*
X144633578Y-95521472D01*
X144148579Y-95521472D02*
X143827384Y-95521472D01*
X144633578Y-95521472D02*
X144148579Y-95521472D01*
%TO.N,PC1*%
X148320000Y-98510000D02*
X145430000Y-98510000D01*
X142250000Y-97030000D02*
X140540000Y-95320000D01*
X145430000Y-98510000D02*
X143950000Y-97030000D01*
X149522500Y-97307500D02*
X148760000Y-98070000D01*
X148760000Y-98070000D02*
X148320000Y-98510000D01*
X143950000Y-97030000D02*
X142250000Y-97030000D01*
X140540000Y-95320000D02*
X140460000Y-95320000D01*
X150737500Y-97307500D02*
X149522500Y-97307500D01*
%TO.N,PB5*%
X149108288Y-96307500D02*
X150737500Y-96307500D01*
X144355685Y-96021472D02*
X145702107Y-97367894D01*
X142479899Y-95279999D02*
X143221372Y-96021472D01*
X145702107Y-97367894D02*
X148047894Y-97367894D01*
X148047894Y-97367894D02*
X149108288Y-96307500D01*
X143221372Y-96021472D02*
X144355685Y-96021472D01*
%TO.N,PC0*%
X144157107Y-96530000D02*
X142739950Y-96530000D01*
X142739950Y-96530000D02*
X141489949Y-95279999D01*
X145618554Y-97991447D02*
X144157107Y-96530000D01*
X148131447Y-97991447D02*
X145618554Y-97991447D01*
X150737500Y-96807500D02*
X149315394Y-96807500D01*
X149315394Y-96807500D02*
X148131447Y-97991447D01*
%TO.N,DEBUG*%
X156280000Y-89216846D02*
X156280000Y-86770000D01*
X154220000Y-84710000D02*
X154220000Y-78860000D01*
X156280000Y-86770000D02*
X154220000Y-84710000D01*
X155650000Y-89846846D02*
X156280000Y-89216846D01*
X155650000Y-90895000D02*
X155650000Y-89846846D01*
%TO.N,Net-(U6-SW)*%
X125047500Y-86520000D02*
X126962500Y-86520000D01*
X126962500Y-86520000D02*
X127010000Y-86472500D01*
%TO.N,Net-(SW1-A)*%
X133910000Y-108610000D02*
X133910000Y-106840000D01*
%TO.N,Net-(U3-V_{OUT})*%
X148700000Y-87590000D02*
X148305000Y-87985000D01*
X149320000Y-87590000D02*
X148700000Y-87590000D01*
X148305000Y-87985000D02*
X147530000Y-87985000D01*
%TO.N,PA1_T*%
X152470000Y-88610000D02*
X149320000Y-88610000D01*
X153650000Y-89790000D02*
X152470000Y-88610000D01*
X153650000Y-90895000D02*
X153650000Y-89790000D01*
%TO.N,LED*%
X154520000Y-100985000D02*
X155150000Y-100355000D01*
X155150000Y-100355000D02*
X155150000Y-99220000D01*
%TO.N,C_LED*%
X132910000Y-91550000D02*
X132910000Y-91740000D01*
X132440000Y-88410000D02*
X132440000Y-91080000D01*
X132930000Y-91760000D02*
X132930000Y-92330000D01*
X132440000Y-91080000D02*
X132910000Y-91550000D01*
X132910000Y-91740000D02*
X132930000Y-91760000D01*
%TO.N,L_LED*%
X134230000Y-91650000D02*
X134230000Y-92330000D01*
X134775000Y-91105000D02*
X134230000Y-91650000D01*
X134775000Y-88416250D02*
X134775000Y-91105000D01*
%TO.N,T_LED*%
X136030000Y-93480000D02*
X137645000Y-93480000D01*
X137645000Y-93480000D02*
X137675000Y-93450000D01*
%TO.N,Net-(SW1-B)*%
X139940000Y-104870000D02*
X135630000Y-104870000D01*
X129410000Y-108610000D02*
X129410000Y-107510000D01*
X130040000Y-106880000D02*
X132070000Y-104850000D01*
X141500000Y-104710000D02*
X140100000Y-104710000D01*
X142990000Y-103220000D02*
X141500000Y-104710000D01*
X132070000Y-104850000D02*
X134230000Y-104850000D01*
X144552500Y-103220000D02*
X142990000Y-103220000D01*
X129410000Y-107510000D02*
X130040000Y-106880000D01*
X140100000Y-104710000D02*
X139940000Y-104870000D01*
X144502500Y-103270000D02*
X144552500Y-103220000D01*
%TO.N,M_D+*%
X127500000Y-94927500D02*
X126300000Y-93727500D01*
X130240000Y-98170000D02*
X130070000Y-98000000D01*
X130070000Y-97070000D02*
X129580000Y-96580000D01*
X131920000Y-98170000D02*
X130240000Y-98170000D01*
X126300000Y-93727500D02*
X124887500Y-93727500D01*
X130070000Y-98000000D02*
X130070000Y-97070000D01*
X132280000Y-97230000D02*
X132280000Y-97810000D01*
X127792500Y-96580000D02*
X127540000Y-96327500D01*
X129580000Y-96580000D02*
X127792500Y-96580000D01*
X132280000Y-97810000D02*
X131920000Y-98170000D01*
%TO.N,M_D-*%
X131130000Y-96080000D02*
X128330000Y-96080000D01*
X127877500Y-95627500D02*
X124887500Y-95627500D01*
X128330000Y-96080000D02*
X127877500Y-95627500D01*
%TO.N,SDA_A*%
X149260000Y-101170000D02*
X149900000Y-100530000D01*
X149900000Y-100530000D02*
X149900000Y-98645000D01*
X149900000Y-98645000D02*
X150737500Y-97807500D01*
X146827500Y-101320000D02*
X148270000Y-101320000D01*
X148270000Y-101320000D02*
X148420000Y-101170000D01*
X148420000Y-101170000D02*
X149260000Y-101170000D01*
%TO.N,SCK_M*%
X133580000Y-92330000D02*
X133580000Y-91085000D01*
X136630000Y-90590000D02*
X136640000Y-90580000D01*
X149687500Y-92807500D02*
X150737500Y-92807500D01*
X148930000Y-92050000D02*
X149687500Y-92807500D01*
X133580000Y-91085000D02*
X134075000Y-90590000D01*
X135475000Y-90590000D02*
X136630000Y-90590000D01*
X136640000Y-90580000D02*
X142770000Y-90580000D01*
X142770000Y-90580000D02*
X144240000Y-92050000D01*
X144240000Y-92050000D02*
X148930000Y-92050000D01*
%TO.N,MOSI_M*%
X152150000Y-90895000D02*
X152150000Y-89740000D01*
X136530000Y-91300000D02*
X142430000Y-91300000D01*
X146440000Y-89410000D02*
X145579975Y-90270025D01*
X152150000Y-89740000D02*
X151820000Y-89410000D01*
X134880000Y-91707106D02*
X135243553Y-91343553D01*
X134880000Y-92330000D02*
X134880000Y-91707106D01*
X135243553Y-91343553D02*
X135287106Y-91300000D01*
X135287106Y-91300000D02*
X136530000Y-91300000D01*
X145579975Y-90270025D02*
X144539975Y-90270025D01*
X151820000Y-89410000D02*
X146440000Y-89410000D01*
%TO.N,MISO_M*%
X136590000Y-89640000D02*
X136610000Y-89620000D01*
X136610000Y-89620000D02*
X136970000Y-89980000D01*
X136970000Y-89980000D02*
X143260000Y-89980000D01*
X143260000Y-89980000D02*
X144660000Y-91380000D01*
X144660000Y-91380000D02*
X148990000Y-91380000D01*
X132280000Y-91627106D02*
X132171447Y-91518553D01*
X132171447Y-91518553D02*
X131740000Y-91087106D01*
X132280000Y-92330000D02*
X132280000Y-91627106D01*
X148990000Y-91380000D02*
X149917500Y-92307500D01*
X135870000Y-89640000D02*
X136590000Y-89640000D01*
X131740000Y-91087106D02*
X131740000Y-89660000D01*
X149917500Y-92307500D02*
X150737500Y-92307500D01*
%TO.N,CS_M*%
X137470000Y-94740000D02*
X137630000Y-94580000D01*
X136030000Y-95430000D02*
X136780000Y-95430000D01*
X137630000Y-94580000D02*
X143660000Y-94580000D01*
X149397500Y-93307500D02*
X150737500Y-93307500D01*
X148640000Y-92550000D02*
X149397500Y-93307500D01*
X144330000Y-94580000D02*
X146360000Y-92550000D01*
X136780000Y-95430000D02*
X137470000Y-94740000D01*
X146360000Y-92550000D02*
X148640000Y-92550000D01*
X143660000Y-94580000D02*
X144330000Y-94580000D01*
%TO.N,SCL_A*%
X151960000Y-99410000D02*
X152150000Y-99220000D01*
X148370000Y-103220000D02*
X148440000Y-103290000D01*
X148440000Y-103290000D02*
X150960000Y-100770000D01*
X150960000Y-99960000D02*
X151510000Y-99410000D01*
X146827500Y-103220000D02*
X148370000Y-103220000D01*
X150960000Y-100770000D02*
X150960000Y-99960000D01*
X151510000Y-99410000D02*
X151960000Y-99410000D01*
%TD*%
M02*
