%TF.GenerationSoftware,KiCad,Pcbnew,8.0.5*%
%TF.CreationDate,2024-12-16T18:06:57+02:00*%
%TF.ProjectId,TheXeric,54686558-6572-4696-932e-6b696361645f,1.0*%
%TF.SameCoordinates,Original*%
%TF.FileFunction,Copper,L2,Bot*%
%TF.FilePolarity,Positive*%
%FSLAX46Y46*%
G04 Gerber Fmt 4.6, Leading zero omitted, Abs format (unit mm)*
G04 Created by KiCad (PCBNEW 8.0.5) date 2024-12-16 18:06:57*
%MOMM*%
%LPD*%
G01*
G04 APERTURE LIST*
%TA.AperFunction,ComponentPad*%
%ADD10R,1.700000X1.700000*%
%TD*%
%TA.AperFunction,ComponentPad*%
%ADD11O,1.700000X1.700000*%
%TD*%
%TA.AperFunction,ComponentPad*%
%ADD12O,2.100000X1.000000*%
%TD*%
%TA.AperFunction,ComponentPad*%
%ADD13O,1.800000X1.000000*%
%TD*%
%TA.AperFunction,ViaPad*%
%ADD14C,0.700000*%
%TD*%
%TA.AperFunction,Conductor*%
%ADD15C,0.300000*%
%TD*%
G04 APERTURE END LIST*
D10*
%TO.P,J3,1,Pin_1*%
%TO.N,XDIR*%
X125410000Y-110340000D03*
D11*
%TO.P,J3,2,Pin_2*%
%TO.N,XCK*%
X122870000Y-110340000D03*
%TO.P,J3,3,Pin_3*%
%TO.N,RxD*%
X120330000Y-110340000D03*
%TO.P,J3,4,Pin_4*%
%TO.N,TxD*%
X117790000Y-110340000D03*
%TD*%
D10*
%TO.P,J9,1,Pin_1*%
%TO.N,+3.3V*%
X156760000Y-78860000D03*
D11*
%TO.P,J9,2,Pin_2*%
%TO.N,DEBUG*%
X154220000Y-78860000D03*
%TO.P,J9,3,Pin_3*%
%TO.N,GND*%
X151680000Y-78860000D03*
%TD*%
D10*
%TO.P,J4,1,Pin_1*%
%TO.N,SDA*%
X167990000Y-78860000D03*
D11*
%TO.P,J4,2,Pin_2*%
%TO.N,SCL*%
X165450000Y-78860000D03*
%TO.P,J4,3,Pin_3*%
%TO.N,GND*%
X162910000Y-78860000D03*
%TD*%
D10*
%TO.P,J8,1,Pin_1*%
%TO.N,PB4*%
X145510000Y-78860000D03*
D11*
%TO.P,J8,2,Pin_2*%
%TO.N,PB5*%
X142970000Y-78860000D03*
%TO.P,J8,3,Pin_3*%
%TO.N,PC0*%
X140430000Y-78860000D03*
%TO.P,J8,4,Pin_4*%
%TO.N,PC1*%
X137890000Y-78860000D03*
%TD*%
D12*
%TO.P,J1,S1,SHIELD*%
%TO.N,unconnected-(J1-SHIELD-PadS1)_2*%
X116255000Y-90280000D03*
D13*
%TO.N,unconnected-(J1-SHIELD-PadS1)_3*%
X112075000Y-90280000D03*
D12*
%TO.N,unconnected-(J1-SHIELD-PadS1)_1*%
X116255000Y-98920000D03*
D13*
%TO.N,unconnected-(J1-SHIELD-PadS1)*%
X112075000Y-98920000D03*
%TD*%
D10*
%TO.P,J6,1,Pin_1*%
%TO.N,PD3*%
X145510000Y-110340000D03*
D11*
%TO.P,J6,2,Pin_2*%
%TO.N,PD2*%
X142970000Y-110340000D03*
%TO.P,J6,3,Pin_3*%
%TO.N,PD1*%
X140430000Y-110340000D03*
%TO.P,J6,4,Pin_4*%
%TO.N,PD0*%
X137890000Y-110340000D03*
%TD*%
D10*
%TO.P,J2,1,Pin_1*%
%TO.N,+3.3V*%
X125410000Y-78860000D03*
D11*
%TO.P,J2,2,Pin_2*%
%TO.N,+5V*%
X122870000Y-78860000D03*
%TO.P,J2,3,Pin_3*%
%TO.N,GND*%
X120330000Y-78860000D03*
%TO.P,J2,4,Pin_4*%
X117790000Y-78860000D03*
%TD*%
D10*
%TO.P,J7,1,Pin_1*%
%TO.N,PD7*%
X156760000Y-110340000D03*
D11*
%TO.P,J7,2,Pin_2*%
%TO.N,PD5*%
X154220000Y-110340000D03*
%TO.P,J7,3,Pin_3*%
%TO.N,PD6*%
X151680000Y-110340000D03*
%TO.P,J7,4,Pin_4*%
%TO.N,PD4*%
X149140000Y-110340000D03*
%TD*%
D10*
%TO.P,J5,1,Pin_1*%
%TO.N,MISO*%
X167990000Y-110340000D03*
D11*
%TO.P,J5,2,Pin_2*%
%TO.N,CS*%
X165450000Y-110340000D03*
%TO.P,J5,3,Pin_3*%
%TO.N,SCK*%
X162910000Y-110340000D03*
%TO.P,J5,4,Pin_4*%
%TO.N,MOSI*%
X160370000Y-110340000D03*
%TD*%
D14*
%TO.N,GND*%
X138730000Y-104170000D03*
X120320000Y-92150000D03*
X132400000Y-81825000D03*
X133580000Y-94780000D03*
X142590000Y-102530000D03*
X129860000Y-89345000D03*
X117715000Y-91290000D03*
X136620000Y-104170000D03*
X144000000Y-93470000D03*
X148280000Y-102280000D03*
X146590000Y-84560000D03*
X134775000Y-81846250D03*
X153170000Y-97560000D03*
X120920000Y-96750000D03*
X119620000Y-87530000D03*
X137600000Y-104170000D03*
X163570000Y-94700000D03*
X162740000Y-85470000D03*
X153580000Y-86630000D03*
X118290000Y-97860000D03*
X132620000Y-99560000D03*
X162560000Y-87950000D03*
X167690000Y-95400000D03*
X126380000Y-94840000D03*
X132400000Y-106970000D03*
X151310000Y-103800000D03*
%TO.N,+3.3V*%
X128860000Y-97280000D03*
X164730000Y-91580000D03*
X164090000Y-83010000D03*
X165970000Y-83010000D03*
X165760000Y-84270000D03*
X156230000Y-85680000D03*
X168090000Y-84300000D03*
X169490000Y-84320000D03*
X149200000Y-99225761D03*
X164100000Y-84310000D03*
X128850000Y-95380000D03*
X155285025Y-86764975D03*
X164740000Y-94830000D03*
X151659881Y-100782961D03*
%TO.N,+5V*%
X121020000Y-94427500D03*
X117620000Y-88510000D03*
X121020000Y-93027500D03*
X119115000Y-89010000D03*
%TO.N,U_D-*%
X114820000Y-93480000D03*
X114710000Y-95560000D03*
%TO.N,XCK*%
X146943417Y-94705041D03*
%TO.N,RxD*%
X146058676Y-94870079D03*
%TO.N,TxD*%
X145008477Y-94930328D03*
%TO.N,XDIR*%
X147800025Y-95029975D03*
%TO.N,SDA*%
X162338023Y-91168073D03*
X160736988Y-92230000D03*
%TO.N,PB4*%
X143560000Y-95280000D03*
%TO.N,PC1*%
X140460000Y-95320000D03*
%TO.N,PB5*%
X142479899Y-95279999D03*
%TO.N,PC0*%
X141489949Y-95279999D03*
%TO.N,Net-(SW1-B)*%
X134230000Y-104850000D03*
X135630000Y-104870000D03*
%TO.N,M_D+*%
X127500000Y-94927500D03*
X127540000Y-96327500D03*
%TO.N,SCK_M*%
X134075000Y-90590000D03*
X135475000Y-90590000D03*
%TO.N,MOSI_M*%
X144539975Y-90270025D03*
X142430000Y-91300000D03*
%TO.N,MISO_M*%
X135870000Y-89640000D03*
X131740000Y-89660000D03*
%TD*%
D15*
%TO.N,+3.3V*%
X169470000Y-84300000D02*
X169490000Y-84320000D01*
X164740000Y-94830000D02*
X164740000Y-91590000D01*
X168090000Y-84300000D02*
X169470000Y-84300000D01*
X165760000Y-84270000D02*
X164140000Y-84270000D01*
X156230000Y-85820000D02*
X155285025Y-86764975D01*
X165970000Y-83010000D02*
X164090000Y-83010000D01*
X150757200Y-100782961D02*
X149200000Y-99225761D01*
X128860000Y-95390000D02*
X128850000Y-95380000D01*
X164740000Y-91590000D02*
X164730000Y-91580000D01*
X156230000Y-85680000D02*
X156230000Y-85820000D01*
X128860000Y-97280000D02*
X128860000Y-95390000D01*
X151659881Y-100782961D02*
X150757200Y-100782961D01*
X164140000Y-84270000D02*
X164100000Y-84310000D01*
%TO.N,+5V*%
X117620000Y-88510000D02*
X118615000Y-88510000D01*
X121020000Y-93027500D02*
X121020000Y-94427500D01*
X118615000Y-88510000D02*
X119115000Y-89010000D01*
%TO.N,U_D-*%
X113780000Y-95150000D02*
X114120000Y-95490000D01*
X113780000Y-93920000D02*
X113780000Y-95150000D01*
X114820000Y-93480000D02*
X114220000Y-93480000D01*
X114120000Y-95490000D02*
X114190000Y-95560000D01*
X114190000Y-95560000D02*
X114710000Y-95560000D01*
X114220000Y-93480000D02*
X113780000Y-93920000D01*
%TO.N,XCK*%
X139348702Y-102570003D02*
X128469997Y-102570003D01*
X146943417Y-94975288D02*
X139348702Y-102570003D01*
X146943417Y-94705041D02*
X146943417Y-94975288D01*
X128469997Y-102570003D02*
X122870000Y-108170000D01*
X122870000Y-108170000D02*
X122870000Y-110340000D01*
%TO.N,RxD*%
X139058752Y-101870003D02*
X132610000Y-101870003D01*
X132610000Y-101870003D02*
X126570003Y-101870003D01*
X120330000Y-108120000D02*
X120330000Y-110340000D01*
X146058676Y-94870079D02*
X139058752Y-101870003D01*
X126570003Y-101879997D02*
X120330000Y-108120000D01*
%TO.N,TxD*%
X145008477Y-94930328D02*
X138968805Y-100970000D01*
X125050000Y-100970000D02*
X117790000Y-108230000D01*
X117790000Y-108230000D02*
X117790000Y-110340000D01*
X138968805Y-100970000D02*
X125050000Y-100970000D01*
%TO.N,XDIR*%
X139360000Y-103470000D02*
X130190000Y-103470000D01*
X125410000Y-108250000D02*
X125410000Y-110340000D01*
X147800025Y-95029975D02*
X139360000Y-103470000D01*
X130190000Y-103470000D02*
X125410000Y-108250000D01*
%TO.N,SDA*%
X161276096Y-92230000D02*
X162338023Y-91168073D01*
X160736988Y-92230000D02*
X161276096Y-92230000D01*
%TO.N,PB4*%
X142230000Y-92489950D02*
X143310000Y-92489950D01*
X143310000Y-92489950D02*
X145239975Y-90559975D01*
X145510000Y-82980000D02*
X145510000Y-78860000D01*
X144308433Y-84181567D02*
X145510000Y-82980000D01*
X143560000Y-95280000D02*
X142230000Y-93950000D01*
X145239975Y-90559975D02*
X145239975Y-88265256D01*
X145239975Y-88265256D02*
X144308433Y-87333714D01*
X142230000Y-93950000D02*
X142230000Y-92489950D01*
X144308433Y-87333714D02*
X144308433Y-84181567D01*
%TO.N,PC1*%
X137890000Y-82690000D02*
X137890000Y-78860000D01*
X138550000Y-93410000D02*
X138550000Y-83350000D01*
X138550000Y-83350000D02*
X137890000Y-82690000D01*
X140460000Y-95320000D02*
X138550000Y-93410000D01*
%TO.N,PB5*%
X142479899Y-95279999D02*
X141730000Y-94530100D01*
X142970000Y-88350000D02*
X142970000Y-78860000D01*
X141730000Y-89590000D02*
X142970000Y-88350000D01*
X141730000Y-94530100D02*
X141730000Y-89590000D01*
%TO.N,PC0*%
X140430000Y-88340000D02*
X140430000Y-78860000D01*
X140410000Y-94200050D02*
X140410000Y-88360000D01*
X140410000Y-88360000D02*
X140430000Y-88340000D01*
X141489949Y-95279999D02*
X140410000Y-94200050D01*
%TO.N,Net-(SW1-B)*%
X134230000Y-104850000D02*
X135610000Y-104850000D01*
X135610000Y-104850000D02*
X135630000Y-104870000D01*
%TO.N,M_D+*%
X127540000Y-94967500D02*
X127500000Y-94927500D01*
X127540000Y-96327500D02*
X127540000Y-94967500D01*
%TO.N,SCK_M*%
X134075000Y-90590000D02*
X135475000Y-90590000D01*
%TO.N,MOSI_M*%
X143510000Y-91300000D02*
X144539975Y-90270025D01*
X142430000Y-91300000D02*
X143510000Y-91300000D01*
%TO.N,MISO_M*%
X131740000Y-89660000D02*
X135850000Y-89660000D01*
X135850000Y-89660000D02*
X135870000Y-89640000D01*
%TD*%
%TA.AperFunction,Conductor*%
%TO.N,GND*%
G36*
X119864075Y-78667007D02*
G01*
X119830000Y-78794174D01*
X119830000Y-78925826D01*
X119864075Y-79052993D01*
X119896988Y-79110000D01*
X118223012Y-79110000D01*
X118255925Y-79052993D01*
X118290000Y-78925826D01*
X118290000Y-78794174D01*
X118255925Y-78667007D01*
X118223012Y-78610000D01*
X119896988Y-78610000D01*
X119864075Y-78667007D01*
G37*
%TD.AperFunction*%
%TA.AperFunction,Conductor*%
G36*
X169715770Y-76710486D02*
G01*
X169715965Y-76710500D01*
X169724108Y-76710500D01*
X169784587Y-76710500D01*
X169795394Y-76710972D01*
X169825721Y-76713625D01*
X169952755Y-76724739D01*
X169974035Y-76728491D01*
X170084048Y-76757969D01*
X170121369Y-76767969D01*
X170141681Y-76775362D01*
X170279915Y-76839822D01*
X170298633Y-76850629D01*
X170423582Y-76938119D01*
X170440140Y-76952013D01*
X170547986Y-77059859D01*
X170561880Y-77076417D01*
X170649370Y-77201366D01*
X170660177Y-77220084D01*
X170724637Y-77358318D01*
X170732030Y-77378630D01*
X170771507Y-77525961D01*
X170775260Y-77547246D01*
X170789028Y-77704605D01*
X170789500Y-77715413D01*
X170789500Y-111484586D01*
X170789028Y-111495394D01*
X170775260Y-111652753D01*
X170771507Y-111674038D01*
X170732030Y-111821369D01*
X170724637Y-111841681D01*
X170660177Y-111979915D01*
X170649370Y-111998633D01*
X170561880Y-112123582D01*
X170547986Y-112140140D01*
X170440140Y-112247986D01*
X170423582Y-112261880D01*
X170298633Y-112349370D01*
X170279915Y-112360177D01*
X170141681Y-112424637D01*
X170121369Y-112432030D01*
X169974038Y-112471507D01*
X169952753Y-112475260D01*
X169795395Y-112489028D01*
X169784587Y-112489500D01*
X169716480Y-112489500D01*
X169716264Y-112489513D01*
X116008554Y-112499500D01*
X110905413Y-112499500D01*
X110894605Y-112499028D01*
X110737246Y-112485260D01*
X110715961Y-112481507D01*
X110568630Y-112442030D01*
X110548318Y-112434637D01*
X110410084Y-112370177D01*
X110391366Y-112359370D01*
X110266417Y-112271880D01*
X110249859Y-112257986D01*
X110142013Y-112150140D01*
X110128119Y-112133582D01*
X110040629Y-112008633D01*
X110029822Y-111989915D01*
X109965362Y-111851681D01*
X109957969Y-111831369D01*
X109918492Y-111684038D01*
X109914739Y-111662752D01*
X109900972Y-111505393D01*
X109900500Y-111494586D01*
X109900500Y-110339999D01*
X116634571Y-110339999D01*
X116634571Y-110340000D01*
X116654244Y-110552310D01*
X116712596Y-110757392D01*
X116712596Y-110757394D01*
X116807632Y-110948253D01*
X116862191Y-111020500D01*
X116936128Y-111118407D01*
X117093698Y-111262052D01*
X117274981Y-111374298D01*
X117473802Y-111451321D01*
X117683390Y-111490500D01*
X117683392Y-111490500D01*
X117896608Y-111490500D01*
X117896610Y-111490500D01*
X118106198Y-111451321D01*
X118305019Y-111374298D01*
X118486302Y-111262052D01*
X118643872Y-111118407D01*
X118772366Y-110948255D01*
X118808705Y-110875276D01*
X118867403Y-110757394D01*
X118867403Y-110757393D01*
X118867405Y-110757389D01*
X118925756Y-110552310D01*
X118936529Y-110436047D01*
X118962315Y-110371111D01*
X119006869Y-110339194D01*
X118970497Y-110318331D01*
X118938307Y-110256318D01*
X118936529Y-110243951D01*
X118930627Y-110180261D01*
X118925756Y-110127690D01*
X118867405Y-109922611D01*
X118867403Y-109922606D01*
X118867403Y-109922605D01*
X118772367Y-109731746D01*
X118643872Y-109561593D01*
X118516133Y-109445143D01*
X118486302Y-109417948D01*
X118368530Y-109345026D01*
X118300145Y-109302684D01*
X118301441Y-109300589D01*
X118257969Y-109260257D01*
X118240500Y-109196797D01*
X118240500Y-108467965D01*
X118260185Y-108400926D01*
X118276819Y-108380284D01*
X125200284Y-101456819D01*
X125261607Y-101423334D01*
X125287965Y-101420500D01*
X126093034Y-101420500D01*
X126160073Y-101440185D01*
X126205828Y-101492989D01*
X126215772Y-101562147D01*
X126186747Y-101625703D01*
X126180715Y-101632181D01*
X119969513Y-107843383D01*
X119969509Y-107843389D01*
X119910201Y-107946112D01*
X119910200Y-107946117D01*
X119879500Y-108060691D01*
X119879500Y-109196797D01*
X119859815Y-109263836D01*
X119818654Y-109300744D01*
X119819855Y-109302684D01*
X119633699Y-109417947D01*
X119476127Y-109561593D01*
X119347632Y-109731746D01*
X119252596Y-109922605D01*
X119252596Y-109922607D01*
X119194244Y-110127689D01*
X119183471Y-110243951D01*
X119157685Y-110308888D01*
X119113130Y-110340804D01*
X119149503Y-110361668D01*
X119181693Y-110423681D01*
X119183471Y-110436048D01*
X119194244Y-110552310D01*
X119252596Y-110757392D01*
X119252596Y-110757394D01*
X119347632Y-110948253D01*
X119402191Y-111020500D01*
X119476128Y-111118407D01*
X119633698Y-111262052D01*
X119814981Y-111374298D01*
X120013802Y-111451321D01*
X120223390Y-111490500D01*
X120223392Y-111490500D01*
X120436608Y-111490500D01*
X120436610Y-111490500D01*
X120646198Y-111451321D01*
X120845019Y-111374298D01*
X121026302Y-111262052D01*
X121183872Y-111118407D01*
X121312366Y-110948255D01*
X121348705Y-110875276D01*
X121407403Y-110757394D01*
X121407403Y-110757393D01*
X121407405Y-110757389D01*
X121465756Y-110552310D01*
X121476529Y-110436047D01*
X121502315Y-110371111D01*
X121546869Y-110339194D01*
X121510497Y-110318331D01*
X121478307Y-110256318D01*
X121476529Y-110243951D01*
X121470627Y-110180261D01*
X121465756Y-110127690D01*
X121407405Y-109922611D01*
X121407403Y-109922606D01*
X121407403Y-109922605D01*
X121312367Y-109731746D01*
X121183872Y-109561593D01*
X121056133Y-109445143D01*
X121026302Y-109417948D01*
X120908530Y-109345026D01*
X120840145Y-109302684D01*
X120841441Y-109300589D01*
X120797969Y-109260257D01*
X120780500Y-109196797D01*
X120780500Y-108357965D01*
X120800185Y-108290926D01*
X120816819Y-108270284D01*
X126730281Y-102356822D01*
X126791604Y-102323337D01*
X126817962Y-102320503D01*
X127783031Y-102320503D01*
X127850070Y-102340188D01*
X127895825Y-102392992D01*
X127905769Y-102462150D01*
X127876744Y-102525706D01*
X127870712Y-102532184D01*
X122509513Y-107893383D01*
X122509509Y-107893389D01*
X122450201Y-107996112D01*
X122450200Y-107996117D01*
X122419500Y-108110691D01*
X122419500Y-109196797D01*
X122399815Y-109263836D01*
X122358654Y-109300744D01*
X122359855Y-109302684D01*
X122173699Y-109417947D01*
X122016127Y-109561593D01*
X121887632Y-109731746D01*
X121792596Y-109922605D01*
X121792596Y-109922607D01*
X121734244Y-110127689D01*
X121723471Y-110243951D01*
X121697685Y-110308888D01*
X121653130Y-110340804D01*
X121689503Y-110361668D01*
X121721693Y-110423681D01*
X121723471Y-110436048D01*
X121734244Y-110552310D01*
X121792596Y-110757392D01*
X121792596Y-110757394D01*
X121887632Y-110948253D01*
X121942191Y-111020500D01*
X122016128Y-111118407D01*
X122173698Y-111262052D01*
X122354981Y-111374298D01*
X122553802Y-111451321D01*
X122763390Y-111490500D01*
X122763392Y-111490500D01*
X122976608Y-111490500D01*
X122976610Y-111490500D01*
X123186198Y-111451321D01*
X123385019Y-111374298D01*
X123566302Y-111262052D01*
X123723872Y-111118407D01*
X123852366Y-110948255D01*
X123888705Y-110875276D01*
X123947403Y-110757394D01*
X123947403Y-110757393D01*
X123947405Y-110757389D01*
X124005756Y-110552310D01*
X124012029Y-110484605D01*
X124037814Y-110419669D01*
X124094614Y-110378981D01*
X124164395Y-110375461D01*
X124225002Y-110410225D01*
X124257193Y-110472238D01*
X124259500Y-110496047D01*
X124259500Y-111234856D01*
X124259502Y-111234882D01*
X124262413Y-111259987D01*
X124262415Y-111259991D01*
X124307793Y-111362764D01*
X124307794Y-111362765D01*
X124387235Y-111442206D01*
X124490009Y-111487585D01*
X124515135Y-111490500D01*
X126304864Y-111490499D01*
X126304879Y-111490497D01*
X126304882Y-111490497D01*
X126329987Y-111487586D01*
X126329988Y-111487585D01*
X126329991Y-111487585D01*
X126432765Y-111442206D01*
X126512206Y-111362765D01*
X126557585Y-111259991D01*
X126560500Y-111234865D01*
X126560500Y-110434071D01*
X129509499Y-110434071D01*
X129534497Y-110559738D01*
X129534499Y-110559744D01*
X129583533Y-110678124D01*
X129583538Y-110678133D01*
X129654723Y-110784668D01*
X129654726Y-110784672D01*
X129745327Y-110875273D01*
X129745331Y-110875276D01*
X129851866Y-110946461D01*
X129851875Y-110946466D01*
X129856194Y-110948255D01*
X129970256Y-110995501D01*
X129970260Y-110995501D01*
X129970261Y-110995502D01*
X130095928Y-111020500D01*
X130095931Y-111020500D01*
X130224071Y-111020500D01*
X130308615Y-111003682D01*
X130349744Y-110995501D01*
X130468127Y-110946465D01*
X130574669Y-110875276D01*
X130665276Y-110784669D01*
X130736465Y-110678127D01*
X130785501Y-110559744D01*
X130793682Y-110518615D01*
X130810500Y-110434071D01*
X132509499Y-110434071D01*
X132534497Y-110559738D01*
X132534499Y-110559744D01*
X132583533Y-110678124D01*
X132583538Y-110678133D01*
X132654723Y-110784668D01*
X132654726Y-110784672D01*
X132745327Y-110875273D01*
X132745331Y-110875276D01*
X132851866Y-110946461D01*
X132851875Y-110946466D01*
X132856194Y-110948255D01*
X132970256Y-110995501D01*
X132970260Y-110995501D01*
X132970261Y-110995502D01*
X133095928Y-111020500D01*
X133095931Y-111020500D01*
X133224071Y-111020500D01*
X133308615Y-111003682D01*
X133349744Y-110995501D01*
X133468127Y-110946465D01*
X133574669Y-110875276D01*
X133665276Y-110784669D01*
X133736465Y-110678127D01*
X133785501Y-110559744D01*
X133793682Y-110518615D01*
X133810500Y-110434071D01*
X133810500Y-110339999D01*
X136734571Y-110339999D01*
X136734571Y-110340000D01*
X136754244Y-110552310D01*
X136812596Y-110757392D01*
X136812596Y-110757394D01*
X136907632Y-110948253D01*
X136962191Y-111020500D01*
X137036128Y-111118407D01*
X137193698Y-111262052D01*
X137374981Y-111374298D01*
X137573802Y-111451321D01*
X137783390Y-111490500D01*
X137783392Y-111490500D01*
X137996608Y-111490500D01*
X137996610Y-111490500D01*
X138206198Y-111451321D01*
X138405019Y-111374298D01*
X138586302Y-111262052D01*
X138743872Y-111118407D01*
X138872366Y-110948255D01*
X138908705Y-110875276D01*
X138967403Y-110757394D01*
X138967403Y-110757393D01*
X138967405Y-110757389D01*
X139025756Y-110552310D01*
X139036529Y-110436047D01*
X139062315Y-110371111D01*
X139104622Y-110340804D01*
X139213130Y-110340804D01*
X139249503Y-110361668D01*
X139281693Y-110423681D01*
X139283471Y-110436048D01*
X139294244Y-110552310D01*
X139352596Y-110757392D01*
X139352596Y-110757394D01*
X139447632Y-110948253D01*
X139502191Y-111020500D01*
X139576128Y-111118407D01*
X139733698Y-111262052D01*
X139914981Y-111374298D01*
X140113802Y-111451321D01*
X140323390Y-111490500D01*
X140323392Y-111490500D01*
X140536608Y-111490500D01*
X140536610Y-111490500D01*
X140746198Y-111451321D01*
X140945019Y-111374298D01*
X141126302Y-111262052D01*
X141283872Y-111118407D01*
X141412366Y-110948255D01*
X141448705Y-110875276D01*
X141507403Y-110757394D01*
X141507403Y-110757393D01*
X141507405Y-110757389D01*
X141565756Y-110552310D01*
X141576529Y-110436047D01*
X141602315Y-110371111D01*
X141644622Y-110340804D01*
X141753130Y-110340804D01*
X141789503Y-110361668D01*
X141821693Y-110423681D01*
X141823471Y-110436048D01*
X141834244Y-110552310D01*
X141892596Y-110757392D01*
X141892596Y-110757394D01*
X141987632Y-110948253D01*
X142042191Y-111020500D01*
X142116128Y-111118407D01*
X142273698Y-111262052D01*
X142454981Y-111374298D01*
X142653802Y-111451321D01*
X142863390Y-111490500D01*
X142863392Y-111490500D01*
X143076608Y-111490500D01*
X143076610Y-111490500D01*
X143286198Y-111451321D01*
X143485019Y-111374298D01*
X143666302Y-111262052D01*
X143823872Y-111118407D01*
X143952366Y-110948255D01*
X143988705Y-110875276D01*
X144047403Y-110757394D01*
X144047403Y-110757393D01*
X144047405Y-110757389D01*
X144105756Y-110552310D01*
X144112029Y-110484605D01*
X144137814Y-110419669D01*
X144194614Y-110378981D01*
X144264395Y-110375461D01*
X144325002Y-110410225D01*
X144357193Y-110472238D01*
X144359500Y-110496047D01*
X144359500Y-111234856D01*
X144359502Y-111234882D01*
X144362413Y-111259987D01*
X144362415Y-111259991D01*
X144407793Y-111362764D01*
X144407794Y-111362765D01*
X144487235Y-111442206D01*
X144590009Y-111487585D01*
X144615135Y-111490500D01*
X146404864Y-111490499D01*
X146404879Y-111490497D01*
X146404882Y-111490497D01*
X146429987Y-111487586D01*
X146429988Y-111487585D01*
X146429991Y-111487585D01*
X146532765Y-111442206D01*
X146612206Y-111362765D01*
X146657585Y-111259991D01*
X146660500Y-111234865D01*
X146660499Y-110339999D01*
X147984571Y-110339999D01*
X147984571Y-110340000D01*
X148004244Y-110552310D01*
X148062596Y-110757392D01*
X148062596Y-110757394D01*
X148157632Y-110948253D01*
X148212191Y-111020500D01*
X148286128Y-111118407D01*
X148443698Y-111262052D01*
X148624981Y-111374298D01*
X148823802Y-111451321D01*
X149033390Y-111490500D01*
X149033392Y-111490500D01*
X149246608Y-111490500D01*
X149246610Y-111490500D01*
X149456198Y-111451321D01*
X149655019Y-111374298D01*
X149836302Y-111262052D01*
X149993872Y-111118407D01*
X150122366Y-110948255D01*
X150158705Y-110875276D01*
X150217403Y-110757394D01*
X150217403Y-110757393D01*
X150217405Y-110757389D01*
X150275756Y-110552310D01*
X150286529Y-110436047D01*
X150312315Y-110371111D01*
X150354622Y-110340804D01*
X150463130Y-110340804D01*
X150499503Y-110361668D01*
X150531693Y-110423681D01*
X150533471Y-110436048D01*
X150544244Y-110552310D01*
X150602596Y-110757392D01*
X150602596Y-110757394D01*
X150697632Y-110948253D01*
X150752191Y-111020500D01*
X150826128Y-111118407D01*
X150983698Y-111262052D01*
X151164981Y-111374298D01*
X151363802Y-111451321D01*
X151573390Y-111490500D01*
X151573392Y-111490500D01*
X151786608Y-111490500D01*
X151786610Y-111490500D01*
X151996198Y-111451321D01*
X152195019Y-111374298D01*
X152376302Y-111262052D01*
X152533872Y-111118407D01*
X152662366Y-110948255D01*
X152698705Y-110875276D01*
X152757403Y-110757394D01*
X152757403Y-110757393D01*
X152757405Y-110757389D01*
X152815756Y-110552310D01*
X152826529Y-110436047D01*
X152852315Y-110371111D01*
X152894622Y-110340804D01*
X153003130Y-110340804D01*
X153039503Y-110361668D01*
X153071693Y-110423681D01*
X153073471Y-110436048D01*
X153084244Y-110552310D01*
X153142596Y-110757392D01*
X153142596Y-110757394D01*
X153237632Y-110948253D01*
X153292191Y-111020500D01*
X153366128Y-111118407D01*
X153523698Y-111262052D01*
X153704981Y-111374298D01*
X153903802Y-111451321D01*
X154113390Y-111490500D01*
X154113392Y-111490500D01*
X154326608Y-111490500D01*
X154326610Y-111490500D01*
X154536198Y-111451321D01*
X154735019Y-111374298D01*
X154916302Y-111262052D01*
X155073872Y-111118407D01*
X155202366Y-110948255D01*
X155238705Y-110875276D01*
X155297403Y-110757394D01*
X155297403Y-110757393D01*
X155297405Y-110757389D01*
X155355756Y-110552310D01*
X155362029Y-110484605D01*
X155387814Y-110419669D01*
X155444614Y-110378981D01*
X155514395Y-110375461D01*
X155575002Y-110410225D01*
X155607193Y-110472238D01*
X155609500Y-110496047D01*
X155609500Y-111234856D01*
X155609502Y-111234882D01*
X155612413Y-111259987D01*
X155612415Y-111259991D01*
X155657793Y-111362764D01*
X155657794Y-111362765D01*
X155737235Y-111442206D01*
X155840009Y-111487585D01*
X155865135Y-111490500D01*
X157654864Y-111490499D01*
X157654879Y-111490497D01*
X157654882Y-111490497D01*
X157679987Y-111487586D01*
X157679988Y-111487585D01*
X157679991Y-111487585D01*
X157782765Y-111442206D01*
X157862206Y-111362765D01*
X157907585Y-111259991D01*
X157910500Y-111234865D01*
X157910499Y-110339999D01*
X159214571Y-110339999D01*
X159214571Y-110340000D01*
X159234244Y-110552310D01*
X159292596Y-110757392D01*
X159292596Y-110757394D01*
X159387632Y-110948253D01*
X159442191Y-111020500D01*
X159516128Y-111118407D01*
X159673698Y-111262052D01*
X159854981Y-111374298D01*
X160053802Y-111451321D01*
X160263390Y-111490500D01*
X160263392Y-111490500D01*
X160476608Y-111490500D01*
X160476610Y-111490500D01*
X160686198Y-111451321D01*
X160885019Y-111374298D01*
X161066302Y-111262052D01*
X161223872Y-111118407D01*
X161352366Y-110948255D01*
X161388705Y-110875276D01*
X161447403Y-110757394D01*
X161447403Y-110757393D01*
X161447405Y-110757389D01*
X161505756Y-110552310D01*
X161516529Y-110436047D01*
X161542315Y-110371111D01*
X161584622Y-110340804D01*
X161693130Y-110340804D01*
X161729503Y-110361668D01*
X161761693Y-110423681D01*
X161763471Y-110436048D01*
X161774244Y-110552310D01*
X161832596Y-110757392D01*
X161832596Y-110757394D01*
X161927632Y-110948253D01*
X161982191Y-111020500D01*
X162056128Y-111118407D01*
X162213698Y-111262052D01*
X162394981Y-111374298D01*
X162593802Y-111451321D01*
X162803390Y-111490500D01*
X162803392Y-111490500D01*
X163016608Y-111490500D01*
X163016610Y-111490500D01*
X163226198Y-111451321D01*
X163425019Y-111374298D01*
X163606302Y-111262052D01*
X163763872Y-111118407D01*
X163892366Y-110948255D01*
X163928705Y-110875276D01*
X163987403Y-110757394D01*
X163987403Y-110757393D01*
X163987405Y-110757389D01*
X164045756Y-110552310D01*
X164056529Y-110436047D01*
X164082315Y-110371111D01*
X164124622Y-110340804D01*
X164233130Y-110340804D01*
X164269503Y-110361668D01*
X164301693Y-110423681D01*
X164303471Y-110436048D01*
X164314244Y-110552310D01*
X164372596Y-110757392D01*
X164372596Y-110757394D01*
X164467632Y-110948253D01*
X164522191Y-111020500D01*
X164596128Y-111118407D01*
X164753698Y-111262052D01*
X164934981Y-111374298D01*
X165133802Y-111451321D01*
X165343390Y-111490500D01*
X165343392Y-111490500D01*
X165556608Y-111490500D01*
X165556610Y-111490500D01*
X165766198Y-111451321D01*
X165965019Y-111374298D01*
X166146302Y-111262052D01*
X166303872Y-111118407D01*
X166432366Y-110948255D01*
X166468705Y-110875276D01*
X166527403Y-110757394D01*
X166527403Y-110757393D01*
X166527405Y-110757389D01*
X166585756Y-110552310D01*
X166592029Y-110484605D01*
X166617814Y-110419669D01*
X166674614Y-110378981D01*
X166744395Y-110375461D01*
X166805002Y-110410225D01*
X166837193Y-110472238D01*
X166839500Y-110496047D01*
X166839500Y-111234856D01*
X166839502Y-111234882D01*
X166842413Y-111259987D01*
X166842415Y-111259991D01*
X166887793Y-111362764D01*
X166887794Y-111362765D01*
X166967235Y-111442206D01*
X167070009Y-111487585D01*
X167095135Y-111490500D01*
X168884864Y-111490499D01*
X168884879Y-111490497D01*
X168884882Y-111490497D01*
X168909987Y-111487586D01*
X168909988Y-111487585D01*
X168909991Y-111487585D01*
X169012765Y-111442206D01*
X169092206Y-111362765D01*
X169137585Y-111259991D01*
X169140500Y-111234865D01*
X169140499Y-109445136D01*
X169140497Y-109445117D01*
X169137586Y-109420012D01*
X169137585Y-109420010D01*
X169137585Y-109420009D01*
X169092206Y-109317235D01*
X169012765Y-109237794D01*
X168992124Y-109228680D01*
X168909992Y-109192415D01*
X168884865Y-109189500D01*
X167095143Y-109189500D01*
X167095117Y-109189502D01*
X167070012Y-109192413D01*
X167070008Y-109192415D01*
X166967235Y-109237793D01*
X166887794Y-109317234D01*
X166842415Y-109420006D01*
X166842415Y-109420008D01*
X166839500Y-109445131D01*
X166839500Y-110183951D01*
X166819815Y-110250990D01*
X166767011Y-110296745D01*
X166697853Y-110306689D01*
X166634297Y-110277664D01*
X166596523Y-110218886D01*
X166592029Y-110195391D01*
X166585756Y-110127689D01*
X166567027Y-110061866D01*
X166527405Y-109922611D01*
X166527403Y-109922606D01*
X166527403Y-109922605D01*
X166432367Y-109731746D01*
X166303872Y-109561593D01*
X166176133Y-109445143D01*
X166146302Y-109417948D01*
X165965019Y-109305702D01*
X165965017Y-109305701D01*
X165847711Y-109260257D01*
X165766198Y-109228679D01*
X165556610Y-109189500D01*
X165343390Y-109189500D01*
X165133802Y-109228679D01*
X165133799Y-109228679D01*
X165133799Y-109228680D01*
X164934982Y-109305701D01*
X164934980Y-109305702D01*
X164753699Y-109417947D01*
X164596127Y-109561593D01*
X164467632Y-109731746D01*
X164372596Y-109922605D01*
X164372596Y-109922607D01*
X164314244Y-110127689D01*
X164303471Y-110243951D01*
X164277685Y-110308888D01*
X164233130Y-110340804D01*
X164124622Y-110340804D01*
X164126869Y-110339194D01*
X164090497Y-110318331D01*
X164058307Y-110256318D01*
X164056529Y-110243951D01*
X164050627Y-110180261D01*
X164045756Y-110127690D01*
X163987405Y-109922611D01*
X163987403Y-109922606D01*
X163987403Y-109922605D01*
X163892367Y-109731746D01*
X163763872Y-109561593D01*
X163636133Y-109445143D01*
X163606302Y-109417948D01*
X163425019Y-109305702D01*
X163425017Y-109305701D01*
X163307711Y-109260257D01*
X163226198Y-109228679D01*
X163016610Y-109189500D01*
X162803390Y-109189500D01*
X162593802Y-109228679D01*
X162593799Y-109228679D01*
X162593799Y-109228680D01*
X162394982Y-109305701D01*
X162394980Y-109305702D01*
X162213699Y-109417947D01*
X162056127Y-109561593D01*
X161927632Y-109731746D01*
X161832596Y-109922605D01*
X161832596Y-109922607D01*
X161774244Y-110127689D01*
X161763471Y-110243951D01*
X161737685Y-110308888D01*
X161693130Y-110340804D01*
X161584622Y-110340804D01*
X161586869Y-110339194D01*
X161550497Y-110318331D01*
X161518307Y-110256318D01*
X161516529Y-110243951D01*
X161510627Y-110180261D01*
X161505756Y-110127690D01*
X161447405Y-109922611D01*
X161447403Y-109922606D01*
X161447403Y-109922605D01*
X161352367Y-109731746D01*
X161223872Y-109561593D01*
X161096133Y-109445143D01*
X161066302Y-109417948D01*
X160885019Y-109305702D01*
X160885017Y-109305701D01*
X160767711Y-109260257D01*
X160686198Y-109228679D01*
X160476610Y-109189500D01*
X160263390Y-109189500D01*
X160053802Y-109228679D01*
X160053799Y-109228679D01*
X160053799Y-109228680D01*
X159854982Y-109305701D01*
X159854980Y-109305702D01*
X159673699Y-109417947D01*
X159516127Y-109561593D01*
X159387632Y-109731746D01*
X159292596Y-109922605D01*
X159292596Y-109922607D01*
X159234244Y-110127689D01*
X159214571Y-110339999D01*
X157910499Y-110339999D01*
X157910499Y-109445136D01*
X157910497Y-109445117D01*
X157907586Y-109420012D01*
X157907585Y-109420010D01*
X157907585Y-109420009D01*
X157862206Y-109317235D01*
X157782765Y-109237794D01*
X157762124Y-109228680D01*
X157679992Y-109192415D01*
X157654865Y-109189500D01*
X155865143Y-109189500D01*
X155865117Y-109189502D01*
X155840012Y-109192413D01*
X155840008Y-109192415D01*
X155737235Y-109237793D01*
X155657794Y-109317234D01*
X155612415Y-109420006D01*
X155612415Y-109420008D01*
X155609500Y-109445131D01*
X155609500Y-110183951D01*
X155589815Y-110250990D01*
X155537011Y-110296745D01*
X155467853Y-110306689D01*
X155404297Y-110277664D01*
X155366523Y-110218886D01*
X155362029Y-110195391D01*
X155355756Y-110127689D01*
X155337027Y-110061866D01*
X155297405Y-109922611D01*
X155297403Y-109922606D01*
X155297403Y-109922605D01*
X155202367Y-109731746D01*
X155073872Y-109561593D01*
X154946133Y-109445143D01*
X154916302Y-109417948D01*
X154735019Y-109305702D01*
X154735017Y-109305701D01*
X154617711Y-109260257D01*
X154536198Y-109228679D01*
X154326610Y-109189500D01*
X154113390Y-109189500D01*
X153903802Y-109228679D01*
X153903799Y-109228679D01*
X153903799Y-109228680D01*
X153704982Y-109305701D01*
X153704980Y-109305702D01*
X153523699Y-109417947D01*
X153366127Y-109561593D01*
X153237632Y-109731746D01*
X153142596Y-109922605D01*
X153142596Y-109922607D01*
X153084244Y-110127689D01*
X153073471Y-110243951D01*
X153047685Y-110308888D01*
X153003130Y-110340804D01*
X152894622Y-110340804D01*
X152896869Y-110339194D01*
X152860497Y-110318331D01*
X152828307Y-110256318D01*
X152826529Y-110243951D01*
X152820627Y-110180261D01*
X152815756Y-110127690D01*
X152757405Y-109922611D01*
X152757403Y-109922606D01*
X152757403Y-109922605D01*
X152662367Y-109731746D01*
X152533872Y-109561593D01*
X152406133Y-109445143D01*
X152376302Y-109417948D01*
X152195019Y-109305702D01*
X152195017Y-109305701D01*
X152077711Y-109260257D01*
X151996198Y-109228679D01*
X151786610Y-109189500D01*
X151573390Y-109189500D01*
X151363802Y-109228679D01*
X151363799Y-109228679D01*
X151363799Y-109228680D01*
X151164982Y-109305701D01*
X151164980Y-109305702D01*
X150983699Y-109417947D01*
X150826127Y-109561593D01*
X150697632Y-109731746D01*
X150602596Y-109922605D01*
X150602596Y-109922607D01*
X150544244Y-110127689D01*
X150533471Y-110243951D01*
X150507685Y-110308888D01*
X150463130Y-110340804D01*
X150354622Y-110340804D01*
X150356869Y-110339194D01*
X150320497Y-110318331D01*
X150288307Y-110256318D01*
X150286529Y-110243951D01*
X150280627Y-110180261D01*
X150275756Y-110127690D01*
X150217405Y-109922611D01*
X150217403Y-109922606D01*
X150217403Y-109922605D01*
X150122367Y-109731746D01*
X149993872Y-109561593D01*
X149866133Y-109445143D01*
X149836302Y-109417948D01*
X149655019Y-109305702D01*
X149655017Y-109305701D01*
X149537711Y-109260257D01*
X149456198Y-109228679D01*
X149246610Y-109189500D01*
X149033390Y-109189500D01*
X148823802Y-109228679D01*
X148823799Y-109228679D01*
X148823799Y-109228680D01*
X148624982Y-109305701D01*
X148624980Y-109305702D01*
X148443699Y-109417947D01*
X148286127Y-109561593D01*
X148157632Y-109731746D01*
X148062596Y-109922605D01*
X148062596Y-109922607D01*
X148004244Y-110127689D01*
X147984571Y-110339999D01*
X146660499Y-110339999D01*
X146660499Y-109445136D01*
X146660497Y-109445117D01*
X146657586Y-109420012D01*
X146657585Y-109420010D01*
X146657585Y-109420009D01*
X146612206Y-109317235D01*
X146532765Y-109237794D01*
X146512124Y-109228680D01*
X146429992Y-109192415D01*
X146404865Y-109189500D01*
X144615143Y-109189500D01*
X144615117Y-109189502D01*
X144590012Y-109192413D01*
X144590008Y-109192415D01*
X144487235Y-109237793D01*
X144407794Y-109317234D01*
X144362415Y-109420006D01*
X144362415Y-109420008D01*
X144359500Y-109445131D01*
X144359500Y-110183951D01*
X144339815Y-110250990D01*
X144287011Y-110296745D01*
X144217853Y-110306689D01*
X144154297Y-110277664D01*
X144116523Y-110218886D01*
X144112029Y-110195391D01*
X144105756Y-110127689D01*
X144087027Y-110061866D01*
X144047405Y-109922611D01*
X144047403Y-109922606D01*
X144047403Y-109922605D01*
X143952367Y-109731746D01*
X143823872Y-109561593D01*
X143696133Y-109445143D01*
X143666302Y-109417948D01*
X143485019Y-109305702D01*
X143485017Y-109305701D01*
X143367711Y-109260257D01*
X143286198Y-109228679D01*
X143076610Y-109189500D01*
X142863390Y-109189500D01*
X142653802Y-109228679D01*
X142653799Y-109228679D01*
X142653799Y-109228680D01*
X142454982Y-109305701D01*
X142454980Y-109305702D01*
X142273699Y-109417947D01*
X142116127Y-109561593D01*
X141987632Y-109731746D01*
X141892596Y-109922605D01*
X141892596Y-109922607D01*
X141834244Y-110127689D01*
X141823471Y-110243951D01*
X141797685Y-110308888D01*
X141753130Y-110340804D01*
X141644622Y-110340804D01*
X141646869Y-110339194D01*
X141610497Y-110318331D01*
X141578307Y-110256318D01*
X141576529Y-110243951D01*
X141570627Y-110180261D01*
X141565756Y-110127690D01*
X141507405Y-109922611D01*
X141507403Y-109922606D01*
X141507403Y-109922605D01*
X141412367Y-109731746D01*
X141283872Y-109561593D01*
X141156133Y-109445143D01*
X141126302Y-109417948D01*
X140945019Y-109305702D01*
X140945017Y-109305701D01*
X140827711Y-109260257D01*
X140746198Y-109228679D01*
X140536610Y-109189500D01*
X140323390Y-109189500D01*
X140113802Y-109228679D01*
X140113799Y-109228679D01*
X140113799Y-109228680D01*
X139914982Y-109305701D01*
X139914980Y-109305702D01*
X139733699Y-109417947D01*
X139576127Y-109561593D01*
X139447632Y-109731746D01*
X139352596Y-109922605D01*
X139352596Y-109922607D01*
X139294244Y-110127689D01*
X139283471Y-110243951D01*
X139257685Y-110308888D01*
X139213130Y-110340804D01*
X139104622Y-110340804D01*
X139106869Y-110339194D01*
X139070497Y-110318331D01*
X139038307Y-110256318D01*
X139036529Y-110243951D01*
X139030627Y-110180261D01*
X139025756Y-110127690D01*
X138967405Y-109922611D01*
X138967403Y-109922606D01*
X138967403Y-109922605D01*
X138872367Y-109731746D01*
X138743872Y-109561593D01*
X138616133Y-109445143D01*
X138586302Y-109417948D01*
X138405019Y-109305702D01*
X138405017Y-109305701D01*
X138287711Y-109260257D01*
X138206198Y-109228679D01*
X137996610Y-109189500D01*
X137783390Y-109189500D01*
X137573802Y-109228679D01*
X137573799Y-109228679D01*
X137573799Y-109228680D01*
X137374982Y-109305701D01*
X137374980Y-109305702D01*
X137193699Y-109417947D01*
X137036127Y-109561593D01*
X136907632Y-109731746D01*
X136812596Y-109922605D01*
X136812596Y-109922607D01*
X136754244Y-110127689D01*
X136734571Y-110339999D01*
X133810500Y-110339999D01*
X133810500Y-110305928D01*
X133785502Y-110180261D01*
X133785501Y-110180260D01*
X133785501Y-110180256D01*
X133736465Y-110061873D01*
X133736464Y-110061872D01*
X133736461Y-110061866D01*
X133665276Y-109955331D01*
X133665273Y-109955327D01*
X133574672Y-109864726D01*
X133574668Y-109864723D01*
X133468133Y-109793538D01*
X133468124Y-109793533D01*
X133349744Y-109744499D01*
X133349738Y-109744497D01*
X133224071Y-109719500D01*
X133224069Y-109719500D01*
X133095931Y-109719500D01*
X133095929Y-109719500D01*
X132970261Y-109744497D01*
X132970255Y-109744499D01*
X132851875Y-109793533D01*
X132851866Y-109793538D01*
X132745331Y-109864723D01*
X132745327Y-109864726D01*
X132654726Y-109955327D01*
X132654723Y-109955331D01*
X132583538Y-110061866D01*
X132583533Y-110061875D01*
X132534499Y-110180255D01*
X132534497Y-110180261D01*
X132509500Y-110305928D01*
X132509500Y-110305931D01*
X132509500Y-110434069D01*
X132509500Y-110434071D01*
X132509499Y-110434071D01*
X130810500Y-110434071D01*
X130810500Y-110305928D01*
X130785502Y-110180261D01*
X130785501Y-110180260D01*
X130785501Y-110180256D01*
X130736465Y-110061873D01*
X130736464Y-110061872D01*
X130736461Y-110061866D01*
X130665276Y-109955331D01*
X130665273Y-109955327D01*
X130574672Y-109864726D01*
X130574668Y-109864723D01*
X130468133Y-109793538D01*
X130468124Y-109793533D01*
X130349744Y-109744499D01*
X130349738Y-109744497D01*
X130224071Y-109719500D01*
X130224069Y-109719500D01*
X130095931Y-109719500D01*
X130095929Y-109719500D01*
X129970261Y-109744497D01*
X129970255Y-109744499D01*
X129851875Y-109793533D01*
X129851866Y-109793538D01*
X129745331Y-109864723D01*
X129745327Y-109864726D01*
X129654726Y-109955327D01*
X129654723Y-109955331D01*
X129583538Y-110061866D01*
X129583533Y-110061875D01*
X129534499Y-110180255D01*
X129534497Y-110180261D01*
X129509500Y-110305928D01*
X129509500Y-110305931D01*
X129509500Y-110434069D01*
X129509500Y-110434071D01*
X129509499Y-110434071D01*
X126560500Y-110434071D01*
X126560499Y-109445136D01*
X126560497Y-109445117D01*
X126557586Y-109420012D01*
X126557585Y-109420010D01*
X126557585Y-109420009D01*
X126512206Y-109317235D01*
X126432765Y-109237794D01*
X126412124Y-109228680D01*
X126329992Y-109192415D01*
X126304868Y-109189500D01*
X126304865Y-109189500D01*
X125984500Y-109189500D01*
X125917461Y-109169815D01*
X125871706Y-109117011D01*
X125860500Y-109065500D01*
X125860500Y-108487965D01*
X125880185Y-108420926D01*
X125896819Y-108400284D01*
X129447105Y-104849999D01*
X133574722Y-104849999D01*
X133574722Y-104850000D01*
X133593762Y-105006818D01*
X133649780Y-105154523D01*
X133739517Y-105284530D01*
X133857760Y-105389283D01*
X133857762Y-105389284D01*
X133997634Y-105462696D01*
X134151014Y-105500500D01*
X134151015Y-105500500D01*
X134308985Y-105500500D01*
X134462365Y-105462696D01*
X134602240Y-105389283D01*
X134667256Y-105331683D01*
X134730490Y-105301963D01*
X134749483Y-105300500D01*
X135087941Y-105300500D01*
X135154980Y-105320185D01*
X135170167Y-105331684D01*
X135257759Y-105409283D01*
X135257761Y-105409284D01*
X135397634Y-105482696D01*
X135551014Y-105520500D01*
X135551015Y-105520500D01*
X135708985Y-105520500D01*
X135862365Y-105482696D01*
X135900471Y-105462696D01*
X136002240Y-105409283D01*
X136120483Y-105304530D01*
X136210220Y-105174523D01*
X136266237Y-105026818D01*
X136285278Y-104870000D01*
X136282850Y-104849999D01*
X136266237Y-104713181D01*
X136244992Y-104657164D01*
X136210220Y-104565477D01*
X136120483Y-104435470D01*
X136002240Y-104330717D01*
X136002238Y-104330716D01*
X136002237Y-104330715D01*
X135862365Y-104257303D01*
X135708986Y-104219500D01*
X135708985Y-104219500D01*
X135551015Y-104219500D01*
X135551014Y-104219500D01*
X135397634Y-104257303D01*
X135257761Y-104330715D01*
X135257759Y-104330717D01*
X135215318Y-104368316D01*
X135152085Y-104398037D01*
X135133092Y-104399500D01*
X134749483Y-104399500D01*
X134682444Y-104379815D01*
X134667256Y-104368316D01*
X134624813Y-104330715D01*
X134602240Y-104310717D01*
X134602238Y-104310716D01*
X134602237Y-104310715D01*
X134462365Y-104237303D01*
X134308986Y-104199500D01*
X134308985Y-104199500D01*
X134151015Y-104199500D01*
X134151014Y-104199500D01*
X133997634Y-104237303D01*
X133857762Y-104310715D01*
X133739516Y-104415471D01*
X133649781Y-104545475D01*
X133649780Y-104545476D01*
X133593762Y-104693181D01*
X133574722Y-104849999D01*
X129447105Y-104849999D01*
X130340285Y-103956819D01*
X130401608Y-103923334D01*
X130427966Y-103920500D01*
X139419308Y-103920500D01*
X139419309Y-103920500D01*
X139509673Y-103896286D01*
X139533887Y-103889799D01*
X139636614Y-103830489D01*
X144241344Y-99225760D01*
X148544722Y-99225760D01*
X148544722Y-99225761D01*
X148563762Y-99382579D01*
X148619780Y-99530284D01*
X148709517Y-99660291D01*
X148827760Y-99765044D01*
X148827762Y-99765045D01*
X148967634Y-99838457D01*
X149121014Y-99876261D01*
X149121015Y-99876261D01*
X149162035Y-99876261D01*
X149229074Y-99895946D01*
X149249716Y-99912580D01*
X150480586Y-101143450D01*
X150480587Y-101143451D01*
X150480589Y-101143452D01*
X150539893Y-101177690D01*
X150539896Y-101177693D01*
X150574137Y-101197461D01*
X150583314Y-101202760D01*
X150697891Y-101233461D01*
X151140398Y-101233461D01*
X151207437Y-101253146D01*
X151222622Y-101264643D01*
X151287641Y-101322244D01*
X151287643Y-101322245D01*
X151427515Y-101395657D01*
X151580895Y-101433461D01*
X151580896Y-101433461D01*
X151738866Y-101433461D01*
X151892246Y-101395657D01*
X152032121Y-101322244D01*
X152150364Y-101217491D01*
X152240101Y-101087484D01*
X152296118Y-100939779D01*
X152315159Y-100782961D01*
X152296118Y-100626143D01*
X152289810Y-100609511D01*
X152267317Y-100550201D01*
X152240101Y-100478438D01*
X152150364Y-100348431D01*
X152032121Y-100243678D01*
X152032119Y-100243677D01*
X152032118Y-100243676D01*
X151892246Y-100170264D01*
X151738867Y-100132461D01*
X151738866Y-100132461D01*
X151580896Y-100132461D01*
X151580895Y-100132461D01*
X151427515Y-100170264D01*
X151287643Y-100243676D01*
X151222625Y-100301277D01*
X151159391Y-100330998D01*
X151140398Y-100332461D01*
X150995165Y-100332461D01*
X150928126Y-100312776D01*
X150907484Y-100296142D01*
X149888047Y-99276705D01*
X149854562Y-99215382D01*
X149852632Y-99203970D01*
X149846504Y-99153501D01*
X149836237Y-99068943D01*
X149780220Y-98921238D01*
X149690483Y-98791231D01*
X149572240Y-98686478D01*
X149572238Y-98686477D01*
X149572237Y-98686476D01*
X149432365Y-98613064D01*
X149278986Y-98575261D01*
X149278985Y-98575261D01*
X149121015Y-98575261D01*
X149121014Y-98575261D01*
X148967634Y-98613064D01*
X148827762Y-98686476D01*
X148709516Y-98791232D01*
X148619781Y-98921236D01*
X148619780Y-98921237D01*
X148563762Y-99068942D01*
X148544722Y-99225760D01*
X144241344Y-99225760D01*
X147750310Y-95716794D01*
X147811633Y-95683309D01*
X147837991Y-95680475D01*
X147879010Y-95680475D01*
X148032390Y-95642671D01*
X148066966Y-95624524D01*
X148172265Y-95569258D01*
X148290508Y-95464505D01*
X148380245Y-95334498D01*
X148436262Y-95186793D01*
X148455303Y-95029975D01*
X148445043Y-94945471D01*
X148436262Y-94873156D01*
X148382737Y-94732024D01*
X148380245Y-94725452D01*
X148290508Y-94595445D01*
X148172265Y-94490692D01*
X148172263Y-94490691D01*
X148172262Y-94490690D01*
X148032390Y-94417278D01*
X147879011Y-94379475D01*
X147879010Y-94379475D01*
X147721040Y-94379475D01*
X147721039Y-94379475D01*
X147623027Y-94403632D01*
X147553225Y-94400562D01*
X147496163Y-94360242D01*
X147491303Y-94353674D01*
X147433902Y-94270513D01*
X147433900Y-94270511D01*
X147315657Y-94165758D01*
X147315655Y-94165757D01*
X147315654Y-94165756D01*
X147175782Y-94092344D01*
X147022403Y-94054541D01*
X147022402Y-94054541D01*
X146864432Y-94054541D01*
X146864431Y-94054541D01*
X146711051Y-94092344D01*
X146571178Y-94165756D01*
X146571176Y-94165758D01*
X146466075Y-94258868D01*
X146402842Y-94288589D01*
X146333579Y-94279405D01*
X146326223Y-94275848D01*
X146291039Y-94257382D01*
X146137662Y-94219579D01*
X146137661Y-94219579D01*
X145979691Y-94219579D01*
X145979690Y-94219579D01*
X145826310Y-94257382D01*
X145686437Y-94330794D01*
X145686435Y-94330796D01*
X145581798Y-94423495D01*
X145518565Y-94453216D01*
X145449302Y-94444032D01*
X145417345Y-94423494D01*
X145380717Y-94391045D01*
X145380715Y-94391043D01*
X145240842Y-94317631D01*
X145087463Y-94279828D01*
X145087462Y-94279828D01*
X144929492Y-94279828D01*
X144929491Y-94279828D01*
X144776111Y-94317631D01*
X144636239Y-94391043D01*
X144517993Y-94495799D01*
X144428258Y-94625803D01*
X144428257Y-94625804D01*
X144372240Y-94773508D01*
X144356087Y-94906541D01*
X144328465Y-94970719D01*
X144270531Y-95009775D01*
X144200678Y-95011310D01*
X144141084Y-94974836D01*
X144130941Y-94962034D01*
X144107103Y-94927499D01*
X144050483Y-94845470D01*
X143932240Y-94740717D01*
X143932238Y-94740716D01*
X143932237Y-94740715D01*
X143792365Y-94667303D01*
X143638986Y-94629500D01*
X143638985Y-94629500D01*
X143597965Y-94629500D01*
X143530926Y-94609815D01*
X143510284Y-94593181D01*
X142716819Y-93799716D01*
X142683334Y-93738393D01*
X142680500Y-93712035D01*
X142680500Y-93064450D01*
X142700185Y-92997411D01*
X142752989Y-92951656D01*
X142804500Y-92940450D01*
X143369308Y-92940450D01*
X143369309Y-92940450D01*
X143459673Y-92916236D01*
X143483887Y-92909749D01*
X143586614Y-92850439D01*
X144207054Y-92229999D01*
X160081710Y-92229999D01*
X160081710Y-92230000D01*
X160100750Y-92386818D01*
X160139206Y-92488217D01*
X160156768Y-92534523D01*
X160246505Y-92664530D01*
X160364748Y-92769283D01*
X160364750Y-92769284D01*
X160504622Y-92842696D01*
X160658002Y-92880500D01*
X160658003Y-92880500D01*
X160815973Y-92880500D01*
X160969353Y-92842696D01*
X161109228Y-92769283D01*
X161174244Y-92711683D01*
X161237478Y-92681963D01*
X161256471Y-92680500D01*
X161335404Y-92680500D01*
X161335405Y-92680500D01*
X161425769Y-92656286D01*
X161449983Y-92649799D01*
X161552710Y-92590489D01*
X162288308Y-91854892D01*
X162349631Y-91821407D01*
X162375989Y-91818573D01*
X162417008Y-91818573D01*
X162570388Y-91780769D01*
X162628060Y-91750500D01*
X162710263Y-91707356D01*
X162828506Y-91602603D01*
X162844108Y-91579999D01*
X164074722Y-91579999D01*
X164074722Y-91580000D01*
X164093762Y-91736818D01*
X164138542Y-91854892D01*
X164149780Y-91884523D01*
X164239517Y-92014530D01*
X164247723Y-92021800D01*
X164284852Y-92080987D01*
X164289500Y-92114618D01*
X164289500Y-94304240D01*
X164269815Y-94371279D01*
X164254153Y-94389556D01*
X164254491Y-94389856D01*
X164249515Y-94395472D01*
X164159781Y-94525475D01*
X164159780Y-94525476D01*
X164103762Y-94673181D01*
X164084722Y-94829999D01*
X164084722Y-94830000D01*
X164103762Y-94986818D01*
X164150607Y-95110336D01*
X164159780Y-95134523D01*
X164249517Y-95264530D01*
X164367760Y-95369283D01*
X164367762Y-95369284D01*
X164507634Y-95442696D01*
X164661014Y-95480500D01*
X164661015Y-95480500D01*
X164818985Y-95480500D01*
X164972365Y-95442696D01*
X165003008Y-95426613D01*
X165112240Y-95369283D01*
X165230483Y-95264530D01*
X165320220Y-95134523D01*
X165376237Y-94986818D01*
X165395278Y-94830000D01*
X165388076Y-94770681D01*
X165376237Y-94673181D01*
X165342535Y-94584318D01*
X165320220Y-94525477D01*
X165230483Y-94395470D01*
X165230479Y-94395466D01*
X165225509Y-94389856D01*
X165226953Y-94388576D01*
X165195145Y-94337860D01*
X165190500Y-94304240D01*
X165190500Y-92095400D01*
X165210185Y-92028361D01*
X165218682Y-92017138D01*
X165220480Y-92014531D01*
X165220483Y-92014530D01*
X165310220Y-91884523D01*
X165366237Y-91736818D01*
X165385278Y-91580000D01*
X165366237Y-91423182D01*
X165310220Y-91275477D01*
X165220483Y-91145470D01*
X165102240Y-91040717D01*
X165102238Y-91040716D01*
X165102237Y-91040715D01*
X164962365Y-90967303D01*
X164808986Y-90929500D01*
X164808985Y-90929500D01*
X164651015Y-90929500D01*
X164651014Y-90929500D01*
X164497634Y-90967303D01*
X164357762Y-91040715D01*
X164239516Y-91145471D01*
X164149781Y-91275475D01*
X164149780Y-91275476D01*
X164093762Y-91423181D01*
X164074722Y-91579999D01*
X162844108Y-91579999D01*
X162918243Y-91472596D01*
X162974260Y-91324891D01*
X162993301Y-91168073D01*
X162974260Y-91011255D01*
X162974259Y-91011253D01*
X162932744Y-90901786D01*
X162918243Y-90863550D01*
X162828506Y-90733543D01*
X162710263Y-90628790D01*
X162710261Y-90628789D01*
X162710260Y-90628788D01*
X162570388Y-90555376D01*
X162417009Y-90517573D01*
X162417008Y-90517573D01*
X162259038Y-90517573D01*
X162259037Y-90517573D01*
X162105657Y-90555376D01*
X161965785Y-90628788D01*
X161847539Y-90733544D01*
X161757804Y-90863548D01*
X161757803Y-90863549D01*
X161701786Y-91011253D01*
X161685390Y-91146281D01*
X161657768Y-91210459D01*
X161649975Y-91219015D01*
X161219026Y-91649965D01*
X161157703Y-91683450D01*
X161088012Y-91678466D01*
X161073719Y-91672080D01*
X160969353Y-91617303D01*
X160815974Y-91579500D01*
X160815973Y-91579500D01*
X160658003Y-91579500D01*
X160658002Y-91579500D01*
X160504622Y-91617303D01*
X160364750Y-91690715D01*
X160246504Y-91795471D01*
X160156769Y-91925475D01*
X160156768Y-91925476D01*
X160100750Y-92073181D01*
X160081710Y-92229999D01*
X144207054Y-92229999D01*
X145600465Y-90836589D01*
X145659774Y-90733862D01*
X145672249Y-90687304D01*
X145690475Y-90619284D01*
X145690475Y-88205947D01*
X145659774Y-88091370D01*
X145600965Y-87989510D01*
X145600464Y-87988642D01*
X145600462Y-87988640D01*
X145600458Y-87988635D01*
X144795252Y-87183429D01*
X144761767Y-87122106D01*
X144758933Y-87095748D01*
X144758933Y-86764974D01*
X154629747Y-86764974D01*
X154629747Y-86764975D01*
X154648787Y-86921793D01*
X154704805Y-87069498D01*
X154794542Y-87199505D01*
X154912785Y-87304258D01*
X154912787Y-87304259D01*
X155052659Y-87377671D01*
X155206039Y-87415475D01*
X155206040Y-87415475D01*
X155364010Y-87415475D01*
X155517390Y-87377671D01*
X155657265Y-87304258D01*
X155775508Y-87199505D01*
X155865245Y-87069498D01*
X155921262Y-86921793D01*
X155937657Y-86786762D01*
X155965279Y-86722586D01*
X155973061Y-86714040D01*
X156347736Y-86339365D01*
X156405738Y-86306652D01*
X156462365Y-86292696D01*
X156602240Y-86219283D01*
X156720483Y-86114530D01*
X156810220Y-85984523D01*
X156866237Y-85836818D01*
X156885278Y-85680000D01*
X156866237Y-85523182D01*
X156810220Y-85375477D01*
X156720483Y-85245470D01*
X156602240Y-85140717D01*
X156602238Y-85140716D01*
X156602237Y-85140715D01*
X156462365Y-85067303D01*
X156308986Y-85029500D01*
X156308985Y-85029500D01*
X156151015Y-85029500D01*
X156151014Y-85029500D01*
X155997634Y-85067303D01*
X155857762Y-85140715D01*
X155739516Y-85245471D01*
X155649781Y-85375475D01*
X155649780Y-85375476D01*
X155593762Y-85523181D01*
X155574722Y-85679999D01*
X155574722Y-85680000D01*
X155584570Y-85761114D01*
X155573109Y-85830037D01*
X155549155Y-85863740D01*
X155334739Y-86078157D01*
X155273419Y-86111641D01*
X155247060Y-86114475D01*
X155206039Y-86114475D01*
X155052659Y-86152278D01*
X154912787Y-86225690D01*
X154794541Y-86330446D01*
X154704806Y-86460450D01*
X154704805Y-86460451D01*
X154648787Y-86608156D01*
X154629747Y-86764974D01*
X144758933Y-86764974D01*
X144758933Y-84419532D01*
X144778618Y-84352493D01*
X144795252Y-84331851D01*
X145327288Y-83799815D01*
X145870489Y-83256614D01*
X145912478Y-83183886D01*
X145929799Y-83153886D01*
X145960500Y-83039309D01*
X145960500Y-83009999D01*
X163434722Y-83009999D01*
X163434722Y-83010000D01*
X163453762Y-83166818D01*
X163487818Y-83256614D01*
X163509780Y-83314523D01*
X163599517Y-83444530D01*
X163717760Y-83549283D01*
X163724515Y-83552828D01*
X163774726Y-83601414D01*
X163790700Y-83669433D01*
X163767364Y-83735290D01*
X163732986Y-83765082D01*
X163733934Y-83766455D01*
X163727764Y-83770713D01*
X163609516Y-83875471D01*
X163519781Y-84005475D01*
X163519780Y-84005476D01*
X163463762Y-84153181D01*
X163444722Y-84309999D01*
X163444722Y-84310000D01*
X163463762Y-84466818D01*
X163515988Y-84604524D01*
X163519780Y-84614523D01*
X163609517Y-84744530D01*
X163727760Y-84849283D01*
X163727762Y-84849284D01*
X163867634Y-84922696D01*
X164021014Y-84960500D01*
X164021015Y-84960500D01*
X164178985Y-84960500D01*
X164332365Y-84922696D01*
X164472237Y-84849285D01*
X164472238Y-84849283D01*
X164472240Y-84849283D01*
X164582408Y-84751683D01*
X164645640Y-84721963D01*
X164664634Y-84720500D01*
X165240517Y-84720500D01*
X165307556Y-84740185D01*
X165322741Y-84751682D01*
X165387760Y-84809283D01*
X165387762Y-84809284D01*
X165527634Y-84882696D01*
X165681014Y-84920500D01*
X165681015Y-84920500D01*
X165838985Y-84920500D01*
X165992365Y-84882696D01*
X166036974Y-84859283D01*
X166132240Y-84809283D01*
X166250483Y-84704530D01*
X166340220Y-84574523D01*
X166396237Y-84426818D01*
X166411635Y-84299999D01*
X167434722Y-84299999D01*
X167434722Y-84300000D01*
X167453762Y-84456818D01*
X167498403Y-84574524D01*
X167509780Y-84604523D01*
X167599517Y-84734530D01*
X167717760Y-84839283D01*
X167717762Y-84839284D01*
X167857634Y-84912696D01*
X168011014Y-84950500D01*
X168011015Y-84950500D01*
X168168985Y-84950500D01*
X168322365Y-84912696D01*
X168379524Y-84882696D01*
X168462240Y-84839283D01*
X168527256Y-84781683D01*
X168590490Y-84751963D01*
X168609483Y-84750500D01*
X168947941Y-84750500D01*
X169014980Y-84770185D01*
X169030167Y-84781684D01*
X169117759Y-84859283D01*
X169117761Y-84859284D01*
X169257634Y-84932696D01*
X169411014Y-84970500D01*
X169411015Y-84970500D01*
X169568985Y-84970500D01*
X169722365Y-84932696D01*
X169760471Y-84912696D01*
X169862240Y-84859283D01*
X169980483Y-84754530D01*
X170070220Y-84624523D01*
X170126237Y-84476818D01*
X170145278Y-84320000D01*
X170142850Y-84299999D01*
X170126237Y-84163181D01*
X170073428Y-84023936D01*
X170070220Y-84015477D01*
X169980483Y-83885470D01*
X169862240Y-83780717D01*
X169862238Y-83780716D01*
X169862237Y-83780715D01*
X169722365Y-83707303D01*
X169568986Y-83669500D01*
X169568985Y-83669500D01*
X169411015Y-83669500D01*
X169411014Y-83669500D01*
X169257634Y-83707303D01*
X169117761Y-83780715D01*
X169117759Y-83780717D01*
X169075318Y-83818316D01*
X169012085Y-83848037D01*
X168993092Y-83849500D01*
X168609483Y-83849500D01*
X168542444Y-83829815D01*
X168527256Y-83818316D01*
X168512361Y-83805120D01*
X168462240Y-83760717D01*
X168462238Y-83760716D01*
X168462237Y-83760715D01*
X168322365Y-83687303D01*
X168168986Y-83649500D01*
X168168985Y-83649500D01*
X168011015Y-83649500D01*
X168011014Y-83649500D01*
X167857634Y-83687303D01*
X167717762Y-83760715D01*
X167599516Y-83865471D01*
X167509781Y-83995475D01*
X167509780Y-83995476D01*
X167453762Y-84143181D01*
X167434722Y-84299999D01*
X166411635Y-84299999D01*
X166415278Y-84270000D01*
X166396237Y-84113182D01*
X166340220Y-83965477D01*
X166250483Y-83835470D01*
X166244100Y-83829815D01*
X166216225Y-83805120D01*
X166179099Y-83745930D01*
X166179867Y-83676065D01*
X166218285Y-83617705D01*
X166240818Y-83602513D01*
X166342240Y-83549283D01*
X166460483Y-83444530D01*
X166550220Y-83314523D01*
X166606237Y-83166818D01*
X166625278Y-83010000D01*
X166606237Y-82853182D01*
X166601113Y-82839672D01*
X166566843Y-82749308D01*
X166550220Y-82705477D01*
X166460483Y-82575470D01*
X166342240Y-82470717D01*
X166342238Y-82470716D01*
X166342237Y-82470715D01*
X166202365Y-82397303D01*
X166048986Y-82359500D01*
X166048985Y-82359500D01*
X165891015Y-82359500D01*
X165891014Y-82359500D01*
X165737634Y-82397303D01*
X165597762Y-82470715D01*
X165532744Y-82528316D01*
X165469510Y-82558037D01*
X165450517Y-82559500D01*
X164609483Y-82559500D01*
X164542444Y-82539815D01*
X164527256Y-82528316D01*
X164470904Y-82478393D01*
X164462240Y-82470717D01*
X164462238Y-82470716D01*
X164462237Y-82470715D01*
X164322365Y-82397303D01*
X164168986Y-82359500D01*
X164168985Y-82359500D01*
X164011015Y-82359500D01*
X164011014Y-82359500D01*
X163857634Y-82397303D01*
X163717762Y-82470715D01*
X163599516Y-82575471D01*
X163509781Y-82705475D01*
X163509780Y-82705476D01*
X163453762Y-82853181D01*
X163434722Y-83009999D01*
X145960500Y-83009999D01*
X145960500Y-80134499D01*
X145980185Y-80067460D01*
X146032989Y-80021705D01*
X146084500Y-80010499D01*
X146404856Y-80010499D01*
X146404864Y-80010499D01*
X146404879Y-80010497D01*
X146404882Y-80010497D01*
X146429987Y-80007586D01*
X146429988Y-80007585D01*
X146429991Y-80007585D01*
X146532765Y-79962206D01*
X146612206Y-79882765D01*
X146657585Y-79779991D01*
X146660500Y-79754865D01*
X146660499Y-78609999D01*
X150349364Y-78609999D01*
X150349364Y-78610000D01*
X151246988Y-78610000D01*
X151214075Y-78667007D01*
X151180000Y-78794174D01*
X151180000Y-78925826D01*
X151214075Y-79052993D01*
X151246988Y-79110000D01*
X150349364Y-79110000D01*
X150406567Y-79323486D01*
X150406570Y-79323492D01*
X150506399Y-79537578D01*
X150641894Y-79731082D01*
X150808917Y-79898105D01*
X151002421Y-80033600D01*
X151216507Y-80133429D01*
X151216516Y-80133433D01*
X151430000Y-80190634D01*
X151430000Y-79293012D01*
X151487007Y-79325925D01*
X151614174Y-79360000D01*
X151745826Y-79360000D01*
X151872993Y-79325925D01*
X151930000Y-79293012D01*
X151930000Y-80190633D01*
X152143483Y-80133433D01*
X152143492Y-80133429D01*
X152357578Y-80033600D01*
X152551082Y-79898105D01*
X152718105Y-79731082D01*
X152853600Y-79537578D01*
X152947294Y-79336651D01*
X152993466Y-79284212D01*
X153060660Y-79265060D01*
X153127541Y-79285276D01*
X153170676Y-79333785D01*
X153237632Y-79468253D01*
X153295565Y-79544968D01*
X153366128Y-79638407D01*
X153523698Y-79782052D01*
X153704981Y-79894298D01*
X153903802Y-79971321D01*
X154113390Y-80010500D01*
X154113392Y-80010500D01*
X154326608Y-80010500D01*
X154326610Y-80010500D01*
X154536198Y-79971321D01*
X154735019Y-79894298D01*
X154916302Y-79782052D01*
X155073872Y-79638407D01*
X155202366Y-79468255D01*
X155256270Y-79360000D01*
X155297403Y-79277394D01*
X155297403Y-79277393D01*
X155297405Y-79277389D01*
X155355756Y-79072310D01*
X155362029Y-79004605D01*
X155387814Y-78939669D01*
X155444614Y-78898981D01*
X155514395Y-78895461D01*
X155575002Y-78930225D01*
X155607193Y-78992238D01*
X155609500Y-79016047D01*
X155609500Y-79754856D01*
X155609502Y-79754882D01*
X155612413Y-79779987D01*
X155612415Y-79779991D01*
X155657793Y-79882764D01*
X155657794Y-79882765D01*
X155737235Y-79962206D01*
X155840009Y-80007585D01*
X155865135Y-80010500D01*
X157654864Y-80010499D01*
X157654879Y-80010497D01*
X157654882Y-80010497D01*
X157679987Y-80007586D01*
X157679988Y-80007585D01*
X157679991Y-80007585D01*
X157782765Y-79962206D01*
X157862206Y-79882765D01*
X157907585Y-79779991D01*
X157910500Y-79754865D01*
X157910499Y-78609999D01*
X161579364Y-78609999D01*
X161579364Y-78610000D01*
X162476988Y-78610000D01*
X162444075Y-78667007D01*
X162410000Y-78794174D01*
X162410000Y-78925826D01*
X162444075Y-79052993D01*
X162476988Y-79110000D01*
X161579364Y-79110000D01*
X161636567Y-79323486D01*
X161636570Y-79323492D01*
X161736399Y-79537578D01*
X161871894Y-79731082D01*
X162038917Y-79898105D01*
X162232421Y-80033600D01*
X162446507Y-80133429D01*
X162446516Y-80133433D01*
X162660000Y-80190634D01*
X162660000Y-79293012D01*
X162717007Y-79325925D01*
X162844174Y-79360000D01*
X162975826Y-79360000D01*
X163102993Y-79325925D01*
X163160000Y-79293012D01*
X163160000Y-80190633D01*
X163373483Y-80133433D01*
X163373492Y-80133429D01*
X163587578Y-80033600D01*
X163781082Y-79898105D01*
X163948105Y-79731082D01*
X164083600Y-79537578D01*
X164177294Y-79336651D01*
X164223466Y-79284212D01*
X164290660Y-79265060D01*
X164357541Y-79285276D01*
X164400676Y-79333785D01*
X164467632Y-79468253D01*
X164525565Y-79544968D01*
X164596128Y-79638407D01*
X164753698Y-79782052D01*
X164934981Y-79894298D01*
X165133802Y-79971321D01*
X165343390Y-80010500D01*
X165343392Y-80010500D01*
X165556608Y-80010500D01*
X165556610Y-80010500D01*
X165766198Y-79971321D01*
X165965019Y-79894298D01*
X166146302Y-79782052D01*
X166303872Y-79638407D01*
X166432366Y-79468255D01*
X166486270Y-79360000D01*
X166527403Y-79277394D01*
X166527403Y-79277393D01*
X166527405Y-79277389D01*
X166585756Y-79072310D01*
X166592029Y-79004605D01*
X166617814Y-78939669D01*
X166674614Y-78898981D01*
X166744395Y-78895461D01*
X166805002Y-78930225D01*
X166837193Y-78992238D01*
X166839500Y-79016047D01*
X166839500Y-79754856D01*
X166839502Y-79754882D01*
X166842413Y-79779987D01*
X166842415Y-79779991D01*
X166887793Y-79882764D01*
X166887794Y-79882765D01*
X166967235Y-79962206D01*
X167070009Y-80007585D01*
X167095135Y-80010500D01*
X168884864Y-80010499D01*
X168884879Y-80010497D01*
X168884882Y-80010497D01*
X168909987Y-80007586D01*
X168909988Y-80007585D01*
X168909991Y-80007585D01*
X169012765Y-79962206D01*
X169092206Y-79882765D01*
X169137585Y-79779991D01*
X169140500Y-79754865D01*
X169140499Y-77965136D01*
X169140497Y-77965117D01*
X169137586Y-77940012D01*
X169137585Y-77940010D01*
X169137585Y-77940009D01*
X169092206Y-77837235D01*
X169012765Y-77757794D01*
X168992124Y-77748680D01*
X168909992Y-77712415D01*
X168884865Y-77709500D01*
X167095143Y-77709500D01*
X167095117Y-77709502D01*
X167070012Y-77712413D01*
X167070008Y-77712415D01*
X166967235Y-77757793D01*
X166887794Y-77837234D01*
X166842415Y-77940006D01*
X166842415Y-77940008D01*
X166839500Y-77965131D01*
X166839500Y-78703951D01*
X166819815Y-78770990D01*
X166767011Y-78816745D01*
X166697853Y-78826689D01*
X166634297Y-78797664D01*
X166596523Y-78738886D01*
X166592029Y-78715391D01*
X166585756Y-78647689D01*
X166558812Y-78552993D01*
X166527405Y-78442611D01*
X166527403Y-78442606D01*
X166527403Y-78442605D01*
X166432367Y-78251746D01*
X166303872Y-78081593D01*
X166146302Y-77937948D01*
X165965019Y-77825702D01*
X165965017Y-77825701D01*
X165865608Y-77787190D01*
X165766198Y-77748679D01*
X165556610Y-77709500D01*
X165343390Y-77709500D01*
X165133802Y-77748679D01*
X165133799Y-77748679D01*
X165133799Y-77748680D01*
X164934982Y-77825701D01*
X164934980Y-77825702D01*
X164753699Y-77937947D01*
X164596127Y-78081593D01*
X164467634Y-78251744D01*
X164400676Y-78386215D01*
X164353173Y-78437452D01*
X164285510Y-78454873D01*
X164219170Y-78432947D01*
X164177294Y-78383348D01*
X164083600Y-78182422D01*
X164083599Y-78182420D01*
X163948113Y-77988926D01*
X163948108Y-77988920D01*
X163781082Y-77821894D01*
X163587578Y-77686399D01*
X163373492Y-77586570D01*
X163373486Y-77586567D01*
X163160000Y-77529364D01*
X163160000Y-78426988D01*
X163102993Y-78394075D01*
X162975826Y-78360000D01*
X162844174Y-78360000D01*
X162717007Y-78394075D01*
X162660000Y-78426988D01*
X162660000Y-77529364D01*
X162659999Y-77529364D01*
X162446513Y-77586567D01*
X162446507Y-77586570D01*
X162232422Y-77686399D01*
X162232420Y-77686400D01*
X162038926Y-77821886D01*
X162038920Y-77821891D01*
X161871891Y-77988920D01*
X161871886Y-77988926D01*
X161736400Y-78182420D01*
X161736399Y-78182422D01*
X161636570Y-78396507D01*
X161636567Y-78396513D01*
X161579364Y-78609999D01*
X157910499Y-78609999D01*
X157910499Y-77965136D01*
X157910497Y-77965117D01*
X157907586Y-77940012D01*
X157907585Y-77940010D01*
X157907585Y-77940009D01*
X157862206Y-77837235D01*
X157782765Y-77757794D01*
X157762124Y-77748680D01*
X157679992Y-77712415D01*
X157654865Y-77709500D01*
X155865143Y-77709500D01*
X155865117Y-77709502D01*
X155840012Y-77712413D01*
X155840008Y-77712415D01*
X155737235Y-77757793D01*
X155657794Y-77837234D01*
X155612415Y-77940006D01*
X155612415Y-77940008D01*
X155609500Y-77965131D01*
X155609500Y-78703951D01*
X155589815Y-78770990D01*
X155537011Y-78816745D01*
X155467853Y-78826689D01*
X155404297Y-78797664D01*
X155366523Y-78738886D01*
X155362029Y-78715391D01*
X155355756Y-78647689D01*
X155328812Y-78552993D01*
X155297405Y-78442611D01*
X155297403Y-78442606D01*
X155297403Y-78442605D01*
X155202367Y-78251746D01*
X155073872Y-78081593D01*
X154916302Y-77937948D01*
X154735019Y-77825702D01*
X154735017Y-77825701D01*
X154635608Y-77787190D01*
X154536198Y-77748679D01*
X154326610Y-77709500D01*
X154113390Y-77709500D01*
X153903802Y-77748679D01*
X153903799Y-77748679D01*
X153903799Y-77748680D01*
X153704982Y-77825701D01*
X153704980Y-77825702D01*
X153523699Y-77937947D01*
X153366127Y-78081593D01*
X153237634Y-78251744D01*
X153170676Y-78386215D01*
X153123173Y-78437452D01*
X153055510Y-78454873D01*
X152989170Y-78432947D01*
X152947294Y-78383348D01*
X152853600Y-78182422D01*
X152853599Y-78182420D01*
X152718113Y-77988926D01*
X152718108Y-77988920D01*
X152551082Y-77821894D01*
X152357578Y-77686399D01*
X152143492Y-77586570D01*
X152143486Y-77586567D01*
X151930000Y-77529364D01*
X151930000Y-78426988D01*
X151872993Y-78394075D01*
X151745826Y-78360000D01*
X151614174Y-78360000D01*
X151487007Y-78394075D01*
X151430000Y-78426988D01*
X151430000Y-77529364D01*
X151429999Y-77529364D01*
X151216513Y-77586567D01*
X151216507Y-77586570D01*
X151002422Y-77686399D01*
X151002420Y-77686400D01*
X150808926Y-77821886D01*
X150808920Y-77821891D01*
X150641891Y-77988920D01*
X150641886Y-77988926D01*
X150506400Y-78182420D01*
X150506399Y-78182422D01*
X150406570Y-78396507D01*
X150406567Y-78396513D01*
X150349364Y-78609999D01*
X146660499Y-78609999D01*
X146660499Y-77965136D01*
X146660497Y-77965117D01*
X146657586Y-77940012D01*
X146657585Y-77940010D01*
X146657585Y-77940009D01*
X146612206Y-77837235D01*
X146532765Y-77757794D01*
X146512124Y-77748680D01*
X146429992Y-77712415D01*
X146404865Y-77709500D01*
X144615143Y-77709500D01*
X144615117Y-77709502D01*
X144590012Y-77712413D01*
X144590008Y-77712415D01*
X144487235Y-77757793D01*
X144407794Y-77837234D01*
X144362415Y-77940006D01*
X144362415Y-77940008D01*
X144359500Y-77965131D01*
X144359500Y-78703951D01*
X144339815Y-78770990D01*
X144287011Y-78816745D01*
X144217853Y-78826689D01*
X144154297Y-78797664D01*
X144116523Y-78738886D01*
X144112029Y-78715391D01*
X144105756Y-78647689D01*
X144078812Y-78552993D01*
X144047405Y-78442611D01*
X144047403Y-78442606D01*
X144047403Y-78442605D01*
X143952367Y-78251746D01*
X143823872Y-78081593D01*
X143666302Y-77937948D01*
X143485019Y-77825702D01*
X143485017Y-77825701D01*
X143385608Y-77787190D01*
X143286198Y-77748679D01*
X143076610Y-77709500D01*
X142863390Y-77709500D01*
X142653802Y-77748679D01*
X142653799Y-77748679D01*
X142653799Y-77748680D01*
X142454982Y-77825701D01*
X142454980Y-77825702D01*
X142273699Y-77937947D01*
X142116127Y-78081593D01*
X141987632Y-78251746D01*
X141892596Y-78442605D01*
X141892596Y-78442607D01*
X141834244Y-78647689D01*
X141823471Y-78763951D01*
X141797685Y-78828888D01*
X141753130Y-78860804D01*
X141789503Y-78881668D01*
X141821693Y-78943681D01*
X141823470Y-78956047D01*
X141834244Y-79072310D01*
X141887675Y-79260099D01*
X141892596Y-79277392D01*
X141892596Y-79277394D01*
X141987632Y-79468253D01*
X142045565Y-79544968D01*
X142116128Y-79638407D01*
X142273698Y-79782052D01*
X142454981Y-79894298D01*
X142454983Y-79894298D01*
X142459856Y-79897316D01*
X142458553Y-79899419D01*
X142502003Y-79939695D01*
X142519500Y-80003202D01*
X142519500Y-88112034D01*
X142499815Y-88179073D01*
X142483181Y-88199715D01*
X141369513Y-89313383D01*
X141369509Y-89313389D01*
X141310201Y-89416112D01*
X141310200Y-89416117D01*
X141279500Y-89530691D01*
X141279500Y-94133085D01*
X141259815Y-94200124D01*
X141207011Y-94245879D01*
X141137853Y-94255823D01*
X141074297Y-94226798D01*
X141067819Y-94220766D01*
X140896819Y-94049766D01*
X140863334Y-93988443D01*
X140860500Y-93962085D01*
X140860500Y-88490274D01*
X140864725Y-88458181D01*
X140866419Y-88451859D01*
X140880500Y-88399309D01*
X140880500Y-80003202D01*
X140900185Y-79936163D01*
X140941351Y-79899265D01*
X140940144Y-79897316D01*
X140945016Y-79894298D01*
X140945019Y-79894298D01*
X141126302Y-79782052D01*
X141283872Y-79638407D01*
X141412366Y-79468255D01*
X141466270Y-79360000D01*
X141507403Y-79277394D01*
X141507403Y-79277393D01*
X141507405Y-79277389D01*
X141565756Y-79072310D01*
X141576529Y-78956047D01*
X141602315Y-78891111D01*
X141646869Y-78859194D01*
X141610497Y-78838331D01*
X141578307Y-78776318D01*
X141576529Y-78763951D01*
X141570969Y-78703951D01*
X141565756Y-78647690D01*
X141507405Y-78442611D01*
X141507403Y-78442606D01*
X141507403Y-78442605D01*
X141412367Y-78251746D01*
X141283872Y-78081593D01*
X141126302Y-77937948D01*
X140945019Y-77825702D01*
X140945017Y-77825701D01*
X140845608Y-77787190D01*
X140746198Y-77748679D01*
X140536610Y-77709500D01*
X140323390Y-77709500D01*
X140113802Y-77748679D01*
X140113799Y-77748679D01*
X140113799Y-77748680D01*
X139914982Y-77825701D01*
X139914980Y-77825702D01*
X139733699Y-77937947D01*
X139576127Y-78081593D01*
X139447632Y-78251746D01*
X139352596Y-78442605D01*
X139352596Y-78442607D01*
X139294244Y-78647689D01*
X139283471Y-78763951D01*
X139257685Y-78828888D01*
X139213130Y-78860804D01*
X139249503Y-78881668D01*
X139281693Y-78943681D01*
X139283470Y-78956047D01*
X139294244Y-79072310D01*
X139347675Y-79260099D01*
X139352596Y-79277392D01*
X139352596Y-79277394D01*
X139447632Y-79468253D01*
X139505565Y-79544968D01*
X139576128Y-79638407D01*
X139733698Y-79782052D01*
X139914981Y-79894298D01*
X139914983Y-79894298D01*
X139919856Y-79897316D01*
X139918553Y-79899419D01*
X139962003Y-79939695D01*
X139979500Y-80003202D01*
X139979500Y-88209724D01*
X139975275Y-88241816D01*
X139959500Y-88300689D01*
X139959500Y-93883035D01*
X139939815Y-93950074D01*
X139887011Y-93995829D01*
X139817853Y-94005773D01*
X139754297Y-93976748D01*
X139747819Y-93970716D01*
X139036819Y-93259716D01*
X139003334Y-93198393D01*
X139000500Y-93172035D01*
X139000500Y-83290693D01*
X139000500Y-83290691D01*
X138969799Y-83176114D01*
X138969799Y-83176113D01*
X138910489Y-83073386D01*
X138376819Y-82539716D01*
X138343334Y-82478393D01*
X138340500Y-82452035D01*
X138340500Y-80003202D01*
X138360185Y-79936163D01*
X138401351Y-79899265D01*
X138400144Y-79897316D01*
X138405016Y-79894298D01*
X138405019Y-79894298D01*
X138586302Y-79782052D01*
X138743872Y-79638407D01*
X138872366Y-79468255D01*
X138926270Y-79360000D01*
X138967403Y-79277394D01*
X138967403Y-79277393D01*
X138967405Y-79277389D01*
X139025756Y-79072310D01*
X139036529Y-78956047D01*
X139062315Y-78891111D01*
X139106869Y-78859194D01*
X139070497Y-78838331D01*
X139038307Y-78776318D01*
X139036529Y-78763951D01*
X139030969Y-78703951D01*
X139025756Y-78647690D01*
X138967405Y-78442611D01*
X138967403Y-78442606D01*
X138967403Y-78442605D01*
X138872367Y-78251746D01*
X138743872Y-78081593D01*
X138586302Y-77937948D01*
X138405019Y-77825702D01*
X138405017Y-77825701D01*
X138305608Y-77787190D01*
X138206198Y-77748679D01*
X137996610Y-77709500D01*
X137783390Y-77709500D01*
X137573802Y-77748679D01*
X137573799Y-77748679D01*
X137573799Y-77748680D01*
X137374982Y-77825701D01*
X137374980Y-77825702D01*
X137193699Y-77937947D01*
X137036127Y-78081593D01*
X136907632Y-78251746D01*
X136812596Y-78442605D01*
X136812596Y-78442607D01*
X136754244Y-78647689D01*
X136740671Y-78794174D01*
X136734571Y-78860000D01*
X136754244Y-79072310D01*
X136807675Y-79260099D01*
X136812596Y-79277392D01*
X136812596Y-79277394D01*
X136907632Y-79468253D01*
X136965565Y-79544968D01*
X137036128Y-79638407D01*
X137193698Y-79782052D01*
X137374981Y-79894298D01*
X137374983Y-79894298D01*
X137379856Y-79897316D01*
X137378553Y-79899419D01*
X137422003Y-79939695D01*
X137439500Y-80003202D01*
X137439500Y-82749308D01*
X137463712Y-82839672D01*
X137470200Y-82863885D01*
X137470200Y-82863886D01*
X137470201Y-82863887D01*
X137529511Y-82966614D01*
X137529513Y-82966616D01*
X138063181Y-83500284D01*
X138096666Y-83561607D01*
X138099500Y-83587965D01*
X138099500Y-93469309D01*
X138107777Y-93500197D01*
X138107778Y-93500201D01*
X138130201Y-93583888D01*
X138159856Y-93635250D01*
X138189511Y-93686614D01*
X138189513Y-93686616D01*
X139771952Y-95269055D01*
X139805437Y-95330378D01*
X139807367Y-95341789D01*
X139823763Y-95476819D01*
X139837096Y-95511974D01*
X139879780Y-95624523D01*
X139969517Y-95754530D01*
X140087760Y-95859283D01*
X140087762Y-95859284D01*
X140227634Y-95932696D01*
X140381014Y-95970500D01*
X140381015Y-95970500D01*
X140538985Y-95970500D01*
X140692365Y-95932696D01*
X140832238Y-95859284D01*
X140832237Y-95859284D01*
X140832240Y-95859283D01*
X140915324Y-95785677D01*
X140978556Y-95755956D01*
X141047819Y-95765140D01*
X141079774Y-95785675D01*
X141079778Y-95785678D01*
X141117711Y-95819284D01*
X141257583Y-95892695D01*
X141410963Y-95930499D01*
X141410964Y-95930499D01*
X141568934Y-95930499D01*
X141722314Y-95892695D01*
X141744621Y-95880987D01*
X141862189Y-95819282D01*
X141902698Y-95783394D01*
X141965931Y-95753674D01*
X142035194Y-95762858D01*
X142067149Y-95783393D01*
X142107659Y-95819282D01*
X142107661Y-95819283D01*
X142247533Y-95892695D01*
X142400913Y-95930499D01*
X142400914Y-95930499D01*
X142558884Y-95930499D01*
X142712264Y-95892695D01*
X142765941Y-95864523D01*
X142852139Y-95819282D01*
X142937722Y-95743462D01*
X143000954Y-95713741D01*
X143070217Y-95722924D01*
X143102174Y-95743462D01*
X143187758Y-95819282D01*
X143187760Y-95819283D01*
X143231781Y-95842387D01*
X143281993Y-95890970D01*
X143297968Y-95958989D01*
X143274634Y-96024847D01*
X143261836Y-96039864D01*
X138818521Y-100483181D01*
X138757198Y-100516666D01*
X138730840Y-100519500D01*
X124990691Y-100519500D01*
X124921944Y-100537920D01*
X124876112Y-100550201D01*
X124876107Y-100550204D01*
X124832695Y-100575267D01*
X124832696Y-100575268D01*
X124773389Y-100609508D01*
X124773383Y-100609513D01*
X117429513Y-107953383D01*
X117429511Y-107953386D01*
X117370200Y-108056113D01*
X117364841Y-108076111D01*
X117364842Y-108076112D01*
X117339500Y-108170691D01*
X117339500Y-109196797D01*
X117319815Y-109263836D01*
X117278654Y-109300744D01*
X117279855Y-109302684D01*
X117093699Y-109417947D01*
X116936127Y-109561593D01*
X116807632Y-109731746D01*
X116712596Y-109922605D01*
X116712596Y-109922607D01*
X116654244Y-110127689D01*
X116634571Y-110339999D01*
X109900500Y-110339999D01*
X109900500Y-98841153D01*
X110874500Y-98841153D01*
X110874500Y-98998846D01*
X110905261Y-99153489D01*
X110905264Y-99153501D01*
X110965602Y-99299172D01*
X110965609Y-99299185D01*
X111053210Y-99430288D01*
X111053213Y-99430292D01*
X111164707Y-99541786D01*
X111164711Y-99541789D01*
X111295814Y-99629390D01*
X111295827Y-99629397D01*
X111441498Y-99689735D01*
X111441503Y-99689737D01*
X111596153Y-99720499D01*
X111596156Y-99720500D01*
X111596158Y-99720500D01*
X112553844Y-99720500D01*
X112553845Y-99720499D01*
X112708497Y-99689737D01*
X112854179Y-99629394D01*
X112985289Y-99541789D01*
X113096789Y-99430289D01*
X113184394Y-99299179D01*
X113244737Y-99153497D01*
X113275500Y-98998842D01*
X113275500Y-98841158D01*
X113275500Y-98841155D01*
X113275499Y-98841153D01*
X114904500Y-98841153D01*
X114904500Y-98998846D01*
X114935261Y-99153489D01*
X114935264Y-99153501D01*
X114995602Y-99299172D01*
X114995609Y-99299185D01*
X115083210Y-99430288D01*
X115083213Y-99430292D01*
X115194707Y-99541786D01*
X115194711Y-99541789D01*
X115325814Y-99629390D01*
X115325827Y-99629397D01*
X115471498Y-99689735D01*
X115471503Y-99689737D01*
X115626153Y-99720499D01*
X115626156Y-99720500D01*
X115626158Y-99720500D01*
X116883844Y-99720500D01*
X116883845Y-99720499D01*
X117038497Y-99689737D01*
X117184179Y-99629394D01*
X117315289Y-99541789D01*
X117426789Y-99430289D01*
X117514394Y-99299179D01*
X117574737Y-99153497D01*
X117605500Y-98998842D01*
X117605500Y-98841158D01*
X117605500Y-98841155D01*
X117605499Y-98841153D01*
X117574738Y-98686510D01*
X117574737Y-98686503D01*
X117574726Y-98686476D01*
X117514397Y-98540827D01*
X117514390Y-98540814D01*
X117426789Y-98409711D01*
X117426786Y-98409707D01*
X117315292Y-98298213D01*
X117315288Y-98298210D01*
X117184185Y-98210609D01*
X117184172Y-98210602D01*
X117038501Y-98150264D01*
X117038489Y-98150261D01*
X116883845Y-98119500D01*
X116883842Y-98119500D01*
X116168032Y-98119500D01*
X116100993Y-98099815D01*
X116055238Y-98047011D01*
X116045294Y-97977853D01*
X116074319Y-97914297D01*
X116080351Y-97907819D01*
X116095474Y-97892696D01*
X116175505Y-97812665D01*
X116244688Y-97692836D01*
X116280500Y-97559183D01*
X116280500Y-97420817D01*
X116244688Y-97287164D01*
X116175505Y-97167335D01*
X116077665Y-97069495D01*
X116077664Y-97069494D01*
X116077661Y-97069492D01*
X115957838Y-97000313D01*
X115957837Y-97000312D01*
X115957836Y-97000312D01*
X115824183Y-96964500D01*
X115685817Y-96964500D01*
X115552164Y-97000312D01*
X115552161Y-97000313D01*
X115432338Y-97069492D01*
X115432333Y-97069496D01*
X115334496Y-97167333D01*
X115334492Y-97167338D01*
X115265313Y-97287161D01*
X115265312Y-97287164D01*
X115229500Y-97420817D01*
X115229500Y-97559182D01*
X115265312Y-97692835D01*
X115265313Y-97692838D01*
X115334492Y-97812661D01*
X115334494Y-97812664D01*
X115334495Y-97812665D01*
X115432335Y-97910505D01*
X115432337Y-97910506D01*
X115432341Y-97910509D01*
X115472734Y-97933830D01*
X115520950Y-97984396D01*
X115534174Y-98053003D01*
X115508206Y-98117868D01*
X115458187Y-98155778D01*
X115325827Y-98210602D01*
X115325814Y-98210609D01*
X115194711Y-98298210D01*
X115194707Y-98298213D01*
X115083213Y-98409707D01*
X115083210Y-98409711D01*
X114995609Y-98540814D01*
X114995602Y-98540827D01*
X114935264Y-98686498D01*
X114935261Y-98686510D01*
X114904500Y-98841153D01*
X113275499Y-98841153D01*
X113244738Y-98686510D01*
X113244737Y-98686503D01*
X113244726Y-98686476D01*
X113184397Y-98540827D01*
X113184390Y-98540814D01*
X113096789Y-98409711D01*
X113096786Y-98409707D01*
X112985292Y-98298213D01*
X112985288Y-98298210D01*
X112854185Y-98210609D01*
X112854172Y-98210602D01*
X112708501Y-98150264D01*
X112708489Y-98150261D01*
X112553845Y-98119500D01*
X112553842Y-98119500D01*
X111596158Y-98119500D01*
X111596155Y-98119500D01*
X111441510Y-98150261D01*
X111441498Y-98150264D01*
X111295827Y-98210602D01*
X111295814Y-98210609D01*
X111164711Y-98298210D01*
X111164707Y-98298213D01*
X111053213Y-98409707D01*
X111053210Y-98409711D01*
X110965609Y-98540814D01*
X110965602Y-98540827D01*
X110905264Y-98686498D01*
X110905261Y-98686510D01*
X110874500Y-98841153D01*
X109900500Y-98841153D01*
X109900500Y-93860691D01*
X113329500Y-93860691D01*
X113329500Y-95209309D01*
X113341871Y-95255476D01*
X113348442Y-95280000D01*
X113348442Y-95280001D01*
X113360199Y-95323885D01*
X113386411Y-95369284D01*
X113419511Y-95426614D01*
X113419513Y-95426616D01*
X113850451Y-95857555D01*
X113850457Y-95857560D01*
X113913386Y-95920489D01*
X114016113Y-95979799D01*
X114030045Y-95983532D01*
X114030047Y-95983533D01*
X114030048Y-95983533D01*
X114051316Y-95989231D01*
X114130691Y-96010500D01*
X114190517Y-96010500D01*
X114257556Y-96030185D01*
X114272741Y-96041682D01*
X114337760Y-96099283D01*
X114337762Y-96099284D01*
X114477634Y-96172696D01*
X114631014Y-96210500D01*
X114631015Y-96210500D01*
X114788985Y-96210500D01*
X114942365Y-96172696D01*
X114946204Y-96170681D01*
X115082240Y-96099283D01*
X115200483Y-95994530D01*
X115290220Y-95864523D01*
X115346237Y-95716818D01*
X115365278Y-95560000D01*
X115361764Y-95531055D01*
X115346237Y-95403181D01*
X115308543Y-95303792D01*
X115290220Y-95255477D01*
X115200483Y-95125470D01*
X115082240Y-95020717D01*
X115082238Y-95020716D01*
X115082237Y-95020715D01*
X114942365Y-94947303D01*
X114788986Y-94909500D01*
X114788985Y-94909500D01*
X114631015Y-94909500D01*
X114631014Y-94909500D01*
X114477635Y-94947303D01*
X114412125Y-94981686D01*
X114343617Y-94995410D01*
X114278564Y-94969918D01*
X114237620Y-94913302D01*
X114230500Y-94871889D01*
X114230500Y-94157965D01*
X114250185Y-94090926D01*
X114266813Y-94070288D01*
X114298028Y-94039074D01*
X114359348Y-94005590D01*
X114429040Y-94010574D01*
X114443335Y-94016960D01*
X114447758Y-94019281D01*
X114447760Y-94019283D01*
X114587635Y-94092696D01*
X114644059Y-94106603D01*
X114741014Y-94130500D01*
X114741015Y-94130500D01*
X114898985Y-94130500D01*
X115052365Y-94092696D01*
X115134160Y-94049766D01*
X115192240Y-94019283D01*
X115310483Y-93914530D01*
X115400220Y-93784523D01*
X115456237Y-93636818D01*
X115475278Y-93480000D01*
X115473934Y-93468926D01*
X115456237Y-93323181D01*
X115432168Y-93259716D01*
X115400220Y-93175477D01*
X115310483Y-93045470D01*
X115290198Y-93027499D01*
X120364722Y-93027499D01*
X120364722Y-93027500D01*
X120383762Y-93184318D01*
X120439780Y-93332023D01*
X120439781Y-93332024D01*
X120529518Y-93462032D01*
X120534491Y-93467645D01*
X120533044Y-93468926D01*
X120564850Y-93519620D01*
X120569500Y-93553259D01*
X120569500Y-93901740D01*
X120549815Y-93968779D01*
X120534153Y-93987056D01*
X120534491Y-93987356D01*
X120529515Y-93992972D01*
X120439781Y-94122975D01*
X120439780Y-94122976D01*
X120383762Y-94270681D01*
X120364722Y-94427499D01*
X120364722Y-94427500D01*
X120383762Y-94584318D01*
X120437287Y-94725450D01*
X120439780Y-94732023D01*
X120529517Y-94862030D01*
X120647760Y-94966783D01*
X120647762Y-94966784D01*
X120787634Y-95040196D01*
X120941014Y-95078000D01*
X120941015Y-95078000D01*
X121098985Y-95078000D01*
X121252365Y-95040196D01*
X121271841Y-95029974D01*
X121392240Y-94966783D01*
X121436583Y-94927499D01*
X126844722Y-94927499D01*
X126844722Y-94927500D01*
X126863762Y-95084318D01*
X126911165Y-95209307D01*
X126919780Y-95232023D01*
X127009517Y-95362030D01*
X127047725Y-95395879D01*
X127084853Y-95455067D01*
X127089500Y-95488695D01*
X127089500Y-95801740D01*
X127069815Y-95868779D01*
X127054153Y-95887056D01*
X127054491Y-95887356D01*
X127049515Y-95892972D01*
X126959781Y-96022975D01*
X126959780Y-96022976D01*
X126903762Y-96170681D01*
X126884722Y-96327499D01*
X126884722Y-96327500D01*
X126903762Y-96484318D01*
X126959780Y-96632023D01*
X127049517Y-96762030D01*
X127167760Y-96866783D01*
X127167762Y-96866784D01*
X127307634Y-96940196D01*
X127461014Y-96978000D01*
X127461015Y-96978000D01*
X127618985Y-96978000D01*
X127772365Y-96940196D01*
X127912240Y-96866783D01*
X128030483Y-96762030D01*
X128120220Y-96632023D01*
X128169558Y-96501928D01*
X128211736Y-96446226D01*
X128277334Y-96422169D01*
X128345524Y-96437396D01*
X128394657Y-96487072D01*
X128409500Y-96545900D01*
X128409500Y-96754240D01*
X128389815Y-96821279D01*
X128374153Y-96839556D01*
X128374491Y-96839856D01*
X128369515Y-96845472D01*
X128279781Y-96975475D01*
X128279780Y-96975476D01*
X128223762Y-97123181D01*
X128204722Y-97279999D01*
X128204722Y-97280000D01*
X128223762Y-97436818D01*
X128270169Y-97559181D01*
X128279780Y-97584523D01*
X128369517Y-97714530D01*
X128487760Y-97819283D01*
X128487762Y-97819284D01*
X128627634Y-97892696D01*
X128781014Y-97930500D01*
X128781015Y-97930500D01*
X128938985Y-97930500D01*
X129092365Y-97892696D01*
X129232240Y-97819283D01*
X129350483Y-97714530D01*
X129440220Y-97584523D01*
X129496237Y-97436818D01*
X129515278Y-97280000D01*
X129501599Y-97167338D01*
X129496237Y-97123181D01*
X129449639Y-97000313D01*
X129440220Y-96975477D01*
X129350483Y-96845470D01*
X129350479Y-96845466D01*
X129345509Y-96839856D01*
X129346953Y-96838576D01*
X129315145Y-96787860D01*
X129310500Y-96754240D01*
X129310500Y-95895400D01*
X129330185Y-95828361D01*
X129338682Y-95817138D01*
X129340480Y-95814531D01*
X129340483Y-95814530D01*
X129430220Y-95684523D01*
X129486237Y-95536818D01*
X129505278Y-95380000D01*
X129500639Y-95341789D01*
X129486237Y-95223181D01*
X129464992Y-95167164D01*
X129430220Y-95075477D01*
X129340483Y-94945470D01*
X129222240Y-94840717D01*
X129222238Y-94840716D01*
X129222237Y-94840715D01*
X129082365Y-94767303D01*
X128928986Y-94729500D01*
X128928985Y-94729500D01*
X128771015Y-94729500D01*
X128771014Y-94729500D01*
X128617634Y-94767303D01*
X128477761Y-94840715D01*
X128477759Y-94840717D01*
X128353928Y-94950420D01*
X128290695Y-94980141D01*
X128221432Y-94970957D01*
X128168129Y-94925784D01*
X128148606Y-94872550D01*
X128136237Y-94770681D01*
X128097031Y-94667304D01*
X128080220Y-94622977D01*
X127990483Y-94492970D01*
X127872240Y-94388217D01*
X127872238Y-94388216D01*
X127872237Y-94388215D01*
X127732365Y-94314803D01*
X127578986Y-94277000D01*
X127578985Y-94277000D01*
X127421015Y-94277000D01*
X127421014Y-94277000D01*
X127267634Y-94314803D01*
X127127762Y-94388215D01*
X127009516Y-94492971D01*
X126919781Y-94622975D01*
X126919780Y-94622976D01*
X126863762Y-94770681D01*
X126844722Y-94927499D01*
X121436583Y-94927499D01*
X121510483Y-94862030D01*
X121600220Y-94732023D01*
X121656237Y-94584318D01*
X121675278Y-94427500D01*
X121667112Y-94360242D01*
X121656237Y-94270681D01*
X121622755Y-94182397D01*
X121600220Y-94122977D01*
X121510483Y-93992970D01*
X121510479Y-93992966D01*
X121505509Y-93987356D01*
X121506953Y-93986076D01*
X121475145Y-93935360D01*
X121470500Y-93901740D01*
X121470500Y-93553259D01*
X121490185Y-93486220D01*
X121505846Y-93467944D01*
X121505509Y-93467645D01*
X121510481Y-93462032D01*
X121510481Y-93462031D01*
X121510483Y-93462030D01*
X121600220Y-93332023D01*
X121656237Y-93184318D01*
X121675278Y-93027500D01*
X121671735Y-92998316D01*
X121656237Y-92870681D01*
X121617782Y-92769284D01*
X121600220Y-92722977D01*
X121510483Y-92592970D01*
X121392240Y-92488217D01*
X121392238Y-92488216D01*
X121392237Y-92488215D01*
X121252365Y-92414803D01*
X121098986Y-92377000D01*
X121098985Y-92377000D01*
X120941015Y-92377000D01*
X120941014Y-92377000D01*
X120787634Y-92414803D01*
X120647762Y-92488215D01*
X120529516Y-92592971D01*
X120439781Y-92722975D01*
X120439780Y-92722976D01*
X120383762Y-92870681D01*
X120364722Y-93027499D01*
X115290198Y-93027499D01*
X115192240Y-92940717D01*
X115192238Y-92940716D01*
X115192237Y-92940715D01*
X115052365Y-92867303D01*
X114898986Y-92829500D01*
X114898985Y-92829500D01*
X114741015Y-92829500D01*
X114741014Y-92829500D01*
X114587634Y-92867303D01*
X114447762Y-92940715D01*
X114447760Y-92940717D01*
X114383766Y-92997411D01*
X114382744Y-92998316D01*
X114319510Y-93028037D01*
X114300517Y-93029500D01*
X114160691Y-93029500D01*
X114070325Y-93053713D01*
X114070324Y-93053712D01*
X114046116Y-93060199D01*
X114046113Y-93060200D01*
X113943386Y-93119511D01*
X113943383Y-93119513D01*
X113419513Y-93643383D01*
X113419511Y-93643386D01*
X113360200Y-93746113D01*
X113360199Y-93746116D01*
X113353712Y-93770324D01*
X113353713Y-93770325D01*
X113345838Y-93799716D01*
X113329500Y-93860691D01*
X109900500Y-93860691D01*
X109900500Y-90201153D01*
X110874500Y-90201153D01*
X110874500Y-90358846D01*
X110905261Y-90513489D01*
X110905264Y-90513501D01*
X110965602Y-90659172D01*
X110965609Y-90659185D01*
X111053210Y-90790288D01*
X111053213Y-90790292D01*
X111164707Y-90901786D01*
X111164711Y-90901789D01*
X111295814Y-90989390D01*
X111295827Y-90989397D01*
X111428186Y-91044221D01*
X111441503Y-91049737D01*
X111596153Y-91080499D01*
X111596156Y-91080500D01*
X111596158Y-91080500D01*
X112553844Y-91080500D01*
X112553845Y-91080499D01*
X112708497Y-91049737D01*
X112854179Y-90989394D01*
X112985289Y-90901789D01*
X113096789Y-90790289D01*
X113184394Y-90659179D01*
X113244737Y-90513497D01*
X113275500Y-90358842D01*
X113275500Y-90201158D01*
X113275500Y-90201155D01*
X113275499Y-90201153D01*
X114904500Y-90201153D01*
X114904500Y-90358846D01*
X114935261Y-90513489D01*
X114935264Y-90513501D01*
X114995602Y-90659172D01*
X114995609Y-90659185D01*
X115083210Y-90790288D01*
X115083213Y-90790292D01*
X115194707Y-90901786D01*
X115194711Y-90901789D01*
X115325814Y-90989390D01*
X115325826Y-90989397D01*
X115410647Y-91024530D01*
X115458187Y-91044221D01*
X115512591Y-91088061D01*
X115534656Y-91154355D01*
X115517377Y-91222055D01*
X115472736Y-91266169D01*
X115432336Y-91289494D01*
X115432333Y-91289496D01*
X115334496Y-91387333D01*
X115334492Y-91387338D01*
X115265313Y-91507161D01*
X115265312Y-91507164D01*
X115229500Y-91640817D01*
X115229500Y-91779183D01*
X115265275Y-91912696D01*
X115265312Y-91912835D01*
X115265313Y-91912838D01*
X115334492Y-92032661D01*
X115334494Y-92032664D01*
X115334495Y-92032665D01*
X115432335Y-92130505D01*
X115552164Y-92199688D01*
X115685817Y-92235500D01*
X115685819Y-92235500D01*
X115824181Y-92235500D01*
X115824183Y-92235500D01*
X115957836Y-92199688D01*
X116077665Y-92130505D01*
X116175505Y-92032665D01*
X116244688Y-91912836D01*
X116280500Y-91779183D01*
X116280500Y-91640817D01*
X116244688Y-91507164D01*
X116175505Y-91387335D01*
X116080351Y-91292181D01*
X116046866Y-91230858D01*
X116051850Y-91161166D01*
X116093722Y-91105233D01*
X116159186Y-91080816D01*
X116168032Y-91080500D01*
X116883844Y-91080500D01*
X116883845Y-91080499D01*
X117038497Y-91049737D01*
X117184179Y-90989394D01*
X117315289Y-90901789D01*
X117426789Y-90790289D01*
X117514394Y-90659179D01*
X117574737Y-90513497D01*
X117605500Y-90358842D01*
X117605500Y-90201158D01*
X117605500Y-90201155D01*
X117605499Y-90201153D01*
X117580312Y-90074530D01*
X117574737Y-90046503D01*
X117541185Y-89965500D01*
X117514397Y-89900827D01*
X117514390Y-89900814D01*
X117426789Y-89769711D01*
X117426786Y-89769707D01*
X117315292Y-89658213D01*
X117315288Y-89658210D01*
X117184185Y-89570609D01*
X117184172Y-89570602D01*
X117038501Y-89510264D01*
X117038489Y-89510261D01*
X116883845Y-89479500D01*
X116883842Y-89479500D01*
X115626158Y-89479500D01*
X115626155Y-89479500D01*
X115471510Y-89510261D01*
X115471498Y-89510264D01*
X115325827Y-89570602D01*
X115325814Y-89570609D01*
X115194711Y-89658210D01*
X115194707Y-89658213D01*
X115083213Y-89769707D01*
X115083210Y-89769711D01*
X114995609Y-89900814D01*
X114995602Y-89900827D01*
X114935264Y-90046498D01*
X114935261Y-90046510D01*
X114904500Y-90201153D01*
X113275499Y-90201153D01*
X113250312Y-90074530D01*
X113244737Y-90046503D01*
X113211185Y-89965500D01*
X113184397Y-89900827D01*
X113184390Y-89900814D01*
X113096789Y-89769711D01*
X113096786Y-89769707D01*
X112985292Y-89658213D01*
X112985288Y-89658210D01*
X112854185Y-89570609D01*
X112854172Y-89570602D01*
X112708501Y-89510264D01*
X112708489Y-89510261D01*
X112553845Y-89479500D01*
X112553842Y-89479500D01*
X111596158Y-89479500D01*
X111596155Y-89479500D01*
X111441510Y-89510261D01*
X111441498Y-89510264D01*
X111295827Y-89570602D01*
X111295814Y-89570609D01*
X111164711Y-89658210D01*
X111164707Y-89658213D01*
X111053213Y-89769707D01*
X111053210Y-89769711D01*
X110965609Y-89900814D01*
X110965602Y-89900827D01*
X110905264Y-90046498D01*
X110905261Y-90046510D01*
X110874500Y-90201153D01*
X109900500Y-90201153D01*
X109900500Y-88509999D01*
X116964722Y-88509999D01*
X116964722Y-88510000D01*
X116983762Y-88666818D01*
X116998424Y-88705477D01*
X117039780Y-88814523D01*
X117129517Y-88944530D01*
X117247760Y-89049283D01*
X117247762Y-89049284D01*
X117387634Y-89122696D01*
X117541014Y-89160500D01*
X117541015Y-89160500D01*
X117698985Y-89160500D01*
X117852365Y-89122696D01*
X117894244Y-89100716D01*
X117992240Y-89049283D01*
X118057256Y-88991683D01*
X118120490Y-88961963D01*
X118139483Y-88960500D01*
X118343857Y-88960500D01*
X118410896Y-88980185D01*
X118456651Y-89032989D01*
X118466953Y-89069554D01*
X118478762Y-89166818D01*
X118534348Y-89313383D01*
X118534780Y-89314523D01*
X118624517Y-89444530D01*
X118742760Y-89549283D01*
X118742762Y-89549284D01*
X118882634Y-89622696D01*
X119036014Y-89660500D01*
X119036015Y-89660500D01*
X119193985Y-89660500D01*
X119196018Y-89659999D01*
X131084722Y-89659999D01*
X131084722Y-89660000D01*
X131103762Y-89816818D01*
X131135618Y-89900814D01*
X131159780Y-89964523D01*
X131249517Y-90094530D01*
X131367760Y-90199283D01*
X131379860Y-90205633D01*
X131507634Y-90272696D01*
X131661014Y-90310500D01*
X131661015Y-90310500D01*
X131818985Y-90310500D01*
X131972365Y-90272696D01*
X132014996Y-90250321D01*
X132112240Y-90199283D01*
X132177256Y-90141683D01*
X132240490Y-90111963D01*
X132259483Y-90110500D01*
X133381495Y-90110500D01*
X133448534Y-90130185D01*
X133494289Y-90182989D01*
X133504233Y-90252147D01*
X133497437Y-90278471D01*
X133438763Y-90433181D01*
X133419722Y-90589999D01*
X133419722Y-90590000D01*
X133438762Y-90746818D01*
X133494780Y-90894523D01*
X133584517Y-91024530D01*
X133702760Y-91129283D01*
X133702762Y-91129284D01*
X133842634Y-91202696D01*
X133996014Y-91240500D01*
X133996015Y-91240500D01*
X134153985Y-91240500D01*
X134307365Y-91202696D01*
X134342455Y-91184279D01*
X134447240Y-91129283D01*
X134512256Y-91071683D01*
X134575490Y-91041963D01*
X134594483Y-91040500D01*
X134955517Y-91040500D01*
X135022556Y-91060185D01*
X135037741Y-91071682D01*
X135102760Y-91129283D01*
X135102762Y-91129284D01*
X135242634Y-91202696D01*
X135396014Y-91240500D01*
X135396015Y-91240500D01*
X135553985Y-91240500D01*
X135707365Y-91202696D01*
X135742455Y-91184279D01*
X135847240Y-91129283D01*
X135965483Y-91024530D01*
X136055220Y-90894523D01*
X136111237Y-90746818D01*
X136130278Y-90590000D01*
X136111237Y-90433182D01*
X136091631Y-90381487D01*
X136086265Y-90311827D01*
X136119412Y-90250321D01*
X136149942Y-90227725D01*
X136242240Y-90179283D01*
X136360483Y-90074530D01*
X136450220Y-89944523D01*
X136506237Y-89796818D01*
X136525278Y-89640000D01*
X136516853Y-89570609D01*
X136506237Y-89483181D01*
X136480803Y-89416117D01*
X136450220Y-89335477D01*
X136360483Y-89205470D01*
X136242240Y-89100717D01*
X136242238Y-89100716D01*
X136242237Y-89100715D01*
X136102365Y-89027303D01*
X135948986Y-88989500D01*
X135948985Y-88989500D01*
X135791015Y-88989500D01*
X135791014Y-88989500D01*
X135637634Y-89027303D01*
X135497761Y-89100715D01*
X135497759Y-89100716D01*
X135410167Y-89178316D01*
X135346934Y-89208037D01*
X135327941Y-89209500D01*
X132259483Y-89209500D01*
X132192444Y-89189815D01*
X132177256Y-89178316D01*
X132112240Y-89120717D01*
X132112238Y-89120716D01*
X132112237Y-89120715D01*
X131972365Y-89047303D01*
X131818986Y-89009500D01*
X131818985Y-89009500D01*
X131661015Y-89009500D01*
X131661014Y-89009500D01*
X131507634Y-89047303D01*
X131367762Y-89120715D01*
X131367760Y-89120717D01*
X131272092Y-89205471D01*
X131249516Y-89225471D01*
X131159781Y-89355475D01*
X131159780Y-89355476D01*
X131103762Y-89503181D01*
X131084722Y-89659999D01*
X119196018Y-89659999D01*
X119347365Y-89622696D01*
X119359986Y-89616072D01*
X119487240Y-89549283D01*
X119605483Y-89444530D01*
X119695220Y-89314523D01*
X119751237Y-89166818D01*
X119770278Y-89010000D01*
X119751237Y-88853182D01*
X119695220Y-88705477D01*
X119605483Y-88575470D01*
X119487240Y-88470717D01*
X119487238Y-88470716D01*
X119487237Y-88470715D01*
X119347365Y-88397303D01*
X119193986Y-88359500D01*
X119193985Y-88359500D01*
X119152965Y-88359500D01*
X119085926Y-88339815D01*
X119065284Y-88323181D01*
X118891616Y-88149513D01*
X118891614Y-88149511D01*
X118790912Y-88091370D01*
X118788884Y-88090199D01*
X118763454Y-88083386D01*
X118763453Y-88083385D01*
X118763453Y-88083386D01*
X118718880Y-88071443D01*
X118674309Y-88059500D01*
X118674308Y-88059500D01*
X118139483Y-88059500D01*
X118072444Y-88039815D01*
X118057256Y-88028316D01*
X118013454Y-87989511D01*
X117992240Y-87970717D01*
X117992238Y-87970716D01*
X117992237Y-87970715D01*
X117852365Y-87897303D01*
X117698986Y-87859500D01*
X117698985Y-87859500D01*
X117541015Y-87859500D01*
X117541014Y-87859500D01*
X117387634Y-87897303D01*
X117247762Y-87970715D01*
X117129516Y-88075471D01*
X117039781Y-88205475D01*
X117039780Y-88205476D01*
X116983762Y-88353181D01*
X116964722Y-88509999D01*
X109900500Y-88509999D01*
X109900500Y-78609999D01*
X116459364Y-78609999D01*
X116459364Y-78610000D01*
X117356988Y-78610000D01*
X117324075Y-78667007D01*
X117290000Y-78794174D01*
X117290000Y-78925826D01*
X117324075Y-79052993D01*
X117356988Y-79110000D01*
X116459364Y-79110000D01*
X116516567Y-79323486D01*
X116516570Y-79323492D01*
X116616399Y-79537578D01*
X116751894Y-79731082D01*
X116918917Y-79898105D01*
X117112421Y-80033600D01*
X117326507Y-80133429D01*
X117326516Y-80133433D01*
X117540000Y-80190634D01*
X117540000Y-79293012D01*
X117597007Y-79325925D01*
X117724174Y-79360000D01*
X117855826Y-79360000D01*
X117982993Y-79325925D01*
X118040000Y-79293012D01*
X118040000Y-80190633D01*
X118253483Y-80133433D01*
X118253492Y-80133429D01*
X118467578Y-80033600D01*
X118661082Y-79898105D01*
X118828105Y-79731082D01*
X118958425Y-79544968D01*
X119013002Y-79501344D01*
X119082501Y-79494151D01*
X119144855Y-79525673D01*
X119161575Y-79544968D01*
X119291894Y-79731082D01*
X119458917Y-79898105D01*
X119652421Y-80033600D01*
X119866507Y-80133429D01*
X119866516Y-80133433D01*
X120080000Y-80190634D01*
X120080000Y-79293012D01*
X120137007Y-79325925D01*
X120264174Y-79360000D01*
X120395826Y-79360000D01*
X120522993Y-79325925D01*
X120580000Y-79293012D01*
X120580000Y-80190633D01*
X120793483Y-80133433D01*
X120793492Y-80133429D01*
X121007578Y-80033600D01*
X121201082Y-79898105D01*
X121368105Y-79731082D01*
X121503600Y-79537578D01*
X121597294Y-79336651D01*
X121643466Y-79284212D01*
X121710660Y-79265060D01*
X121777541Y-79285276D01*
X121820676Y-79333785D01*
X121887632Y-79468253D01*
X121945565Y-79544968D01*
X122016128Y-79638407D01*
X122173698Y-79782052D01*
X122354981Y-79894298D01*
X122553802Y-79971321D01*
X122763390Y-80010500D01*
X122763392Y-80010500D01*
X122976608Y-80010500D01*
X122976610Y-80010500D01*
X123186198Y-79971321D01*
X123385019Y-79894298D01*
X123566302Y-79782052D01*
X123723872Y-79638407D01*
X123852366Y-79468255D01*
X123906270Y-79360000D01*
X123947403Y-79277394D01*
X123947403Y-79277393D01*
X123947405Y-79277389D01*
X124005756Y-79072310D01*
X124012029Y-79004605D01*
X124037814Y-78939669D01*
X124094614Y-78898981D01*
X124164395Y-78895461D01*
X124225002Y-78930225D01*
X124257193Y-78992238D01*
X124259500Y-79016047D01*
X124259500Y-79754856D01*
X124259502Y-79754882D01*
X124262413Y-79779987D01*
X124262415Y-79779991D01*
X124307793Y-79882764D01*
X124307794Y-79882765D01*
X124387235Y-79962206D01*
X124490009Y-80007585D01*
X124515135Y-80010500D01*
X126304864Y-80010499D01*
X126304879Y-80010497D01*
X126304882Y-80010497D01*
X126329987Y-80007586D01*
X126329988Y-80007585D01*
X126329991Y-80007585D01*
X126432765Y-79962206D01*
X126512206Y-79882765D01*
X126557585Y-79779991D01*
X126560500Y-79754865D01*
X126560499Y-77965136D01*
X126560497Y-77965117D01*
X126557586Y-77940012D01*
X126557585Y-77940010D01*
X126557585Y-77940009D01*
X126512206Y-77837235D01*
X126432765Y-77757794D01*
X126412124Y-77748680D01*
X126329992Y-77712415D01*
X126304865Y-77709500D01*
X124515143Y-77709500D01*
X124515117Y-77709502D01*
X124490012Y-77712413D01*
X124490008Y-77712415D01*
X124387235Y-77757793D01*
X124307794Y-77837234D01*
X124262415Y-77940006D01*
X124262415Y-77940008D01*
X124259500Y-77965131D01*
X124259500Y-78703951D01*
X124239815Y-78770990D01*
X124187011Y-78816745D01*
X124117853Y-78826689D01*
X124054297Y-78797664D01*
X124016523Y-78738886D01*
X124012029Y-78715391D01*
X124005756Y-78647689D01*
X123978812Y-78552993D01*
X123947405Y-78442611D01*
X123947403Y-78442606D01*
X123947403Y-78442605D01*
X123852367Y-78251746D01*
X123723872Y-78081593D01*
X123566302Y-77937948D01*
X123385019Y-77825702D01*
X123385017Y-77825701D01*
X123285608Y-77787190D01*
X123186198Y-77748679D01*
X122976610Y-77709500D01*
X122763390Y-77709500D01*
X122553802Y-77748679D01*
X122553799Y-77748679D01*
X122553799Y-77748680D01*
X122354982Y-77825701D01*
X122354980Y-77825702D01*
X122173699Y-77937947D01*
X122016127Y-78081593D01*
X121887634Y-78251744D01*
X121820676Y-78386215D01*
X121773173Y-78437452D01*
X121705510Y-78454873D01*
X121639170Y-78432947D01*
X121597294Y-78383348D01*
X121503600Y-78182422D01*
X121503599Y-78182420D01*
X121368113Y-77988926D01*
X121368108Y-77988920D01*
X121201082Y-77821894D01*
X121007578Y-77686399D01*
X120793492Y-77586570D01*
X120793486Y-77586567D01*
X120580000Y-77529364D01*
X120580000Y-78426988D01*
X120522993Y-78394075D01*
X120395826Y-78360000D01*
X120264174Y-78360000D01*
X120137007Y-78394075D01*
X120080000Y-78426988D01*
X120080000Y-77529364D01*
X120079999Y-77529364D01*
X119866513Y-77586567D01*
X119866507Y-77586570D01*
X119652422Y-77686399D01*
X119652420Y-77686400D01*
X119458926Y-77821886D01*
X119458920Y-77821891D01*
X119291891Y-77988920D01*
X119291890Y-77988922D01*
X119161575Y-78175031D01*
X119106998Y-78218655D01*
X119037499Y-78225848D01*
X118975145Y-78194326D01*
X118958425Y-78175031D01*
X118828109Y-77988922D01*
X118828108Y-77988920D01*
X118661082Y-77821894D01*
X118467578Y-77686399D01*
X118253492Y-77586570D01*
X118253486Y-77586567D01*
X118040000Y-77529364D01*
X118040000Y-78426988D01*
X117982993Y-78394075D01*
X117855826Y-78360000D01*
X117724174Y-78360000D01*
X117597007Y-78394075D01*
X117540000Y-78426988D01*
X117540000Y-77529364D01*
X117539999Y-77529364D01*
X117326513Y-77586567D01*
X117326507Y-77586570D01*
X117112422Y-77686399D01*
X117112420Y-77686400D01*
X116918926Y-77821886D01*
X116918920Y-77821891D01*
X116751891Y-77988920D01*
X116751886Y-77988926D01*
X116616400Y-78182420D01*
X116616399Y-78182422D01*
X116516570Y-78396507D01*
X116516567Y-78396513D01*
X116459364Y-78609999D01*
X109900500Y-78609999D01*
X109900500Y-77705413D01*
X109900972Y-77694606D01*
X109911097Y-77578880D01*
X109914739Y-77537242D01*
X109918490Y-77515966D01*
X109957969Y-77368627D01*
X109965362Y-77348318D01*
X110029823Y-77210081D01*
X110040629Y-77191366D01*
X110128119Y-77066417D01*
X110142007Y-77049865D01*
X110249865Y-76942007D01*
X110266417Y-76928119D01*
X110391366Y-76840629D01*
X110410081Y-76829823D01*
X110548320Y-76765361D01*
X110568627Y-76757969D01*
X110715966Y-76718490D01*
X110737242Y-76714739D01*
X110869885Y-76703134D01*
X110894606Y-76700972D01*
X110905413Y-76700500D01*
X110965892Y-76700500D01*
X111897706Y-76700500D01*
X169715770Y-76710486D01*
G37*
%TD.AperFunction*%
%TD*%
M02*
