%TF.GenerationSoftware,KiCad,Pcbnew,8.0.5*%
%TF.CreationDate,2024-12-16T02:16:41+02:00*%
%TF.ProjectId,TheXeric,54686558-6572-4696-932e-6b696361645f,1.0*%
%TF.SameCoordinates,Original*%
%TF.FileFunction,Paste,Top*%
%TF.FilePolarity,Positive*%
%FSLAX46Y46*%
G04 Gerber Fmt 4.6, Leading zero omitted, Abs format (unit mm)*
G04 Created by KiCad (PCBNEW 8.0.5) date 2024-12-16 02:16:41*
%MOMM*%
%LPD*%
G01*
G04 APERTURE LIST*
G04 Aperture macros list*
%AMRoundRect*
0 Rectangle with rounded corners*
0 $1 Rounding radius*
0 $2 $3 $4 $5 $6 $7 $8 $9 X,Y pos of 4 corners*
0 Add a 4 corners polygon primitive as box body*
4,1,4,$2,$3,$4,$5,$6,$7,$8,$9,$2,$3,0*
0 Add four circle primitives for the rounded corners*
1,1,$1+$1,$2,$3*
1,1,$1+$1,$4,$5*
1,1,$1+$1,$6,$7*
1,1,$1+$1,$8,$9*
0 Add four rect primitives between the rounded corners*
20,1,$1+$1,$2,$3,$4,$5,0*
20,1,$1+$1,$4,$5,$6,$7,0*
20,1,$1+$1,$6,$7,$8,$9,0*
20,1,$1+$1,$8,$9,$2,$3,0*%
G04 Aperture macros list end*
%ADD10RoundRect,0.225000X-0.250000X0.225000X-0.250000X-0.225000X0.250000X-0.225000X0.250000X0.225000X0*%
%ADD11RoundRect,0.225000X0.225000X0.250000X-0.225000X0.250000X-0.225000X-0.250000X0.225000X-0.250000X0*%
%ADD12RoundRect,0.200000X0.275000X-0.200000X0.275000X0.200000X-0.275000X0.200000X-0.275000X-0.200000X0*%
%ADD13RoundRect,0.147500X0.172500X-0.147500X0.172500X0.147500X-0.172500X0.147500X-0.172500X-0.147500X0*%
%ADD14RoundRect,0.135000X-0.135000X-0.185000X0.135000X-0.185000X0.135000X0.185000X-0.135000X0.185000X0*%
%ADD15RoundRect,0.250000X0.425000X0.425000X-0.425000X0.425000X-0.425000X-0.425000X0.425000X-0.425000X0*%
%ADD16RoundRect,0.075000X0.325000X0.075000X-0.325000X0.075000X-0.325000X-0.075000X0.325000X-0.075000X0*%
%ADD17RoundRect,0.075000X0.075000X0.325000X-0.075000X0.325000X-0.075000X-0.325000X0.075000X-0.325000X0*%
%ADD18RoundRect,0.150000X0.512500X0.150000X-0.512500X0.150000X-0.512500X-0.150000X0.512500X-0.150000X0*%
%ADD19RoundRect,0.135000X0.185000X-0.135000X0.185000X0.135000X-0.185000X0.135000X-0.185000X-0.135000X0*%
%ADD20RoundRect,0.200000X-0.275000X0.200000X-0.275000X-0.200000X0.275000X-0.200000X0.275000X0.200000X0*%
%ADD21RoundRect,0.218750X0.256250X-0.218750X0.256250X0.218750X-0.256250X0.218750X-0.256250X-0.218750X0*%
%ADD22RoundRect,0.140000X0.170000X-0.140000X0.170000X0.140000X-0.170000X0.140000X-0.170000X-0.140000X0*%
%ADD23RoundRect,0.140000X-0.170000X0.140000X-0.170000X-0.140000X0.170000X-0.140000X0.170000X0.140000X0*%
%ADD24RoundRect,0.150000X-0.512500X-0.150000X0.512500X-0.150000X0.512500X0.150000X-0.512500X0.150000X0*%
%ADD25RoundRect,0.218750X0.218750X0.256250X-0.218750X0.256250X-0.218750X-0.256250X0.218750X-0.256250X0*%
%ADD26RoundRect,0.218750X-0.256250X0.218750X-0.256250X-0.218750X0.256250X-0.218750X0.256250X0.218750X0*%
%ADD27RoundRect,0.225000X0.250000X-0.225000X0.250000X0.225000X-0.250000X0.225000X-0.250000X-0.225000X0*%
%ADD28RoundRect,0.150000X-0.425000X0.150000X-0.425000X-0.150000X0.425000X-0.150000X0.425000X0.150000X0*%
%ADD29RoundRect,0.075000X-0.500000X0.075000X-0.500000X-0.075000X0.500000X-0.075000X0.500000X0.075000X0*%
%ADD30O,2.100000X1.000000*%
%ADD31O,1.800000X1.000000*%
%ADD32RoundRect,0.135000X-0.185000X0.135000X-0.185000X-0.135000X0.185000X-0.135000X0.185000X0.135000X0*%
%ADD33R,1.700000X0.900000*%
%ADD34RoundRect,0.135000X0.135000X0.185000X-0.135000X0.185000X-0.135000X-0.185000X0.135000X-0.185000X0*%
%ADD35RoundRect,0.200000X0.200000X0.275000X-0.200000X0.275000X-0.200000X-0.275000X0.200000X-0.275000X0*%
%ADD36RoundRect,0.140000X-0.140000X-0.170000X0.140000X-0.170000X0.140000X0.170000X-0.140000X0.170000X0*%
%ADD37RoundRect,0.140000X0.140000X0.170000X-0.140000X0.170000X-0.140000X-0.170000X0.140000X-0.170000X0*%
%ADD38RoundRect,0.150000X0.150000X-0.587500X0.150000X0.587500X-0.150000X0.587500X-0.150000X-0.587500X0*%
%ADD39RoundRect,0.075000X-0.662500X-0.075000X0.662500X-0.075000X0.662500X0.075000X-0.662500X0.075000X0*%
%ADD40RoundRect,0.075000X-0.075000X-0.662500X0.075000X-0.662500X0.075000X0.662500X-0.075000X0.662500X0*%
%ADD41R,0.900000X1.700000*%
%ADD42R,1.000000X0.800000*%
%ADD43R,0.700000X1.500000*%
%ADD44RoundRect,0.218750X-0.218750X-0.256250X0.218750X-0.256250X0.218750X0.256250X-0.218750X0.256250X0*%
%ADD45R,1.000000X1.800000*%
G04 APERTURE END LIST*
D10*
%TO.C,C5*%
X121010000Y-85985000D03*
X121010000Y-87535000D03*
%TD*%
D11*
%TO.C,C8*%
X155175000Y-87970000D03*
X153625000Y-87970000D03*
%TD*%
%TO.C,C6*%
X125235000Y-90162500D03*
X123685000Y-90162500D03*
%TD*%
D12*
%TO.C,R4*%
X129870000Y-84887500D03*
X129870000Y-83237500D03*
%TD*%
D13*
%TO.C,F1*%
X119440000Y-91645000D03*
X119440000Y-90675000D03*
%TD*%
D14*
%TO.C,R7*%
X118930000Y-92950000D03*
X119950000Y-92950000D03*
%TD*%
D15*
%TO.C,U5*%
X134420000Y-95620000D03*
X134420000Y-93940000D03*
X132740000Y-95620000D03*
X132740000Y-93940000D03*
D16*
X136030000Y-96080000D03*
X136030000Y-95430000D03*
X136030000Y-94780000D03*
X136030000Y-94130000D03*
X136030000Y-93480000D03*
D17*
X134880000Y-92330000D03*
X134230000Y-92330000D03*
X133580000Y-92330000D03*
X132930000Y-92330000D03*
X132280000Y-92330000D03*
D16*
X131130000Y-93480000D03*
X131130000Y-94130000D03*
X131130000Y-94780000D03*
X131130000Y-95430000D03*
X131130000Y-96080000D03*
D17*
X132280000Y-97230000D03*
X132930000Y-97230000D03*
X133580000Y-97230000D03*
X134230000Y-97230000D03*
X134880000Y-97230000D03*
%TD*%
D18*
%TO.C,U4*%
X146827500Y-103220000D03*
X146827500Y-102270000D03*
X146827500Y-101320000D03*
X144552500Y-101320000D03*
X144552500Y-103220000D03*
%TD*%
D19*
%TO.C,R10*%
X142560000Y-99050000D03*
X142560000Y-98030000D03*
%TD*%
D20*
%TO.C,R5*%
X132440000Y-86760000D03*
X132440000Y-88410000D03*
%TD*%
D21*
%TO.C,FB1*%
X164280000Y-97687500D03*
X164280000Y-96112500D03*
%TD*%
D22*
%TO.C,C9*%
X160790000Y-96540000D03*
X160790000Y-95580000D03*
%TD*%
D23*
%TO.C,C2*%
X134900000Y-101520000D03*
X134900000Y-102480000D03*
%TD*%
D24*
%TO.C,U1*%
X122612500Y-93727500D03*
X122612500Y-94677500D03*
X122612500Y-95627500D03*
X124887500Y-95627500D03*
X124887500Y-94677500D03*
X124887500Y-93727500D03*
%TD*%
D19*
%TO.C,R15*%
X148440000Y-104310000D03*
X148440000Y-103290000D03*
%TD*%
D25*
%TO.C,D6*%
X142685000Y-93470000D03*
X141110000Y-93470000D03*
%TD*%
D26*
%TO.C,D3*%
X132425000Y-83327500D03*
X132425000Y-84902500D03*
%TD*%
D14*
%TO.C,R12*%
X167770000Y-81760000D03*
X168790000Y-81760000D03*
%TD*%
D27*
%TO.C,C11*%
X166420000Y-96935000D03*
X166420000Y-95385000D03*
%TD*%
D23*
%TO.C,C1*%
X142580000Y-100540000D03*
X142580000Y-101500000D03*
%TD*%
D28*
%TO.C,J1*%
X116830000Y-91400000D03*
X116830000Y-92200000D03*
D29*
X116830000Y-93350000D03*
X116830000Y-94350000D03*
X116830000Y-94850000D03*
X116830000Y-95850000D03*
D28*
X116830000Y-97000000D03*
X116830000Y-97800000D03*
X116830000Y-97800000D03*
X116830000Y-97000000D03*
D29*
X116830000Y-96350000D03*
X116830000Y-95350000D03*
X116830000Y-93850000D03*
X116830000Y-92850000D03*
D28*
X116830000Y-92200000D03*
X116830000Y-91400000D03*
D30*
X116255000Y-90280000D03*
D31*
X112075000Y-90280000D03*
D30*
X116255000Y-98920000D03*
D31*
X112075000Y-98920000D03*
%TD*%
D32*
%TO.C,R14*%
X148420000Y-100150000D03*
X148420000Y-101170000D03*
%TD*%
D33*
%TO.C,SW2*%
X139920000Y-99300000D03*
X139920000Y-102700000D03*
%TD*%
D21*
%TO.C,D1*%
X129880000Y-87970000D03*
X129880000Y-86395000D03*
%TD*%
D34*
%TO.C,R13*%
X165970000Y-81740000D03*
X164950000Y-81740000D03*
%TD*%
D32*
%TO.C,R2*%
X149320000Y-87590000D03*
X149320000Y-88610000D03*
%TD*%
D26*
%TO.C,D4*%
X134780000Y-83283750D03*
X134780000Y-84858750D03*
%TD*%
D35*
%TO.C,R8*%
X139325000Y-93450000D03*
X137675000Y-93450000D03*
%TD*%
D26*
%TO.C,L1*%
X127010000Y-86472500D03*
X127010000Y-88047500D03*
%TD*%
D14*
%TO.C,R9*%
X118910000Y-96780000D03*
X119930000Y-96780000D03*
%TD*%
D12*
%TO.C,R3*%
X154520000Y-102635000D03*
X154520000Y-100985000D03*
%TD*%
D24*
%TO.C,U6*%
X122772500Y-86520000D03*
X122772500Y-87470000D03*
X122772500Y-88420000D03*
X125047500Y-88420000D03*
X125047500Y-86520000D03*
%TD*%
D36*
%TO.C,C4*%
X160790000Y-85510000D03*
X161750000Y-85510000D03*
%TD*%
D37*
%TO.C,C12*%
X133650000Y-98460000D03*
X132690000Y-98460000D03*
%TD*%
D38*
%TO.C,U3*%
X145630000Y-87985000D03*
X147530000Y-87985000D03*
X146580000Y-86110000D03*
%TD*%
D34*
%TO.C,R11*%
X158260000Y-85530000D03*
X157240000Y-85530000D03*
%TD*%
D39*
%TO.C,U2*%
X150737500Y-92307500D03*
X150737500Y-92807500D03*
X150737500Y-93307500D03*
X150737500Y-93807500D03*
X150737500Y-94307500D03*
X150737500Y-94807500D03*
X150737500Y-95307500D03*
X150737500Y-95807500D03*
X150737500Y-96307500D03*
X150737500Y-96807500D03*
X150737500Y-97307500D03*
X150737500Y-97807500D03*
D40*
X152150000Y-99220000D03*
X152650000Y-99220000D03*
X153150000Y-99220000D03*
X153650000Y-99220000D03*
X154150000Y-99220000D03*
X154650000Y-99220000D03*
X155150000Y-99220000D03*
X155650000Y-99220000D03*
X156150000Y-99220000D03*
X156650000Y-99220000D03*
X157150000Y-99220000D03*
X157650000Y-99220000D03*
D39*
X159062500Y-97807500D03*
X159062500Y-97307500D03*
X159062500Y-96807500D03*
X159062500Y-96307500D03*
X159062500Y-95807500D03*
X159062500Y-95307500D03*
X159062500Y-94807500D03*
X159062500Y-94307500D03*
X159062500Y-93807500D03*
X159062500Y-93307500D03*
X159062500Y-92807500D03*
X159062500Y-92307500D03*
D40*
X157650000Y-90895000D03*
X157150000Y-90895000D03*
X156650000Y-90895000D03*
X156150000Y-90895000D03*
X155650000Y-90895000D03*
X155150000Y-90895000D03*
X154650000Y-90895000D03*
X154150000Y-90895000D03*
X153650000Y-90895000D03*
X153150000Y-90895000D03*
X152650000Y-90895000D03*
X152150000Y-90895000D03*
%TD*%
D20*
%TO.C,R6*%
X134775000Y-86766250D03*
X134775000Y-88416250D03*
%TD*%
D41*
%TO.C,SW3*%
X157900000Y-87980000D03*
X161300000Y-87980000D03*
%TD*%
D14*
%TO.C,R1*%
X133910000Y-106840000D03*
X134930000Y-106840000D03*
%TD*%
D23*
%TO.C,C3*%
X137430000Y-101480000D03*
X137430000Y-102440000D03*
%TD*%
D27*
%TO.C,C10*%
X162120000Y-96905000D03*
X162120000Y-95355000D03*
%TD*%
D42*
%TO.C,SW1*%
X128010000Y-109260000D03*
X128010000Y-111470000D03*
X135310000Y-109260000D03*
X135310000Y-111470000D03*
D43*
X129410000Y-108610000D03*
X132410000Y-108610000D03*
X133910000Y-108610000D03*
%TD*%
D37*
%TO.C,C7*%
X155160000Y-89330000D03*
X154200000Y-89330000D03*
%TD*%
D44*
%TO.C,D2*%
X151342500Y-102450000D03*
X152917500Y-102450000D03*
%TD*%
D45*
%TO.C,Y1*%
X134910000Y-99720000D03*
X137410000Y-99720000D03*
%TD*%
M02*
