M48
; DRILL file {KiCad 8.0.5} date 2024-12-16T18:06:55+0200
; FORMAT={-:-/ absolute / metric / decimal}
; #@! TF.CreationDate,2024-12-16T18:06:55+02:00
; #@! TF.GenerationSoftware,Kicad,Pcbnew,8.0.5
; #@! TF.FileFunction,MixedPlating,1,2
FMAT,2
METRIC
; #@! TA.AperFunction,Plated,PTH,ViaDrill
T1C0.300
; #@! TA.AperFunction,Plated,PTH,ComponentDrill
T2C0.600
; #@! TA.AperFunction,Plated,PTH,ComponentDrill
T3C1.000
; #@! TA.AperFunction,NonPlated,NPTH,ComponentDrill
T4C0.650
; #@! TA.AperFunction,NonPlated,NPTH,ComponentDrill
T5C0.900
%
G90
G05
T1
X114.71Y-95.56
X114.82Y-93.48
X117.62Y-88.51
X117.715Y-91.29
X118.29Y-97.86
X119.115Y-89.01
X119.62Y-87.53
X120.32Y-92.15
X120.92Y-96.75
X121.02Y-93.027
X121.02Y-94.427
X126.38Y-94.84
X127.5Y-94.927
X127.54Y-96.328
X128.85Y-95.38
X128.86Y-97.28
X129.86Y-89.345
X131.74Y-89.66
X132.4Y-81.825
X132.4Y-106.97
X132.62Y-99.56
X133.58Y-94.78
X134.075Y-90.59
X134.23Y-104.85
X134.775Y-81.846
X135.475Y-90.59
X135.63Y-104.87
X135.87Y-89.64
X136.62Y-104.17
X137.6Y-104.17
X138.73Y-104.17
X140.46Y-95.32
X141.49Y-95.28
X142.43Y-91.3
X142.48Y-95.28
X142.59Y-102.53
X143.56Y-95.28
X144.0Y-93.47
X144.54Y-90.27
X145.008Y-94.93
X146.059Y-94.87
X146.59Y-84.56
X146.943Y-94.705
X147.8Y-95.03
X148.28Y-102.28
X149.2Y-99.226
X151.31Y-103.8
X151.66Y-100.783
X153.17Y-97.56
X153.58Y-86.63
X155.285Y-86.765
X156.23Y-85.68
X160.737Y-92.23
X162.338Y-91.168
X162.56Y-87.95
X162.74Y-85.47
X163.57Y-94.7
X164.09Y-83.01
X164.1Y-84.31
X164.73Y-91.58
X164.74Y-94.83
X165.76Y-84.27
X165.97Y-83.01
X167.69Y-95.4
X168.09Y-84.3
X169.49Y-84.32
T3
X117.79Y-78.86
X117.79Y-110.34
X120.33Y-78.86
X120.33Y-110.34
X122.87Y-78.86
X122.87Y-110.34
X125.41Y-78.86
X125.41Y-110.34
X137.89Y-78.86
X137.89Y-110.34
X140.43Y-78.86
X140.43Y-110.34
X142.97Y-78.86
X142.97Y-110.34
X145.51Y-78.86
X145.51Y-110.34
X149.14Y-110.34
X151.68Y-78.86
X151.68Y-110.34
X154.22Y-78.86
X154.22Y-110.34
X156.76Y-78.86
X156.76Y-110.34
X160.37Y-110.34
X162.91Y-78.86
X162.91Y-110.34
X165.45Y-78.86
X165.45Y-110.34
X167.99Y-78.86
X167.99Y-110.34
T4
X115.755Y-91.71
X115.755Y-97.49
T5
X130.16Y-110.37
X133.16Y-110.37
T2
G00X112.475Y-90.28
M15
G01X111.675Y-90.28
M16
G05
G00X112.475Y-98.92
M15
G01X111.675Y-98.92
M16
G05
G00X116.805Y-90.28
M15
G01X115.705Y-90.28
M16
G05
G00X116.805Y-98.92
M15
G01X115.705Y-98.92
M16
G05
M30
