%TF.GenerationSoftware,KiCad,Pcbnew,8.0.5*%
%TF.CreationDate,2024-12-16T02:16:42+02:00*%
%TF.ProjectId,TheXeric,54686558-6572-4696-932e-6b696361645f,1.0*%
%TF.SameCoordinates,Original*%
%TF.FileFunction,Legend,Top*%
%TF.FilePolarity,Positive*%
%FSLAX46Y46*%
G04 Gerber Fmt 4.6, Leading zero omitted, Abs format (unit mm)*
G04 Created by KiCad (PCBNEW 8.0.5) date 2024-12-16 02:16:42*
%MOMM*%
%LPD*%
G01*
G04 APERTURE LIST*
%ADD10C,0.100000*%
%ADD11C,0.080000*%
%ADD12C,0.200000*%
%ADD13C,0.120000*%
G04 APERTURE END LIST*
D10*
X140064836Y-108503609D02*
X140064836Y-108003609D01*
X140064836Y-108003609D02*
X140183884Y-108003609D01*
X140183884Y-108003609D02*
X140255312Y-108027419D01*
X140255312Y-108027419D02*
X140302931Y-108075038D01*
X140302931Y-108075038D02*
X140326741Y-108122657D01*
X140326741Y-108122657D02*
X140350550Y-108217895D01*
X140350550Y-108217895D02*
X140350550Y-108289323D01*
X140350550Y-108289323D02*
X140326741Y-108384561D01*
X140326741Y-108384561D02*
X140302931Y-108432180D01*
X140302931Y-108432180D02*
X140255312Y-108479800D01*
X140255312Y-108479800D02*
X140183884Y-108503609D01*
X140183884Y-108503609D02*
X140064836Y-108503609D01*
X140826741Y-108503609D02*
X140541027Y-108503609D01*
X140683884Y-108503609D02*
X140683884Y-108003609D01*
X140683884Y-108003609D02*
X140636265Y-108075038D01*
X140636265Y-108075038D02*
X140588646Y-108122657D01*
X140588646Y-108122657D02*
X140541027Y-108146466D01*
X142604836Y-108503609D02*
X142604836Y-108003609D01*
X142604836Y-108003609D02*
X142723884Y-108003609D01*
X142723884Y-108003609D02*
X142795312Y-108027419D01*
X142795312Y-108027419D02*
X142842931Y-108075038D01*
X142842931Y-108075038D02*
X142866741Y-108122657D01*
X142866741Y-108122657D02*
X142890550Y-108217895D01*
X142890550Y-108217895D02*
X142890550Y-108289323D01*
X142890550Y-108289323D02*
X142866741Y-108384561D01*
X142866741Y-108384561D02*
X142842931Y-108432180D01*
X142842931Y-108432180D02*
X142795312Y-108479800D01*
X142795312Y-108479800D02*
X142723884Y-108503609D01*
X142723884Y-108503609D02*
X142604836Y-108503609D01*
X143081027Y-108051228D02*
X143104836Y-108027419D01*
X143104836Y-108027419D02*
X143152455Y-108003609D01*
X143152455Y-108003609D02*
X143271503Y-108003609D01*
X143271503Y-108003609D02*
X143319122Y-108027419D01*
X143319122Y-108027419D02*
X143342931Y-108051228D01*
X143342931Y-108051228D02*
X143366741Y-108098847D01*
X143366741Y-108098847D02*
X143366741Y-108146466D01*
X143366741Y-108146466D02*
X143342931Y-108217895D01*
X143342931Y-108217895D02*
X143057217Y-108503609D01*
X143057217Y-108503609D02*
X143366741Y-108503609D01*
X142771503Y-80931704D02*
X142842931Y-80955514D01*
X142842931Y-80955514D02*
X142866741Y-80979323D01*
X142866741Y-80979323D02*
X142890550Y-81026942D01*
X142890550Y-81026942D02*
X142890550Y-81098371D01*
X142890550Y-81098371D02*
X142866741Y-81145990D01*
X142866741Y-81145990D02*
X142842931Y-81169800D01*
X142842931Y-81169800D02*
X142795312Y-81193609D01*
X142795312Y-81193609D02*
X142604836Y-81193609D01*
X142604836Y-81193609D02*
X142604836Y-80693609D01*
X142604836Y-80693609D02*
X142771503Y-80693609D01*
X142771503Y-80693609D02*
X142819122Y-80717419D01*
X142819122Y-80717419D02*
X142842931Y-80741228D01*
X142842931Y-80741228D02*
X142866741Y-80788847D01*
X142866741Y-80788847D02*
X142866741Y-80836466D01*
X142866741Y-80836466D02*
X142842931Y-80884085D01*
X142842931Y-80884085D02*
X142819122Y-80907895D01*
X142819122Y-80907895D02*
X142771503Y-80931704D01*
X142771503Y-80931704D02*
X142604836Y-80931704D01*
X143342931Y-80693609D02*
X143104836Y-80693609D01*
X143104836Y-80693609D02*
X143081027Y-80931704D01*
X143081027Y-80931704D02*
X143104836Y-80907895D01*
X143104836Y-80907895D02*
X143152455Y-80884085D01*
X143152455Y-80884085D02*
X143271503Y-80884085D01*
X143271503Y-80884085D02*
X143319122Y-80907895D01*
X143319122Y-80907895D02*
X143342931Y-80931704D01*
X143342931Y-80931704D02*
X143366741Y-80979323D01*
X143366741Y-80979323D02*
X143366741Y-81098371D01*
X143366741Y-81098371D02*
X143342931Y-81145990D01*
X143342931Y-81145990D02*
X143319122Y-81169800D01*
X143319122Y-81169800D02*
X143271503Y-81193609D01*
X143271503Y-81193609D02*
X143152455Y-81193609D01*
X143152455Y-81193609D02*
X143104836Y-81169800D01*
X143104836Y-81169800D02*
X143081027Y-81145990D01*
X163540550Y-88223609D02*
X163373884Y-87985514D01*
X163254836Y-88223609D02*
X163254836Y-87723609D01*
X163254836Y-87723609D02*
X163445312Y-87723609D01*
X163445312Y-87723609D02*
X163492931Y-87747419D01*
X163492931Y-87747419D02*
X163516741Y-87771228D01*
X163516741Y-87771228D02*
X163540550Y-87818847D01*
X163540550Y-87818847D02*
X163540550Y-87890276D01*
X163540550Y-87890276D02*
X163516741Y-87937895D01*
X163516741Y-87937895D02*
X163492931Y-87961704D01*
X163492931Y-87961704D02*
X163445312Y-87985514D01*
X163445312Y-87985514D02*
X163254836Y-87985514D01*
X163754836Y-87961704D02*
X163921503Y-87961704D01*
X163992931Y-88223609D02*
X163754836Y-88223609D01*
X163754836Y-88223609D02*
X163754836Y-87723609D01*
X163754836Y-87723609D02*
X163992931Y-87723609D01*
X164183408Y-88199800D02*
X164254836Y-88223609D01*
X164254836Y-88223609D02*
X164373884Y-88223609D01*
X164373884Y-88223609D02*
X164421503Y-88199800D01*
X164421503Y-88199800D02*
X164445312Y-88175990D01*
X164445312Y-88175990D02*
X164469122Y-88128371D01*
X164469122Y-88128371D02*
X164469122Y-88080752D01*
X164469122Y-88080752D02*
X164445312Y-88033133D01*
X164445312Y-88033133D02*
X164421503Y-88009323D01*
X164421503Y-88009323D02*
X164373884Y-87985514D01*
X164373884Y-87985514D02*
X164278646Y-87961704D01*
X164278646Y-87961704D02*
X164231027Y-87937895D01*
X164231027Y-87937895D02*
X164207217Y-87914085D01*
X164207217Y-87914085D02*
X164183408Y-87866466D01*
X164183408Y-87866466D02*
X164183408Y-87818847D01*
X164183408Y-87818847D02*
X164207217Y-87771228D01*
X164207217Y-87771228D02*
X164231027Y-87747419D01*
X164231027Y-87747419D02*
X164278646Y-87723609D01*
X164278646Y-87723609D02*
X164397693Y-87723609D01*
X164397693Y-87723609D02*
X164469122Y-87747419D01*
X164683407Y-87961704D02*
X164850074Y-87961704D01*
X164921502Y-88223609D02*
X164683407Y-88223609D01*
X164683407Y-88223609D02*
X164683407Y-87723609D01*
X164683407Y-87723609D02*
X164921502Y-87723609D01*
X165064360Y-87723609D02*
X165350074Y-87723609D01*
X165207217Y-88223609D02*
X165207217Y-87723609D01*
X167511027Y-81179800D02*
X167582455Y-81203609D01*
X167582455Y-81203609D02*
X167701503Y-81203609D01*
X167701503Y-81203609D02*
X167749122Y-81179800D01*
X167749122Y-81179800D02*
X167772931Y-81155990D01*
X167772931Y-81155990D02*
X167796741Y-81108371D01*
X167796741Y-81108371D02*
X167796741Y-81060752D01*
X167796741Y-81060752D02*
X167772931Y-81013133D01*
X167772931Y-81013133D02*
X167749122Y-80989323D01*
X167749122Y-80989323D02*
X167701503Y-80965514D01*
X167701503Y-80965514D02*
X167606265Y-80941704D01*
X167606265Y-80941704D02*
X167558646Y-80917895D01*
X167558646Y-80917895D02*
X167534836Y-80894085D01*
X167534836Y-80894085D02*
X167511027Y-80846466D01*
X167511027Y-80846466D02*
X167511027Y-80798847D01*
X167511027Y-80798847D02*
X167534836Y-80751228D01*
X167534836Y-80751228D02*
X167558646Y-80727419D01*
X167558646Y-80727419D02*
X167606265Y-80703609D01*
X167606265Y-80703609D02*
X167725312Y-80703609D01*
X167725312Y-80703609D02*
X167796741Y-80727419D01*
X168011026Y-81203609D02*
X168011026Y-80703609D01*
X168011026Y-80703609D02*
X168130074Y-80703609D01*
X168130074Y-80703609D02*
X168201502Y-80727419D01*
X168201502Y-80727419D02*
X168249121Y-80775038D01*
X168249121Y-80775038D02*
X168272931Y-80822657D01*
X168272931Y-80822657D02*
X168296740Y-80917895D01*
X168296740Y-80917895D02*
X168296740Y-80989323D01*
X168296740Y-80989323D02*
X168272931Y-81084561D01*
X168272931Y-81084561D02*
X168249121Y-81132180D01*
X168249121Y-81132180D02*
X168201502Y-81179800D01*
X168201502Y-81179800D02*
X168130074Y-81203609D01*
X168130074Y-81203609D02*
X168011026Y-81203609D01*
X168487217Y-81060752D02*
X168725312Y-81060752D01*
X168439598Y-81203609D02*
X168606264Y-80703609D01*
X168606264Y-80703609D02*
X168772931Y-81203609D01*
X159474836Y-108503609D02*
X159474836Y-108003609D01*
X159474836Y-108003609D02*
X159641503Y-108360752D01*
X159641503Y-108360752D02*
X159808169Y-108003609D01*
X159808169Y-108003609D02*
X159808169Y-108503609D01*
X160141503Y-108003609D02*
X160236741Y-108003609D01*
X160236741Y-108003609D02*
X160284360Y-108027419D01*
X160284360Y-108027419D02*
X160331979Y-108075038D01*
X160331979Y-108075038D02*
X160355789Y-108170276D01*
X160355789Y-108170276D02*
X160355789Y-108336942D01*
X160355789Y-108336942D02*
X160331979Y-108432180D01*
X160331979Y-108432180D02*
X160284360Y-108479800D01*
X160284360Y-108479800D02*
X160236741Y-108503609D01*
X160236741Y-108503609D02*
X160141503Y-108503609D01*
X160141503Y-108503609D02*
X160093884Y-108479800D01*
X160093884Y-108479800D02*
X160046265Y-108432180D01*
X160046265Y-108432180D02*
X160022456Y-108336942D01*
X160022456Y-108336942D02*
X160022456Y-108170276D01*
X160022456Y-108170276D02*
X160046265Y-108075038D01*
X160046265Y-108075038D02*
X160093884Y-108027419D01*
X160093884Y-108027419D02*
X160141503Y-108003609D01*
X160546266Y-108479800D02*
X160617694Y-108503609D01*
X160617694Y-108503609D02*
X160736742Y-108503609D01*
X160736742Y-108503609D02*
X160784361Y-108479800D01*
X160784361Y-108479800D02*
X160808170Y-108455990D01*
X160808170Y-108455990D02*
X160831980Y-108408371D01*
X160831980Y-108408371D02*
X160831980Y-108360752D01*
X160831980Y-108360752D02*
X160808170Y-108313133D01*
X160808170Y-108313133D02*
X160784361Y-108289323D01*
X160784361Y-108289323D02*
X160736742Y-108265514D01*
X160736742Y-108265514D02*
X160641504Y-108241704D01*
X160641504Y-108241704D02*
X160593885Y-108217895D01*
X160593885Y-108217895D02*
X160570075Y-108194085D01*
X160570075Y-108194085D02*
X160546266Y-108146466D01*
X160546266Y-108146466D02*
X160546266Y-108098847D01*
X160546266Y-108098847D02*
X160570075Y-108051228D01*
X160570075Y-108051228D02*
X160593885Y-108027419D01*
X160593885Y-108027419D02*
X160641504Y-108003609D01*
X160641504Y-108003609D02*
X160760551Y-108003609D01*
X160760551Y-108003609D02*
X160831980Y-108027419D01*
X161046265Y-108503609D02*
X161046265Y-108003609D01*
X145331503Y-80931704D02*
X145402931Y-80955514D01*
X145402931Y-80955514D02*
X145426741Y-80979323D01*
X145426741Y-80979323D02*
X145450550Y-81026942D01*
X145450550Y-81026942D02*
X145450550Y-81098371D01*
X145450550Y-81098371D02*
X145426741Y-81145990D01*
X145426741Y-81145990D02*
X145402931Y-81169800D01*
X145402931Y-81169800D02*
X145355312Y-81193609D01*
X145355312Y-81193609D02*
X145164836Y-81193609D01*
X145164836Y-81193609D02*
X145164836Y-80693609D01*
X145164836Y-80693609D02*
X145331503Y-80693609D01*
X145331503Y-80693609D02*
X145379122Y-80717419D01*
X145379122Y-80717419D02*
X145402931Y-80741228D01*
X145402931Y-80741228D02*
X145426741Y-80788847D01*
X145426741Y-80788847D02*
X145426741Y-80836466D01*
X145426741Y-80836466D02*
X145402931Y-80884085D01*
X145402931Y-80884085D02*
X145379122Y-80907895D01*
X145379122Y-80907895D02*
X145331503Y-80931704D01*
X145331503Y-80931704D02*
X145164836Y-80931704D01*
X145879122Y-80693609D02*
X145783884Y-80693609D01*
X145783884Y-80693609D02*
X145736265Y-80717419D01*
X145736265Y-80717419D02*
X145712455Y-80741228D01*
X145712455Y-80741228D02*
X145664836Y-80812657D01*
X145664836Y-80812657D02*
X145641027Y-80907895D01*
X145641027Y-80907895D02*
X145641027Y-81098371D01*
X145641027Y-81098371D02*
X145664836Y-81145990D01*
X145664836Y-81145990D02*
X145688646Y-81169800D01*
X145688646Y-81169800D02*
X145736265Y-81193609D01*
X145736265Y-81193609D02*
X145831503Y-81193609D01*
X145831503Y-81193609D02*
X145879122Y-81169800D01*
X145879122Y-81169800D02*
X145902931Y-81145990D01*
X145902931Y-81145990D02*
X145926741Y-81098371D01*
X145926741Y-81098371D02*
X145926741Y-80979323D01*
X145926741Y-80979323D02*
X145902931Y-80931704D01*
X145902931Y-80931704D02*
X145879122Y-80907895D01*
X145879122Y-80907895D02*
X145831503Y-80884085D01*
X145831503Y-80884085D02*
X145736265Y-80884085D01*
X145736265Y-80884085D02*
X145688646Y-80907895D01*
X145688646Y-80907895D02*
X145664836Y-80931704D01*
X145664836Y-80931704D02*
X145641027Y-80979323D01*
X156414836Y-108503609D02*
X156414836Y-108003609D01*
X156414836Y-108003609D02*
X156533884Y-108003609D01*
X156533884Y-108003609D02*
X156605312Y-108027419D01*
X156605312Y-108027419D02*
X156652931Y-108075038D01*
X156652931Y-108075038D02*
X156676741Y-108122657D01*
X156676741Y-108122657D02*
X156700550Y-108217895D01*
X156700550Y-108217895D02*
X156700550Y-108289323D01*
X156700550Y-108289323D02*
X156676741Y-108384561D01*
X156676741Y-108384561D02*
X156652931Y-108432180D01*
X156652931Y-108432180D02*
X156605312Y-108479800D01*
X156605312Y-108479800D02*
X156533884Y-108503609D01*
X156533884Y-108503609D02*
X156414836Y-108503609D01*
X156867217Y-108003609D02*
X157200550Y-108003609D01*
X157200550Y-108003609D02*
X156986265Y-108503609D01*
X165380550Y-108455990D02*
X165356741Y-108479800D01*
X165356741Y-108479800D02*
X165285312Y-108503609D01*
X165285312Y-108503609D02*
X165237693Y-108503609D01*
X165237693Y-108503609D02*
X165166265Y-108479800D01*
X165166265Y-108479800D02*
X165118646Y-108432180D01*
X165118646Y-108432180D02*
X165094836Y-108384561D01*
X165094836Y-108384561D02*
X165071027Y-108289323D01*
X165071027Y-108289323D02*
X165071027Y-108217895D01*
X165071027Y-108217895D02*
X165094836Y-108122657D01*
X165094836Y-108122657D02*
X165118646Y-108075038D01*
X165118646Y-108075038D02*
X165166265Y-108027419D01*
X165166265Y-108027419D02*
X165237693Y-108003609D01*
X165237693Y-108003609D02*
X165285312Y-108003609D01*
X165285312Y-108003609D02*
X165356741Y-108027419D01*
X165356741Y-108027419D02*
X165380550Y-108051228D01*
X165571027Y-108479800D02*
X165642455Y-108503609D01*
X165642455Y-108503609D02*
X165761503Y-108503609D01*
X165761503Y-108503609D02*
X165809122Y-108479800D01*
X165809122Y-108479800D02*
X165832931Y-108455990D01*
X165832931Y-108455990D02*
X165856741Y-108408371D01*
X165856741Y-108408371D02*
X165856741Y-108360752D01*
X165856741Y-108360752D02*
X165832931Y-108313133D01*
X165832931Y-108313133D02*
X165809122Y-108289323D01*
X165809122Y-108289323D02*
X165761503Y-108265514D01*
X165761503Y-108265514D02*
X165666265Y-108241704D01*
X165666265Y-108241704D02*
X165618646Y-108217895D01*
X165618646Y-108217895D02*
X165594836Y-108194085D01*
X165594836Y-108194085D02*
X165571027Y-108146466D01*
X165571027Y-108146466D02*
X165571027Y-108098847D01*
X165571027Y-108098847D02*
X165594836Y-108051228D01*
X165594836Y-108051228D02*
X165618646Y-108027419D01*
X165618646Y-108027419D02*
X165666265Y-108003609D01*
X165666265Y-108003609D02*
X165785312Y-108003609D01*
X165785312Y-108003609D02*
X165856741Y-108027419D01*
X151296741Y-80717419D02*
X151249122Y-80693609D01*
X151249122Y-80693609D02*
X151177693Y-80693609D01*
X151177693Y-80693609D02*
X151106265Y-80717419D01*
X151106265Y-80717419D02*
X151058646Y-80765038D01*
X151058646Y-80765038D02*
X151034836Y-80812657D01*
X151034836Y-80812657D02*
X151011027Y-80907895D01*
X151011027Y-80907895D02*
X151011027Y-80979323D01*
X151011027Y-80979323D02*
X151034836Y-81074561D01*
X151034836Y-81074561D02*
X151058646Y-81122180D01*
X151058646Y-81122180D02*
X151106265Y-81169800D01*
X151106265Y-81169800D02*
X151177693Y-81193609D01*
X151177693Y-81193609D02*
X151225312Y-81193609D01*
X151225312Y-81193609D02*
X151296741Y-81169800D01*
X151296741Y-81169800D02*
X151320550Y-81145990D01*
X151320550Y-81145990D02*
X151320550Y-80979323D01*
X151320550Y-80979323D02*
X151225312Y-80979323D01*
X151534836Y-81193609D02*
X151534836Y-80693609D01*
X151534836Y-80693609D02*
X151820550Y-81193609D01*
X151820550Y-81193609D02*
X151820550Y-80693609D01*
X152058646Y-81193609D02*
X152058646Y-80693609D01*
X152058646Y-80693609D02*
X152177694Y-80693609D01*
X152177694Y-80693609D02*
X152249122Y-80717419D01*
X152249122Y-80717419D02*
X152296741Y-80765038D01*
X152296741Y-80765038D02*
X152320551Y-80812657D01*
X152320551Y-80812657D02*
X152344360Y-80907895D01*
X152344360Y-80907895D02*
X152344360Y-80979323D01*
X152344360Y-80979323D02*
X152320551Y-81074561D01*
X152320551Y-81074561D02*
X152296741Y-81122180D01*
X152296741Y-81122180D02*
X152249122Y-81169800D01*
X152249122Y-81169800D02*
X152177694Y-81193609D01*
X152177694Y-81193609D02*
X152058646Y-81193609D01*
X137820550Y-81145990D02*
X137796741Y-81169800D01*
X137796741Y-81169800D02*
X137725312Y-81193609D01*
X137725312Y-81193609D02*
X137677693Y-81193609D01*
X137677693Y-81193609D02*
X137606265Y-81169800D01*
X137606265Y-81169800D02*
X137558646Y-81122180D01*
X137558646Y-81122180D02*
X137534836Y-81074561D01*
X137534836Y-81074561D02*
X137511027Y-80979323D01*
X137511027Y-80979323D02*
X137511027Y-80907895D01*
X137511027Y-80907895D02*
X137534836Y-80812657D01*
X137534836Y-80812657D02*
X137558646Y-80765038D01*
X137558646Y-80765038D02*
X137606265Y-80717419D01*
X137606265Y-80717419D02*
X137677693Y-80693609D01*
X137677693Y-80693609D02*
X137725312Y-80693609D01*
X137725312Y-80693609D02*
X137796741Y-80717419D01*
X137796741Y-80717419D02*
X137820550Y-80741228D01*
X138296741Y-81193609D02*
X138011027Y-81193609D01*
X138153884Y-81193609D02*
X138153884Y-80693609D01*
X138153884Y-80693609D02*
X138106265Y-80765038D01*
X138106265Y-80765038D02*
X138058646Y-80812657D01*
X138058646Y-80812657D02*
X138011027Y-80836466D01*
X127587217Y-108003609D02*
X127706265Y-108503609D01*
X127706265Y-108503609D02*
X127801503Y-108146466D01*
X127801503Y-108146466D02*
X127896741Y-108503609D01*
X127896741Y-108503609D02*
X128015789Y-108003609D01*
X128206265Y-108503609D02*
X128206265Y-108003609D01*
X128206265Y-108003609D02*
X128396741Y-108003609D01*
X128396741Y-108003609D02*
X128444360Y-108027419D01*
X128444360Y-108027419D02*
X128468170Y-108051228D01*
X128468170Y-108051228D02*
X128491979Y-108098847D01*
X128491979Y-108098847D02*
X128491979Y-108170276D01*
X128491979Y-108170276D02*
X128468170Y-108217895D01*
X128468170Y-108217895D02*
X128444360Y-108241704D01*
X128444360Y-108241704D02*
X128396741Y-108265514D01*
X128396741Y-108265514D02*
X128206265Y-108265514D01*
X167324836Y-108503609D02*
X167324836Y-108003609D01*
X167324836Y-108003609D02*
X167491503Y-108360752D01*
X167491503Y-108360752D02*
X167658169Y-108003609D01*
X167658169Y-108003609D02*
X167658169Y-108503609D01*
X167896265Y-108503609D02*
X167896265Y-108003609D01*
X168110551Y-108479800D02*
X168181979Y-108503609D01*
X168181979Y-108503609D02*
X168301027Y-108503609D01*
X168301027Y-108503609D02*
X168348646Y-108479800D01*
X168348646Y-108479800D02*
X168372455Y-108455990D01*
X168372455Y-108455990D02*
X168396265Y-108408371D01*
X168396265Y-108408371D02*
X168396265Y-108360752D01*
X168396265Y-108360752D02*
X168372455Y-108313133D01*
X168372455Y-108313133D02*
X168348646Y-108289323D01*
X168348646Y-108289323D02*
X168301027Y-108265514D01*
X168301027Y-108265514D02*
X168205789Y-108241704D01*
X168205789Y-108241704D02*
X168158170Y-108217895D01*
X168158170Y-108217895D02*
X168134360Y-108194085D01*
X168134360Y-108194085D02*
X168110551Y-108146466D01*
X168110551Y-108146466D02*
X168110551Y-108098847D01*
X168110551Y-108098847D02*
X168134360Y-108051228D01*
X168134360Y-108051228D02*
X168158170Y-108027419D01*
X168158170Y-108027419D02*
X168205789Y-108003609D01*
X168205789Y-108003609D02*
X168324836Y-108003609D01*
X168324836Y-108003609D02*
X168396265Y-108027419D01*
X168705788Y-108003609D02*
X168801026Y-108003609D01*
X168801026Y-108003609D02*
X168848645Y-108027419D01*
X168848645Y-108027419D02*
X168896264Y-108075038D01*
X168896264Y-108075038D02*
X168920074Y-108170276D01*
X168920074Y-108170276D02*
X168920074Y-108336942D01*
X168920074Y-108336942D02*
X168896264Y-108432180D01*
X168896264Y-108432180D02*
X168848645Y-108479800D01*
X168848645Y-108479800D02*
X168801026Y-108503609D01*
X168801026Y-108503609D02*
X168705788Y-108503609D01*
X168705788Y-108503609D02*
X168658169Y-108479800D01*
X168658169Y-108479800D02*
X168610550Y-108432180D01*
X168610550Y-108432180D02*
X168586741Y-108336942D01*
X168586741Y-108336942D02*
X168586741Y-108170276D01*
X168586741Y-108170276D02*
X168610550Y-108075038D01*
X168610550Y-108075038D02*
X168658169Y-108027419D01*
X168658169Y-108027419D02*
X168705788Y-108003609D01*
X151314836Y-108503609D02*
X151314836Y-108003609D01*
X151314836Y-108003609D02*
X151433884Y-108003609D01*
X151433884Y-108003609D02*
X151505312Y-108027419D01*
X151505312Y-108027419D02*
X151552931Y-108075038D01*
X151552931Y-108075038D02*
X151576741Y-108122657D01*
X151576741Y-108122657D02*
X151600550Y-108217895D01*
X151600550Y-108217895D02*
X151600550Y-108289323D01*
X151600550Y-108289323D02*
X151576741Y-108384561D01*
X151576741Y-108384561D02*
X151552931Y-108432180D01*
X151552931Y-108432180D02*
X151505312Y-108479800D01*
X151505312Y-108479800D02*
X151433884Y-108503609D01*
X151433884Y-108503609D02*
X151314836Y-108503609D01*
X152029122Y-108003609D02*
X151933884Y-108003609D01*
X151933884Y-108003609D02*
X151886265Y-108027419D01*
X151886265Y-108027419D02*
X151862455Y-108051228D01*
X151862455Y-108051228D02*
X151814836Y-108122657D01*
X151814836Y-108122657D02*
X151791027Y-108217895D01*
X151791027Y-108217895D02*
X151791027Y-108408371D01*
X151791027Y-108408371D02*
X151814836Y-108455990D01*
X151814836Y-108455990D02*
X151838646Y-108479800D01*
X151838646Y-108479800D02*
X151886265Y-108503609D01*
X151886265Y-108503609D02*
X151981503Y-108503609D01*
X151981503Y-108503609D02*
X152029122Y-108479800D01*
X152029122Y-108479800D02*
X152052931Y-108455990D01*
X152052931Y-108455990D02*
X152076741Y-108408371D01*
X152076741Y-108408371D02*
X152076741Y-108289323D01*
X152076741Y-108289323D02*
X152052931Y-108241704D01*
X152052931Y-108241704D02*
X152029122Y-108217895D01*
X152029122Y-108217895D02*
X151981503Y-108194085D01*
X151981503Y-108194085D02*
X151886265Y-108194085D01*
X151886265Y-108194085D02*
X151838646Y-108217895D01*
X151838646Y-108217895D02*
X151814836Y-108241704D01*
X151814836Y-108241704D02*
X151791027Y-108289323D01*
X164771027Y-81169800D02*
X164842455Y-81193609D01*
X164842455Y-81193609D02*
X164961503Y-81193609D01*
X164961503Y-81193609D02*
X165009122Y-81169800D01*
X165009122Y-81169800D02*
X165032931Y-81145990D01*
X165032931Y-81145990D02*
X165056741Y-81098371D01*
X165056741Y-81098371D02*
X165056741Y-81050752D01*
X165056741Y-81050752D02*
X165032931Y-81003133D01*
X165032931Y-81003133D02*
X165009122Y-80979323D01*
X165009122Y-80979323D02*
X164961503Y-80955514D01*
X164961503Y-80955514D02*
X164866265Y-80931704D01*
X164866265Y-80931704D02*
X164818646Y-80907895D01*
X164818646Y-80907895D02*
X164794836Y-80884085D01*
X164794836Y-80884085D02*
X164771027Y-80836466D01*
X164771027Y-80836466D02*
X164771027Y-80788847D01*
X164771027Y-80788847D02*
X164794836Y-80741228D01*
X164794836Y-80741228D02*
X164818646Y-80717419D01*
X164818646Y-80717419D02*
X164866265Y-80693609D01*
X164866265Y-80693609D02*
X164985312Y-80693609D01*
X164985312Y-80693609D02*
X165056741Y-80717419D01*
X165556740Y-81145990D02*
X165532931Y-81169800D01*
X165532931Y-81169800D02*
X165461502Y-81193609D01*
X165461502Y-81193609D02*
X165413883Y-81193609D01*
X165413883Y-81193609D02*
X165342455Y-81169800D01*
X165342455Y-81169800D02*
X165294836Y-81122180D01*
X165294836Y-81122180D02*
X165271026Y-81074561D01*
X165271026Y-81074561D02*
X165247217Y-80979323D01*
X165247217Y-80979323D02*
X165247217Y-80907895D01*
X165247217Y-80907895D02*
X165271026Y-80812657D01*
X165271026Y-80812657D02*
X165294836Y-80765038D01*
X165294836Y-80765038D02*
X165342455Y-80717419D01*
X165342455Y-80717419D02*
X165413883Y-80693609D01*
X165413883Y-80693609D02*
X165461502Y-80693609D01*
X165461502Y-80693609D02*
X165532931Y-80717419D01*
X165532931Y-80717419D02*
X165556740Y-80741228D01*
X166009121Y-81193609D02*
X165771026Y-81193609D01*
X165771026Y-81193609D02*
X165771026Y-80693609D01*
X137534836Y-108503609D02*
X137534836Y-108003609D01*
X137534836Y-108003609D02*
X137653884Y-108003609D01*
X137653884Y-108003609D02*
X137725312Y-108027419D01*
X137725312Y-108027419D02*
X137772931Y-108075038D01*
X137772931Y-108075038D02*
X137796741Y-108122657D01*
X137796741Y-108122657D02*
X137820550Y-108217895D01*
X137820550Y-108217895D02*
X137820550Y-108289323D01*
X137820550Y-108289323D02*
X137796741Y-108384561D01*
X137796741Y-108384561D02*
X137772931Y-108432180D01*
X137772931Y-108432180D02*
X137725312Y-108479800D01*
X137725312Y-108479800D02*
X137653884Y-108503609D01*
X137653884Y-108503609D02*
X137534836Y-108503609D01*
X138130074Y-108003609D02*
X138177693Y-108003609D01*
X138177693Y-108003609D02*
X138225312Y-108027419D01*
X138225312Y-108027419D02*
X138249122Y-108051228D01*
X138249122Y-108051228D02*
X138272931Y-108098847D01*
X138272931Y-108098847D02*
X138296741Y-108194085D01*
X138296741Y-108194085D02*
X138296741Y-108313133D01*
X138296741Y-108313133D02*
X138272931Y-108408371D01*
X138272931Y-108408371D02*
X138249122Y-108455990D01*
X138249122Y-108455990D02*
X138225312Y-108479800D01*
X138225312Y-108479800D02*
X138177693Y-108503609D01*
X138177693Y-108503609D02*
X138130074Y-108503609D01*
X138130074Y-108503609D02*
X138082455Y-108479800D01*
X138082455Y-108479800D02*
X138058646Y-108455990D01*
X138058646Y-108455990D02*
X138034836Y-108408371D01*
X138034836Y-108408371D02*
X138011027Y-108313133D01*
X138011027Y-108313133D02*
X138011027Y-108194085D01*
X138011027Y-108194085D02*
X138034836Y-108098847D01*
X138034836Y-108098847D02*
X138058646Y-108051228D01*
X138058646Y-108051228D02*
X138082455Y-108027419D01*
X138082455Y-108027419D02*
X138130074Y-108003609D01*
X162261027Y-108479800D02*
X162332455Y-108503609D01*
X162332455Y-108503609D02*
X162451503Y-108503609D01*
X162451503Y-108503609D02*
X162499122Y-108479800D01*
X162499122Y-108479800D02*
X162522931Y-108455990D01*
X162522931Y-108455990D02*
X162546741Y-108408371D01*
X162546741Y-108408371D02*
X162546741Y-108360752D01*
X162546741Y-108360752D02*
X162522931Y-108313133D01*
X162522931Y-108313133D02*
X162499122Y-108289323D01*
X162499122Y-108289323D02*
X162451503Y-108265514D01*
X162451503Y-108265514D02*
X162356265Y-108241704D01*
X162356265Y-108241704D02*
X162308646Y-108217895D01*
X162308646Y-108217895D02*
X162284836Y-108194085D01*
X162284836Y-108194085D02*
X162261027Y-108146466D01*
X162261027Y-108146466D02*
X162261027Y-108098847D01*
X162261027Y-108098847D02*
X162284836Y-108051228D01*
X162284836Y-108051228D02*
X162308646Y-108027419D01*
X162308646Y-108027419D02*
X162356265Y-108003609D01*
X162356265Y-108003609D02*
X162475312Y-108003609D01*
X162475312Y-108003609D02*
X162546741Y-108027419D01*
X163046740Y-108455990D02*
X163022931Y-108479800D01*
X163022931Y-108479800D02*
X162951502Y-108503609D01*
X162951502Y-108503609D02*
X162903883Y-108503609D01*
X162903883Y-108503609D02*
X162832455Y-108479800D01*
X162832455Y-108479800D02*
X162784836Y-108432180D01*
X162784836Y-108432180D02*
X162761026Y-108384561D01*
X162761026Y-108384561D02*
X162737217Y-108289323D01*
X162737217Y-108289323D02*
X162737217Y-108217895D01*
X162737217Y-108217895D02*
X162761026Y-108122657D01*
X162761026Y-108122657D02*
X162784836Y-108075038D01*
X162784836Y-108075038D02*
X162832455Y-108027419D01*
X162832455Y-108027419D02*
X162903883Y-108003609D01*
X162903883Y-108003609D02*
X162951502Y-108003609D01*
X162951502Y-108003609D02*
X163022931Y-108027419D01*
X163022931Y-108027419D02*
X163046740Y-108051228D01*
X163261026Y-108503609D02*
X163261026Y-108003609D01*
X163546740Y-108503609D02*
X163332455Y-108217895D01*
X163546740Y-108003609D02*
X163261026Y-108289323D01*
X117416741Y-80717419D02*
X117369122Y-80693609D01*
X117369122Y-80693609D02*
X117297693Y-80693609D01*
X117297693Y-80693609D02*
X117226265Y-80717419D01*
X117226265Y-80717419D02*
X117178646Y-80765038D01*
X117178646Y-80765038D02*
X117154836Y-80812657D01*
X117154836Y-80812657D02*
X117131027Y-80907895D01*
X117131027Y-80907895D02*
X117131027Y-80979323D01*
X117131027Y-80979323D02*
X117154836Y-81074561D01*
X117154836Y-81074561D02*
X117178646Y-81122180D01*
X117178646Y-81122180D02*
X117226265Y-81169800D01*
X117226265Y-81169800D02*
X117297693Y-81193609D01*
X117297693Y-81193609D02*
X117345312Y-81193609D01*
X117345312Y-81193609D02*
X117416741Y-81169800D01*
X117416741Y-81169800D02*
X117440550Y-81145990D01*
X117440550Y-81145990D02*
X117440550Y-80979323D01*
X117440550Y-80979323D02*
X117345312Y-80979323D01*
X117654836Y-81193609D02*
X117654836Y-80693609D01*
X117654836Y-80693609D02*
X117940550Y-81193609D01*
X117940550Y-81193609D02*
X117940550Y-80693609D01*
X118178646Y-81193609D02*
X118178646Y-80693609D01*
X118178646Y-80693609D02*
X118297694Y-80693609D01*
X118297694Y-80693609D02*
X118369122Y-80717419D01*
X118369122Y-80717419D02*
X118416741Y-80765038D01*
X118416741Y-80765038D02*
X118440551Y-80812657D01*
X118440551Y-80812657D02*
X118464360Y-80907895D01*
X118464360Y-80907895D02*
X118464360Y-80979323D01*
X118464360Y-80979323D02*
X118440551Y-81074561D01*
X118440551Y-81074561D02*
X118416741Y-81122180D01*
X118416741Y-81122180D02*
X118369122Y-81169800D01*
X118369122Y-81169800D02*
X118297694Y-81193609D01*
X118297694Y-81193609D02*
X118178646Y-81193609D01*
X162516741Y-80717419D02*
X162469122Y-80693609D01*
X162469122Y-80693609D02*
X162397693Y-80693609D01*
X162397693Y-80693609D02*
X162326265Y-80717419D01*
X162326265Y-80717419D02*
X162278646Y-80765038D01*
X162278646Y-80765038D02*
X162254836Y-80812657D01*
X162254836Y-80812657D02*
X162231027Y-80907895D01*
X162231027Y-80907895D02*
X162231027Y-80979323D01*
X162231027Y-80979323D02*
X162254836Y-81074561D01*
X162254836Y-81074561D02*
X162278646Y-81122180D01*
X162278646Y-81122180D02*
X162326265Y-81169800D01*
X162326265Y-81169800D02*
X162397693Y-81193609D01*
X162397693Y-81193609D02*
X162445312Y-81193609D01*
X162445312Y-81193609D02*
X162516741Y-81169800D01*
X162516741Y-81169800D02*
X162540550Y-81145990D01*
X162540550Y-81145990D02*
X162540550Y-80979323D01*
X162540550Y-80979323D02*
X162445312Y-80979323D01*
X162754836Y-81193609D02*
X162754836Y-80693609D01*
X162754836Y-80693609D02*
X163040550Y-81193609D01*
X163040550Y-81193609D02*
X163040550Y-80693609D01*
X163278646Y-81193609D02*
X163278646Y-80693609D01*
X163278646Y-80693609D02*
X163397694Y-80693609D01*
X163397694Y-80693609D02*
X163469122Y-80717419D01*
X163469122Y-80717419D02*
X163516741Y-80765038D01*
X163516741Y-80765038D02*
X163540551Y-80812657D01*
X163540551Y-80812657D02*
X163564360Y-80907895D01*
X163564360Y-80907895D02*
X163564360Y-80979323D01*
X163564360Y-80979323D02*
X163540551Y-81074561D01*
X163540551Y-81074561D02*
X163516741Y-81122180D01*
X163516741Y-81122180D02*
X163469122Y-81169800D01*
X163469122Y-81169800D02*
X163397694Y-81193609D01*
X163397694Y-81193609D02*
X163278646Y-81193609D01*
X122802931Y-80693609D02*
X122564836Y-80693609D01*
X122564836Y-80693609D02*
X122541027Y-80931704D01*
X122541027Y-80931704D02*
X122564836Y-80907895D01*
X122564836Y-80907895D02*
X122612455Y-80884085D01*
X122612455Y-80884085D02*
X122731503Y-80884085D01*
X122731503Y-80884085D02*
X122779122Y-80907895D01*
X122779122Y-80907895D02*
X122802931Y-80931704D01*
X122802931Y-80931704D02*
X122826741Y-80979323D01*
X122826741Y-80979323D02*
X122826741Y-81098371D01*
X122826741Y-81098371D02*
X122802931Y-81145990D01*
X122802931Y-81145990D02*
X122779122Y-81169800D01*
X122779122Y-81169800D02*
X122731503Y-81193609D01*
X122731503Y-81193609D02*
X122612455Y-81193609D01*
X122612455Y-81193609D02*
X122564836Y-81169800D01*
X122564836Y-81169800D02*
X122541027Y-81145990D01*
X122969598Y-80693609D02*
X123136264Y-81193609D01*
X123136264Y-81193609D02*
X123302931Y-80693609D01*
X124547217Y-108003609D02*
X124880550Y-108503609D01*
X124880550Y-108003609D02*
X124547217Y-108503609D01*
X125071026Y-108503609D02*
X125071026Y-108003609D01*
X125071026Y-108003609D02*
X125190074Y-108003609D01*
X125190074Y-108003609D02*
X125261502Y-108027419D01*
X125261502Y-108027419D02*
X125309121Y-108075038D01*
X125309121Y-108075038D02*
X125332931Y-108122657D01*
X125332931Y-108122657D02*
X125356740Y-108217895D01*
X125356740Y-108217895D02*
X125356740Y-108289323D01*
X125356740Y-108289323D02*
X125332931Y-108384561D01*
X125332931Y-108384561D02*
X125309121Y-108432180D01*
X125309121Y-108432180D02*
X125261502Y-108479800D01*
X125261502Y-108479800D02*
X125190074Y-108503609D01*
X125190074Y-108503609D02*
X125071026Y-108503609D01*
X125571026Y-108503609D02*
X125571026Y-108003609D01*
X126094835Y-108503609D02*
X125928169Y-108265514D01*
X125809121Y-108503609D02*
X125809121Y-108003609D01*
X125809121Y-108003609D02*
X125999597Y-108003609D01*
X125999597Y-108003609D02*
X126047216Y-108027419D01*
X126047216Y-108027419D02*
X126071026Y-108051228D01*
X126071026Y-108051228D02*
X126094835Y-108098847D01*
X126094835Y-108098847D02*
X126094835Y-108170276D01*
X126094835Y-108170276D02*
X126071026Y-108217895D01*
X126071026Y-108217895D02*
X126047216Y-108241704D01*
X126047216Y-108241704D02*
X125999597Y-108265514D01*
X125999597Y-108265514D02*
X125809121Y-108265514D01*
X145164836Y-108503609D02*
X145164836Y-108003609D01*
X145164836Y-108003609D02*
X145283884Y-108003609D01*
X145283884Y-108003609D02*
X145355312Y-108027419D01*
X145355312Y-108027419D02*
X145402931Y-108075038D01*
X145402931Y-108075038D02*
X145426741Y-108122657D01*
X145426741Y-108122657D02*
X145450550Y-108217895D01*
X145450550Y-108217895D02*
X145450550Y-108289323D01*
X145450550Y-108289323D02*
X145426741Y-108384561D01*
X145426741Y-108384561D02*
X145402931Y-108432180D01*
X145402931Y-108432180D02*
X145355312Y-108479800D01*
X145355312Y-108479800D02*
X145283884Y-108503609D01*
X145283884Y-108503609D02*
X145164836Y-108503609D01*
X145617217Y-108003609D02*
X145926741Y-108003609D01*
X145926741Y-108003609D02*
X145760074Y-108194085D01*
X145760074Y-108194085D02*
X145831503Y-108194085D01*
X145831503Y-108194085D02*
X145879122Y-108217895D01*
X145879122Y-108217895D02*
X145902931Y-108241704D01*
X145902931Y-108241704D02*
X145926741Y-108289323D01*
X145926741Y-108289323D02*
X145926741Y-108408371D01*
X145926741Y-108408371D02*
X145902931Y-108455990D01*
X145902931Y-108455990D02*
X145879122Y-108479800D01*
X145879122Y-108479800D02*
X145831503Y-108503609D01*
X145831503Y-108503609D02*
X145688646Y-108503609D01*
X145688646Y-108503609D02*
X145641027Y-108479800D01*
X145641027Y-108479800D02*
X145617217Y-108455990D01*
X120060550Y-108493609D02*
X119893884Y-108255514D01*
X119774836Y-108493609D02*
X119774836Y-107993609D01*
X119774836Y-107993609D02*
X119965312Y-107993609D01*
X119965312Y-107993609D02*
X120012931Y-108017419D01*
X120012931Y-108017419D02*
X120036741Y-108041228D01*
X120036741Y-108041228D02*
X120060550Y-108088847D01*
X120060550Y-108088847D02*
X120060550Y-108160276D01*
X120060550Y-108160276D02*
X120036741Y-108207895D01*
X120036741Y-108207895D02*
X120012931Y-108231704D01*
X120012931Y-108231704D02*
X119965312Y-108255514D01*
X119965312Y-108255514D02*
X119774836Y-108255514D01*
X120227217Y-108493609D02*
X120489122Y-108160276D01*
X120227217Y-108160276D02*
X120489122Y-108493609D01*
X120679598Y-108493609D02*
X120679598Y-107993609D01*
X120679598Y-107993609D02*
X120798646Y-107993609D01*
X120798646Y-107993609D02*
X120870074Y-108017419D01*
X120870074Y-108017419D02*
X120917693Y-108065038D01*
X120917693Y-108065038D02*
X120941503Y-108112657D01*
X120941503Y-108112657D02*
X120965312Y-108207895D01*
X120965312Y-108207895D02*
X120965312Y-108279323D01*
X120965312Y-108279323D02*
X120941503Y-108374561D01*
X120941503Y-108374561D02*
X120917693Y-108422180D01*
X120917693Y-108422180D02*
X120870074Y-108469800D01*
X120870074Y-108469800D02*
X120798646Y-108493609D01*
X120798646Y-108493609D02*
X120679598Y-108493609D01*
X153854836Y-108503609D02*
X153854836Y-108003609D01*
X153854836Y-108003609D02*
X153973884Y-108003609D01*
X153973884Y-108003609D02*
X154045312Y-108027419D01*
X154045312Y-108027419D02*
X154092931Y-108075038D01*
X154092931Y-108075038D02*
X154116741Y-108122657D01*
X154116741Y-108122657D02*
X154140550Y-108217895D01*
X154140550Y-108217895D02*
X154140550Y-108289323D01*
X154140550Y-108289323D02*
X154116741Y-108384561D01*
X154116741Y-108384561D02*
X154092931Y-108432180D01*
X154092931Y-108432180D02*
X154045312Y-108479800D01*
X154045312Y-108479800D02*
X153973884Y-108503609D01*
X153973884Y-108503609D02*
X153854836Y-108503609D01*
X154592931Y-108003609D02*
X154354836Y-108003609D01*
X154354836Y-108003609D02*
X154331027Y-108241704D01*
X154331027Y-108241704D02*
X154354836Y-108217895D01*
X154354836Y-108217895D02*
X154402455Y-108194085D01*
X154402455Y-108194085D02*
X154521503Y-108194085D01*
X154521503Y-108194085D02*
X154569122Y-108217895D01*
X154569122Y-108217895D02*
X154592931Y-108241704D01*
X154592931Y-108241704D02*
X154616741Y-108289323D01*
X154616741Y-108289323D02*
X154616741Y-108408371D01*
X154616741Y-108408371D02*
X154592931Y-108455990D01*
X154592931Y-108455990D02*
X154569122Y-108479800D01*
X154569122Y-108479800D02*
X154521503Y-108503609D01*
X154521503Y-108503609D02*
X154402455Y-108503609D01*
X154402455Y-108503609D02*
X154354836Y-108479800D01*
X154354836Y-108479800D02*
X154331027Y-108455990D01*
X122217217Y-108003609D02*
X122550550Y-108503609D01*
X122550550Y-108003609D02*
X122217217Y-108503609D01*
X123026740Y-108455990D02*
X123002931Y-108479800D01*
X123002931Y-108479800D02*
X122931502Y-108503609D01*
X122931502Y-108503609D02*
X122883883Y-108503609D01*
X122883883Y-108503609D02*
X122812455Y-108479800D01*
X122812455Y-108479800D02*
X122764836Y-108432180D01*
X122764836Y-108432180D02*
X122741026Y-108384561D01*
X122741026Y-108384561D02*
X122717217Y-108289323D01*
X122717217Y-108289323D02*
X122717217Y-108217895D01*
X122717217Y-108217895D02*
X122741026Y-108122657D01*
X122741026Y-108122657D02*
X122764836Y-108075038D01*
X122764836Y-108075038D02*
X122812455Y-108027419D01*
X122812455Y-108027419D02*
X122883883Y-108003609D01*
X122883883Y-108003609D02*
X122931502Y-108003609D01*
X122931502Y-108003609D02*
X123002931Y-108027419D01*
X123002931Y-108027419D02*
X123026740Y-108051228D01*
X123241026Y-108503609D02*
X123241026Y-108003609D01*
X123526740Y-108503609D02*
X123312455Y-108217895D01*
X123526740Y-108003609D02*
X123241026Y-108289323D01*
X140340550Y-81145990D02*
X140316741Y-81169800D01*
X140316741Y-81169800D02*
X140245312Y-81193609D01*
X140245312Y-81193609D02*
X140197693Y-81193609D01*
X140197693Y-81193609D02*
X140126265Y-81169800D01*
X140126265Y-81169800D02*
X140078646Y-81122180D01*
X140078646Y-81122180D02*
X140054836Y-81074561D01*
X140054836Y-81074561D02*
X140031027Y-80979323D01*
X140031027Y-80979323D02*
X140031027Y-80907895D01*
X140031027Y-80907895D02*
X140054836Y-80812657D01*
X140054836Y-80812657D02*
X140078646Y-80765038D01*
X140078646Y-80765038D02*
X140126265Y-80717419D01*
X140126265Y-80717419D02*
X140197693Y-80693609D01*
X140197693Y-80693609D02*
X140245312Y-80693609D01*
X140245312Y-80693609D02*
X140316741Y-80717419D01*
X140316741Y-80717419D02*
X140340550Y-80741228D01*
X140650074Y-80693609D02*
X140697693Y-80693609D01*
X140697693Y-80693609D02*
X140745312Y-80717419D01*
X140745312Y-80717419D02*
X140769122Y-80741228D01*
X140769122Y-80741228D02*
X140792931Y-80788847D01*
X140792931Y-80788847D02*
X140816741Y-80884085D01*
X140816741Y-80884085D02*
X140816741Y-81003133D01*
X140816741Y-81003133D02*
X140792931Y-81098371D01*
X140792931Y-81098371D02*
X140769122Y-81145990D01*
X140769122Y-81145990D02*
X140745312Y-81169800D01*
X140745312Y-81169800D02*
X140697693Y-81193609D01*
X140697693Y-81193609D02*
X140650074Y-81193609D01*
X140650074Y-81193609D02*
X140602455Y-81169800D01*
X140602455Y-81169800D02*
X140578646Y-81145990D01*
X140578646Y-81145990D02*
X140554836Y-81098371D01*
X140554836Y-81098371D02*
X140531027Y-81003133D01*
X140531027Y-81003133D02*
X140531027Y-80884085D01*
X140531027Y-80884085D02*
X140554836Y-80788847D01*
X140554836Y-80788847D02*
X140578646Y-80741228D01*
X140578646Y-80741228D02*
X140602455Y-80717419D01*
X140602455Y-80717419D02*
X140650074Y-80693609D01*
X153354836Y-80703609D02*
X153354836Y-81108371D01*
X153354836Y-81108371D02*
X153378646Y-81155990D01*
X153378646Y-81155990D02*
X153402455Y-81179800D01*
X153402455Y-81179800D02*
X153450074Y-81203609D01*
X153450074Y-81203609D02*
X153545312Y-81203609D01*
X153545312Y-81203609D02*
X153592931Y-81179800D01*
X153592931Y-81179800D02*
X153616741Y-81155990D01*
X153616741Y-81155990D02*
X153640550Y-81108371D01*
X153640550Y-81108371D02*
X153640550Y-80703609D01*
X153878646Y-81203609D02*
X153878646Y-80703609D01*
X153878646Y-80703609D02*
X154069122Y-80703609D01*
X154069122Y-80703609D02*
X154116741Y-80727419D01*
X154116741Y-80727419D02*
X154140551Y-80751228D01*
X154140551Y-80751228D02*
X154164360Y-80798847D01*
X154164360Y-80798847D02*
X154164360Y-80870276D01*
X154164360Y-80870276D02*
X154140551Y-80917895D01*
X154140551Y-80917895D02*
X154116741Y-80941704D01*
X154116741Y-80941704D02*
X154069122Y-80965514D01*
X154069122Y-80965514D02*
X153878646Y-80965514D01*
X154378646Y-81203609D02*
X154378646Y-80703609D01*
X154378646Y-80703609D02*
X154497694Y-80703609D01*
X154497694Y-80703609D02*
X154569122Y-80727419D01*
X154569122Y-80727419D02*
X154616741Y-80775038D01*
X154616741Y-80775038D02*
X154640551Y-80822657D01*
X154640551Y-80822657D02*
X154664360Y-80917895D01*
X154664360Y-80917895D02*
X154664360Y-80989323D01*
X154664360Y-80989323D02*
X154640551Y-81084561D01*
X154640551Y-81084561D02*
X154616741Y-81132180D01*
X154616741Y-81132180D02*
X154569122Y-81179800D01*
X154569122Y-81179800D02*
X154497694Y-81203609D01*
X154497694Y-81203609D02*
X154378646Y-81203609D01*
X154878646Y-81203609D02*
X154878646Y-80703609D01*
X117273408Y-107993609D02*
X117559122Y-107993609D01*
X117416265Y-108493609D02*
X117416265Y-107993609D01*
X117678169Y-108493609D02*
X117940074Y-108160276D01*
X117678169Y-108160276D02*
X117940074Y-108493609D01*
X118130550Y-108493609D02*
X118130550Y-107993609D01*
X118130550Y-107993609D02*
X118249598Y-107993609D01*
X118249598Y-107993609D02*
X118321026Y-108017419D01*
X118321026Y-108017419D02*
X118368645Y-108065038D01*
X118368645Y-108065038D02*
X118392455Y-108112657D01*
X118392455Y-108112657D02*
X118416264Y-108207895D01*
X118416264Y-108207895D02*
X118416264Y-108279323D01*
X118416264Y-108279323D02*
X118392455Y-108374561D01*
X118392455Y-108374561D02*
X118368645Y-108422180D01*
X118368645Y-108422180D02*
X118321026Y-108469800D01*
X118321026Y-108469800D02*
X118249598Y-108493609D01*
X118249598Y-108493609D02*
X118130550Y-108493609D01*
X119916741Y-80717419D02*
X119869122Y-80693609D01*
X119869122Y-80693609D02*
X119797693Y-80693609D01*
X119797693Y-80693609D02*
X119726265Y-80717419D01*
X119726265Y-80717419D02*
X119678646Y-80765038D01*
X119678646Y-80765038D02*
X119654836Y-80812657D01*
X119654836Y-80812657D02*
X119631027Y-80907895D01*
X119631027Y-80907895D02*
X119631027Y-80979323D01*
X119631027Y-80979323D02*
X119654836Y-81074561D01*
X119654836Y-81074561D02*
X119678646Y-81122180D01*
X119678646Y-81122180D02*
X119726265Y-81169800D01*
X119726265Y-81169800D02*
X119797693Y-81193609D01*
X119797693Y-81193609D02*
X119845312Y-81193609D01*
X119845312Y-81193609D02*
X119916741Y-81169800D01*
X119916741Y-81169800D02*
X119940550Y-81145990D01*
X119940550Y-81145990D02*
X119940550Y-80979323D01*
X119940550Y-80979323D02*
X119845312Y-80979323D01*
X120154836Y-81193609D02*
X120154836Y-80693609D01*
X120154836Y-80693609D02*
X120440550Y-81193609D01*
X120440550Y-81193609D02*
X120440550Y-80693609D01*
X120678646Y-81193609D02*
X120678646Y-80693609D01*
X120678646Y-80693609D02*
X120797694Y-80693609D01*
X120797694Y-80693609D02*
X120869122Y-80717419D01*
X120869122Y-80717419D02*
X120916741Y-80765038D01*
X120916741Y-80765038D02*
X120940551Y-80812657D01*
X120940551Y-80812657D02*
X120964360Y-80907895D01*
X120964360Y-80907895D02*
X120964360Y-80979323D01*
X120964360Y-80979323D02*
X120940551Y-81074561D01*
X120940551Y-81074561D02*
X120916741Y-81122180D01*
X120916741Y-81122180D02*
X120869122Y-81169800D01*
X120869122Y-81169800D02*
X120797694Y-81193609D01*
X120797694Y-81193609D02*
X120678646Y-81193609D01*
X156217217Y-80703609D02*
X156526741Y-80703609D01*
X156526741Y-80703609D02*
X156360074Y-80894085D01*
X156360074Y-80894085D02*
X156431503Y-80894085D01*
X156431503Y-80894085D02*
X156479122Y-80917895D01*
X156479122Y-80917895D02*
X156502931Y-80941704D01*
X156502931Y-80941704D02*
X156526741Y-80989323D01*
X156526741Y-80989323D02*
X156526741Y-81108371D01*
X156526741Y-81108371D02*
X156502931Y-81155990D01*
X156502931Y-81155990D02*
X156479122Y-81179800D01*
X156479122Y-81179800D02*
X156431503Y-81203609D01*
X156431503Y-81203609D02*
X156288646Y-81203609D01*
X156288646Y-81203609D02*
X156241027Y-81179800D01*
X156241027Y-81179800D02*
X156217217Y-81155990D01*
X156741026Y-81155990D02*
X156764836Y-81179800D01*
X156764836Y-81179800D02*
X156741026Y-81203609D01*
X156741026Y-81203609D02*
X156717217Y-81179800D01*
X156717217Y-81179800D02*
X156741026Y-81155990D01*
X156741026Y-81155990D02*
X156741026Y-81203609D01*
X156931502Y-80703609D02*
X157241026Y-80703609D01*
X157241026Y-80703609D02*
X157074359Y-80894085D01*
X157074359Y-80894085D02*
X157145788Y-80894085D01*
X157145788Y-80894085D02*
X157193407Y-80917895D01*
X157193407Y-80917895D02*
X157217216Y-80941704D01*
X157217216Y-80941704D02*
X157241026Y-80989323D01*
X157241026Y-80989323D02*
X157241026Y-81108371D01*
X157241026Y-81108371D02*
X157217216Y-81155990D01*
X157217216Y-81155990D02*
X157193407Y-81179800D01*
X157193407Y-81179800D02*
X157145788Y-81203609D01*
X157145788Y-81203609D02*
X157002931Y-81203609D01*
X157002931Y-81203609D02*
X156955312Y-81179800D01*
X156955312Y-81179800D02*
X156931502Y-81155990D01*
X157383883Y-80703609D02*
X157550549Y-81203609D01*
X157550549Y-81203609D02*
X157717216Y-80703609D01*
D11*
X113915488Y-103896887D02*
X113965488Y-103496887D01*
X113965488Y-103496887D02*
X114060726Y-103496887D01*
X114060726Y-103496887D02*
X114115488Y-103515935D01*
X114115488Y-103515935D02*
X114148821Y-103554030D01*
X114148821Y-103554030D02*
X114163107Y-103592125D01*
X114163107Y-103592125D02*
X114172631Y-103668316D01*
X114172631Y-103668316D02*
X114165488Y-103725459D01*
X114165488Y-103725459D02*
X114136916Y-103801649D01*
X114136916Y-103801649D02*
X114113107Y-103839744D01*
X114113107Y-103839744D02*
X114070250Y-103877840D01*
X114070250Y-103877840D02*
X114010726Y-103896887D01*
X114010726Y-103896887D02*
X113915488Y-103896887D01*
X114470250Y-103877840D02*
X114429773Y-103896887D01*
X114429773Y-103896887D02*
X114353583Y-103896887D01*
X114353583Y-103896887D02*
X114317869Y-103877840D01*
X114317869Y-103877840D02*
X114303583Y-103839744D01*
X114303583Y-103839744D02*
X114322631Y-103687363D01*
X114322631Y-103687363D02*
X114346440Y-103649268D01*
X114346440Y-103649268D02*
X114386916Y-103630220D01*
X114386916Y-103630220D02*
X114463107Y-103630220D01*
X114463107Y-103630220D02*
X114498821Y-103649268D01*
X114498821Y-103649268D02*
X114513107Y-103687363D01*
X114513107Y-103687363D02*
X114508345Y-103725459D01*
X114508345Y-103725459D02*
X114313107Y-103763554D01*
X114641678Y-103877840D02*
X114677392Y-103896887D01*
X114677392Y-103896887D02*
X114753583Y-103896887D01*
X114753583Y-103896887D02*
X114794059Y-103877840D01*
X114794059Y-103877840D02*
X114817868Y-103839744D01*
X114817868Y-103839744D02*
X114820249Y-103820697D01*
X114820249Y-103820697D02*
X114805964Y-103782601D01*
X114805964Y-103782601D02*
X114770249Y-103763554D01*
X114770249Y-103763554D02*
X114713107Y-103763554D01*
X114713107Y-103763554D02*
X114677392Y-103744506D01*
X114677392Y-103744506D02*
X114663107Y-103706411D01*
X114663107Y-103706411D02*
X114665488Y-103687363D01*
X114665488Y-103687363D02*
X114689297Y-103649268D01*
X114689297Y-103649268D02*
X114729773Y-103630220D01*
X114729773Y-103630220D02*
X114786916Y-103630220D01*
X114786916Y-103630220D02*
X114822630Y-103649268D01*
X114982155Y-103896887D02*
X115015488Y-103630220D01*
X115032155Y-103496887D02*
X115010726Y-103515935D01*
X115010726Y-103515935D02*
X115027393Y-103534982D01*
X115027393Y-103534982D02*
X115048821Y-103515935D01*
X115048821Y-103515935D02*
X115032155Y-103496887D01*
X115032155Y-103496887D02*
X115027393Y-103534982D01*
X115377393Y-103630220D02*
X115336916Y-103954030D01*
X115336916Y-103954030D02*
X115313107Y-103992125D01*
X115313107Y-103992125D02*
X115291678Y-104011173D01*
X115291678Y-104011173D02*
X115251202Y-104030220D01*
X115251202Y-104030220D02*
X115194059Y-104030220D01*
X115194059Y-104030220D02*
X115158345Y-104011173D01*
X115346440Y-103877840D02*
X115305964Y-103896887D01*
X115305964Y-103896887D02*
X115229774Y-103896887D01*
X115229774Y-103896887D02*
X115194059Y-103877840D01*
X115194059Y-103877840D02*
X115177393Y-103858792D01*
X115177393Y-103858792D02*
X115163107Y-103820697D01*
X115163107Y-103820697D02*
X115177393Y-103706411D01*
X115177393Y-103706411D02*
X115201202Y-103668316D01*
X115201202Y-103668316D02*
X115222631Y-103649268D01*
X115222631Y-103649268D02*
X115263107Y-103630220D01*
X115263107Y-103630220D02*
X115339297Y-103630220D01*
X115339297Y-103630220D02*
X115375012Y-103649268D01*
X115567869Y-103630220D02*
X115534536Y-103896887D01*
X115563107Y-103668316D02*
X115584536Y-103649268D01*
X115584536Y-103649268D02*
X115625012Y-103630220D01*
X115625012Y-103630220D02*
X115682155Y-103630220D01*
X115682155Y-103630220D02*
X115717869Y-103649268D01*
X115717869Y-103649268D02*
X115732155Y-103687363D01*
X115732155Y-103687363D02*
X115705964Y-103896887D01*
X116051203Y-103877840D02*
X116010726Y-103896887D01*
X116010726Y-103896887D02*
X115934536Y-103896887D01*
X115934536Y-103896887D02*
X115898822Y-103877840D01*
X115898822Y-103877840D02*
X115884536Y-103839744D01*
X115884536Y-103839744D02*
X115903584Y-103687363D01*
X115903584Y-103687363D02*
X115927393Y-103649268D01*
X115927393Y-103649268D02*
X115967869Y-103630220D01*
X115967869Y-103630220D02*
X116044060Y-103630220D01*
X116044060Y-103630220D02*
X116079774Y-103649268D01*
X116079774Y-103649268D02*
X116094060Y-103687363D01*
X116094060Y-103687363D02*
X116089298Y-103725459D01*
X116089298Y-103725459D02*
X115894060Y-103763554D01*
X116410726Y-103896887D02*
X116460726Y-103496887D01*
X116413107Y-103877840D02*
X116372631Y-103896887D01*
X116372631Y-103896887D02*
X116296441Y-103896887D01*
X116296441Y-103896887D02*
X116260726Y-103877840D01*
X116260726Y-103877840D02*
X116244060Y-103858792D01*
X116244060Y-103858792D02*
X116229774Y-103820697D01*
X116229774Y-103820697D02*
X116244060Y-103706411D01*
X116244060Y-103706411D02*
X116267869Y-103668316D01*
X116267869Y-103668316D02*
X116289298Y-103649268D01*
X116289298Y-103649268D02*
X116329774Y-103630220D01*
X116329774Y-103630220D02*
X116405964Y-103630220D01*
X116405964Y-103630220D02*
X116441679Y-103649268D01*
X116905965Y-103896887D02*
X116955965Y-103496887D01*
X116936917Y-103649268D02*
X116977393Y-103630220D01*
X116977393Y-103630220D02*
X117053584Y-103630220D01*
X117053584Y-103630220D02*
X117089298Y-103649268D01*
X117089298Y-103649268D02*
X117105965Y-103668316D01*
X117105965Y-103668316D02*
X117120250Y-103706411D01*
X117120250Y-103706411D02*
X117105965Y-103820697D01*
X117105965Y-103820697D02*
X117082155Y-103858792D01*
X117082155Y-103858792D02*
X117060727Y-103877840D01*
X117060727Y-103877840D02*
X117020250Y-103896887D01*
X117020250Y-103896887D02*
X116944060Y-103896887D01*
X116944060Y-103896887D02*
X116908346Y-103877840D01*
X117263108Y-103630220D02*
X117325013Y-103896887D01*
X117453584Y-103630220D02*
X117325013Y-103896887D01*
X117325013Y-103896887D02*
X117275013Y-103992125D01*
X117275013Y-103992125D02*
X117253584Y-104011173D01*
X117253584Y-104011173D02*
X117213108Y-104030220D01*
X117877394Y-103896887D02*
X117927394Y-103496887D01*
X117927394Y-103496887D02*
X118105965Y-103896887D01*
X118105965Y-103896887D02*
X118155965Y-103496887D01*
X118296442Y-103896887D02*
X118329775Y-103630220D01*
X118346442Y-103496887D02*
X118325013Y-103515935D01*
X118325013Y-103515935D02*
X118341680Y-103534982D01*
X118341680Y-103534982D02*
X118363108Y-103515935D01*
X118363108Y-103515935D02*
X118346442Y-103496887D01*
X118346442Y-103496887D02*
X118341680Y-103534982D01*
X118486918Y-103896887D02*
X118536918Y-103496887D01*
X118544061Y-103744506D02*
X118639299Y-103896887D01*
X118672632Y-103630220D02*
X118501203Y-103782601D01*
X118867871Y-103896887D02*
X118832156Y-103877840D01*
X118832156Y-103877840D02*
X118815490Y-103858792D01*
X118815490Y-103858792D02*
X118801204Y-103820697D01*
X118801204Y-103820697D02*
X118815490Y-103706411D01*
X118815490Y-103706411D02*
X118839299Y-103668316D01*
X118839299Y-103668316D02*
X118860728Y-103649268D01*
X118860728Y-103649268D02*
X118901204Y-103630220D01*
X118901204Y-103630220D02*
X118958347Y-103630220D01*
X118958347Y-103630220D02*
X118994061Y-103649268D01*
X118994061Y-103649268D02*
X119010728Y-103668316D01*
X119010728Y-103668316D02*
X119025013Y-103706411D01*
X119025013Y-103706411D02*
X119010728Y-103820697D01*
X119010728Y-103820697D02*
X118986918Y-103858792D01*
X118986918Y-103858792D02*
X118965490Y-103877840D01*
X118965490Y-103877840D02*
X118925013Y-103896887D01*
X118925013Y-103896887D02*
X118867871Y-103896887D01*
X119229776Y-103896887D02*
X119194061Y-103877840D01*
X119194061Y-103877840D02*
X119179776Y-103839744D01*
X119179776Y-103839744D02*
X119222633Y-103496887D01*
X119553585Y-103896887D02*
X119579776Y-103687363D01*
X119579776Y-103687363D02*
X119565490Y-103649268D01*
X119565490Y-103649268D02*
X119529776Y-103630220D01*
X119529776Y-103630220D02*
X119453585Y-103630220D01*
X119453585Y-103630220D02*
X119413109Y-103649268D01*
X119555966Y-103877840D02*
X119515490Y-103896887D01*
X119515490Y-103896887D02*
X119420252Y-103896887D01*
X119420252Y-103896887D02*
X119384538Y-103877840D01*
X119384538Y-103877840D02*
X119370252Y-103839744D01*
X119370252Y-103839744D02*
X119375014Y-103801649D01*
X119375014Y-103801649D02*
X119398823Y-103763554D01*
X119398823Y-103763554D02*
X119439300Y-103744506D01*
X119439300Y-103744506D02*
X119534538Y-103744506D01*
X119534538Y-103744506D02*
X119575014Y-103725459D01*
X119801205Y-103896887D02*
X119765490Y-103877840D01*
X119765490Y-103877840D02*
X119748824Y-103858792D01*
X119748824Y-103858792D02*
X119734538Y-103820697D01*
X119734538Y-103820697D02*
X119748824Y-103706411D01*
X119748824Y-103706411D02*
X119772633Y-103668316D01*
X119772633Y-103668316D02*
X119794062Y-103649268D01*
X119794062Y-103649268D02*
X119834538Y-103630220D01*
X119834538Y-103630220D02*
X119891681Y-103630220D01*
X119891681Y-103630220D02*
X119927395Y-103649268D01*
X119927395Y-103649268D02*
X119944062Y-103668316D01*
X119944062Y-103668316D02*
X119958347Y-103706411D01*
X119958347Y-103706411D02*
X119944062Y-103820697D01*
X119944062Y-103820697D02*
X119920252Y-103858792D01*
X119920252Y-103858792D02*
X119898824Y-103877840D01*
X119898824Y-103877840D02*
X119858347Y-103896887D01*
X119858347Y-103896887D02*
X119801205Y-103896887D01*
X120089300Y-103877840D02*
X120125014Y-103896887D01*
X120125014Y-103896887D02*
X120201205Y-103896887D01*
X120201205Y-103896887D02*
X120241681Y-103877840D01*
X120241681Y-103877840D02*
X120265490Y-103839744D01*
X120265490Y-103839744D02*
X120267871Y-103820697D01*
X120267871Y-103820697D02*
X120253586Y-103782601D01*
X120253586Y-103782601D02*
X120217871Y-103763554D01*
X120217871Y-103763554D02*
X120160729Y-103763554D01*
X120160729Y-103763554D02*
X120125014Y-103744506D01*
X120125014Y-103744506D02*
X120110729Y-103706411D01*
X120110729Y-103706411D02*
X120113110Y-103687363D01*
X120113110Y-103687363D02*
X120136919Y-103649268D01*
X120136919Y-103649268D02*
X120177395Y-103630220D01*
X120177395Y-103630220D02*
X120234538Y-103630220D01*
X120234538Y-103630220D02*
X120270252Y-103649268D01*
X120734539Y-103896887D02*
X120784539Y-103496887D01*
X120908348Y-103877840D02*
X120944062Y-103896887D01*
X120944062Y-103896887D02*
X121020253Y-103896887D01*
X121020253Y-103896887D02*
X121060729Y-103877840D01*
X121060729Y-103877840D02*
X121084538Y-103839744D01*
X121084538Y-103839744D02*
X121086919Y-103820697D01*
X121086919Y-103820697D02*
X121072634Y-103782601D01*
X121072634Y-103782601D02*
X121036919Y-103763554D01*
X121036919Y-103763554D02*
X120979777Y-103763554D01*
X120979777Y-103763554D02*
X120944062Y-103744506D01*
X120944062Y-103744506D02*
X120929777Y-103706411D01*
X120929777Y-103706411D02*
X120932158Y-103687363D01*
X120932158Y-103687363D02*
X120955967Y-103649268D01*
X120955967Y-103649268D02*
X120996443Y-103630220D01*
X120996443Y-103630220D02*
X121053586Y-103630220D01*
X121053586Y-103630220D02*
X121089300Y-103649268D01*
X121420253Y-103896887D02*
X121446444Y-103687363D01*
X121446444Y-103687363D02*
X121432158Y-103649268D01*
X121432158Y-103649268D02*
X121396444Y-103630220D01*
X121396444Y-103630220D02*
X121320253Y-103630220D01*
X121320253Y-103630220D02*
X121279777Y-103649268D01*
X121422634Y-103877840D02*
X121382158Y-103896887D01*
X121382158Y-103896887D02*
X121286920Y-103896887D01*
X121286920Y-103896887D02*
X121251206Y-103877840D01*
X121251206Y-103877840D02*
X121236920Y-103839744D01*
X121236920Y-103839744D02*
X121241682Y-103801649D01*
X121241682Y-103801649D02*
X121265491Y-103763554D01*
X121265491Y-103763554D02*
X121305968Y-103744506D01*
X121305968Y-103744506D02*
X121401206Y-103744506D01*
X121401206Y-103744506D02*
X121441682Y-103725459D01*
X121782158Y-103896887D02*
X121808349Y-103687363D01*
X121808349Y-103687363D02*
X121794063Y-103649268D01*
X121794063Y-103649268D02*
X121758349Y-103630220D01*
X121758349Y-103630220D02*
X121682158Y-103630220D01*
X121682158Y-103630220D02*
X121641682Y-103649268D01*
X121784539Y-103877840D02*
X121744063Y-103896887D01*
X121744063Y-103896887D02*
X121648825Y-103896887D01*
X121648825Y-103896887D02*
X121613111Y-103877840D01*
X121613111Y-103877840D02*
X121598825Y-103839744D01*
X121598825Y-103839744D02*
X121603587Y-103801649D01*
X121603587Y-103801649D02*
X121627396Y-103763554D01*
X121627396Y-103763554D02*
X121667873Y-103744506D01*
X121667873Y-103744506D02*
X121763111Y-103744506D01*
X121763111Y-103744506D02*
X121803587Y-103725459D01*
X121972635Y-103896887D02*
X122022635Y-103496887D01*
X122029778Y-103744506D02*
X122125016Y-103896887D01*
X122158349Y-103630220D02*
X121986920Y-103782601D01*
X122760730Y-103687363D02*
X122815492Y-103706411D01*
X122815492Y-103706411D02*
X122832159Y-103725459D01*
X122832159Y-103725459D02*
X122846445Y-103763554D01*
X122846445Y-103763554D02*
X122839302Y-103820697D01*
X122839302Y-103820697D02*
X122815492Y-103858792D01*
X122815492Y-103858792D02*
X122794064Y-103877840D01*
X122794064Y-103877840D02*
X122753588Y-103896887D01*
X122753588Y-103896887D02*
X122601207Y-103896887D01*
X122601207Y-103896887D02*
X122651207Y-103496887D01*
X122651207Y-103496887D02*
X122784540Y-103496887D01*
X122784540Y-103496887D02*
X122820254Y-103515935D01*
X122820254Y-103515935D02*
X122836921Y-103534982D01*
X122836921Y-103534982D02*
X122851207Y-103573078D01*
X122851207Y-103573078D02*
X122846445Y-103611173D01*
X122846445Y-103611173D02*
X122822635Y-103649268D01*
X122822635Y-103649268D02*
X122801207Y-103668316D01*
X122801207Y-103668316D02*
X122760730Y-103687363D01*
X122760730Y-103687363D02*
X122627397Y-103687363D01*
X123001207Y-103896887D02*
X123034540Y-103630220D01*
X123051207Y-103496887D02*
X123029778Y-103515935D01*
X123029778Y-103515935D02*
X123046445Y-103534982D01*
X123046445Y-103534982D02*
X123067873Y-103515935D01*
X123067873Y-103515935D02*
X123051207Y-103496887D01*
X123051207Y-103496887D02*
X123046445Y-103534982D01*
X123167873Y-103630220D02*
X123320254Y-103630220D01*
X123241683Y-103496887D02*
X123198826Y-103839744D01*
X123198826Y-103839744D02*
X123213111Y-103877840D01*
X123213111Y-103877840D02*
X123248826Y-103896887D01*
X123248826Y-103896887D02*
X123286921Y-103896887D01*
X123403587Y-103877840D02*
X123439301Y-103896887D01*
X123439301Y-103896887D02*
X123515492Y-103896887D01*
X123515492Y-103896887D02*
X123555968Y-103877840D01*
X123555968Y-103877840D02*
X123579777Y-103839744D01*
X123579777Y-103839744D02*
X123582158Y-103820697D01*
X123582158Y-103820697D02*
X123567873Y-103782601D01*
X123567873Y-103782601D02*
X123532158Y-103763554D01*
X123532158Y-103763554D02*
X123475016Y-103763554D01*
X123475016Y-103763554D02*
X123439301Y-103744506D01*
X123439301Y-103744506D02*
X123425016Y-103706411D01*
X123425016Y-103706411D02*
X123427397Y-103687363D01*
X123427397Y-103687363D02*
X123451206Y-103649268D01*
X123451206Y-103649268D02*
X123491682Y-103630220D01*
X123491682Y-103630220D02*
X123548825Y-103630220D01*
X123548825Y-103630220D02*
X123584539Y-103649268D01*
X123744064Y-103896887D02*
X123777397Y-103630220D01*
X123794064Y-103496887D02*
X123772635Y-103515935D01*
X123772635Y-103515935D02*
X123789302Y-103534982D01*
X123789302Y-103534982D02*
X123810730Y-103515935D01*
X123810730Y-103515935D02*
X123794064Y-103496887D01*
X123794064Y-103496887D02*
X123789302Y-103534982D01*
X123934540Y-103896887D02*
X123984540Y-103496887D01*
X123991683Y-103744506D02*
X124086921Y-103896887D01*
X124120254Y-103630220D02*
X123948825Y-103782601D01*
X124429778Y-103896887D02*
X124455969Y-103687363D01*
X124455969Y-103687363D02*
X124441683Y-103649268D01*
X124441683Y-103649268D02*
X124405969Y-103630220D01*
X124405969Y-103630220D02*
X124329778Y-103630220D01*
X124329778Y-103630220D02*
X124289302Y-103649268D01*
X124432159Y-103877840D02*
X124391683Y-103896887D01*
X124391683Y-103896887D02*
X124296445Y-103896887D01*
X124296445Y-103896887D02*
X124260731Y-103877840D01*
X124260731Y-103877840D02*
X124246445Y-103839744D01*
X124246445Y-103839744D02*
X124251207Y-103801649D01*
X124251207Y-103801649D02*
X124275016Y-103763554D01*
X124275016Y-103763554D02*
X124315493Y-103744506D01*
X124315493Y-103744506D02*
X124410731Y-103744506D01*
X124410731Y-103744506D02*
X124451207Y-103725459D01*
X124603588Y-103877840D02*
X124639302Y-103896887D01*
X124639302Y-103896887D02*
X124715493Y-103896887D01*
X124715493Y-103896887D02*
X124755969Y-103877840D01*
X124755969Y-103877840D02*
X124779778Y-103839744D01*
X124779778Y-103839744D02*
X124782159Y-103820697D01*
X124782159Y-103820697D02*
X124767874Y-103782601D01*
X124767874Y-103782601D02*
X124732159Y-103763554D01*
X124732159Y-103763554D02*
X124675017Y-103763554D01*
X124675017Y-103763554D02*
X124639302Y-103744506D01*
X124639302Y-103744506D02*
X124625017Y-103706411D01*
X124625017Y-103706411D02*
X124627398Y-103687363D01*
X124627398Y-103687363D02*
X124651207Y-103649268D01*
X124651207Y-103649268D02*
X124691683Y-103630220D01*
X124691683Y-103630220D02*
X124748826Y-103630220D01*
X124748826Y-103630220D02*
X124784540Y-103649268D01*
D10*
X148814836Y-108503609D02*
X148814836Y-108003609D01*
X148814836Y-108003609D02*
X148933884Y-108003609D01*
X148933884Y-108003609D02*
X149005312Y-108027419D01*
X149005312Y-108027419D02*
X149052931Y-108075038D01*
X149052931Y-108075038D02*
X149076741Y-108122657D01*
X149076741Y-108122657D02*
X149100550Y-108217895D01*
X149100550Y-108217895D02*
X149100550Y-108289323D01*
X149100550Y-108289323D02*
X149076741Y-108384561D01*
X149076741Y-108384561D02*
X149052931Y-108432180D01*
X149052931Y-108432180D02*
X149005312Y-108479800D01*
X149005312Y-108479800D02*
X148933884Y-108503609D01*
X148933884Y-108503609D02*
X148814836Y-108503609D01*
X149529122Y-108170276D02*
X149529122Y-108503609D01*
X149410074Y-107979800D02*
X149291027Y-108336942D01*
X149291027Y-108336942D02*
X149600550Y-108336942D01*
X124777217Y-80703609D02*
X125086741Y-80703609D01*
X125086741Y-80703609D02*
X124920074Y-80894085D01*
X124920074Y-80894085D02*
X124991503Y-80894085D01*
X124991503Y-80894085D02*
X125039122Y-80917895D01*
X125039122Y-80917895D02*
X125062931Y-80941704D01*
X125062931Y-80941704D02*
X125086741Y-80989323D01*
X125086741Y-80989323D02*
X125086741Y-81108371D01*
X125086741Y-81108371D02*
X125062931Y-81155990D01*
X125062931Y-81155990D02*
X125039122Y-81179800D01*
X125039122Y-81179800D02*
X124991503Y-81203609D01*
X124991503Y-81203609D02*
X124848646Y-81203609D01*
X124848646Y-81203609D02*
X124801027Y-81179800D01*
X124801027Y-81179800D02*
X124777217Y-81155990D01*
X125301026Y-81155990D02*
X125324836Y-81179800D01*
X125324836Y-81179800D02*
X125301026Y-81203609D01*
X125301026Y-81203609D02*
X125277217Y-81179800D01*
X125277217Y-81179800D02*
X125301026Y-81155990D01*
X125301026Y-81155990D02*
X125301026Y-81203609D01*
X125491502Y-80703609D02*
X125801026Y-80703609D01*
X125801026Y-80703609D02*
X125634359Y-80894085D01*
X125634359Y-80894085D02*
X125705788Y-80894085D01*
X125705788Y-80894085D02*
X125753407Y-80917895D01*
X125753407Y-80917895D02*
X125777216Y-80941704D01*
X125777216Y-80941704D02*
X125801026Y-80989323D01*
X125801026Y-80989323D02*
X125801026Y-81108371D01*
X125801026Y-81108371D02*
X125777216Y-81155990D01*
X125777216Y-81155990D02*
X125753407Y-81179800D01*
X125753407Y-81179800D02*
X125705788Y-81203609D01*
X125705788Y-81203609D02*
X125562931Y-81203609D01*
X125562931Y-81203609D02*
X125515312Y-81179800D01*
X125515312Y-81179800D02*
X125491502Y-81155990D01*
X125943883Y-80703609D02*
X126110549Y-81203609D01*
X126110549Y-81203609D02*
X126277216Y-80703609D01*
D12*
X113875863Y-102027219D02*
X114447292Y-102027219D01*
X114036578Y-103027219D02*
X114161578Y-102027219D01*
X114655625Y-103027219D02*
X114780625Y-102027219D01*
X115084197Y-103027219D02*
X115149673Y-102503409D01*
X115149673Y-102503409D02*
X115113959Y-102408171D01*
X115113959Y-102408171D02*
X115024673Y-102360552D01*
X115024673Y-102360552D02*
X114881816Y-102360552D01*
X114881816Y-102360552D02*
X114780625Y-102408171D01*
X114780625Y-102408171D02*
X114727054Y-102455790D01*
X115947292Y-102979600D02*
X115846102Y-103027219D01*
X115846102Y-103027219D02*
X115655625Y-103027219D01*
X115655625Y-103027219D02*
X115566340Y-102979600D01*
X115566340Y-102979600D02*
X115530625Y-102884361D01*
X115530625Y-102884361D02*
X115578245Y-102503409D01*
X115578245Y-102503409D02*
X115637768Y-102408171D01*
X115637768Y-102408171D02*
X115738959Y-102360552D01*
X115738959Y-102360552D02*
X115929435Y-102360552D01*
X115929435Y-102360552D02*
X116018721Y-102408171D01*
X116018721Y-102408171D02*
X116054435Y-102503409D01*
X116054435Y-102503409D02*
X116042530Y-102598647D01*
X116042530Y-102598647D02*
X115554435Y-102693885D01*
X116447292Y-102027219D02*
X116988959Y-103027219D01*
X117113959Y-102027219D02*
X116322292Y-103027219D01*
X117756816Y-102979600D02*
X117655626Y-103027219D01*
X117655626Y-103027219D02*
X117465149Y-103027219D01*
X117465149Y-103027219D02*
X117375864Y-102979600D01*
X117375864Y-102979600D02*
X117340149Y-102884361D01*
X117340149Y-102884361D02*
X117387769Y-102503409D01*
X117387769Y-102503409D02*
X117447292Y-102408171D01*
X117447292Y-102408171D02*
X117548483Y-102360552D01*
X117548483Y-102360552D02*
X117738959Y-102360552D01*
X117738959Y-102360552D02*
X117828245Y-102408171D01*
X117828245Y-102408171D02*
X117863959Y-102503409D01*
X117863959Y-102503409D02*
X117852054Y-102598647D01*
X117852054Y-102598647D02*
X117363959Y-102693885D01*
X118227054Y-103027219D02*
X118310388Y-102360552D01*
X118286578Y-102551028D02*
X118346102Y-102455790D01*
X118346102Y-102455790D02*
X118399673Y-102408171D01*
X118399673Y-102408171D02*
X118500864Y-102360552D01*
X118500864Y-102360552D02*
X118596102Y-102360552D01*
X118846102Y-103027219D02*
X118929436Y-102360552D01*
X118971102Y-102027219D02*
X118917531Y-102074838D01*
X118917531Y-102074838D02*
X118959198Y-102122457D01*
X118959198Y-102122457D02*
X119012769Y-102074838D01*
X119012769Y-102074838D02*
X118971102Y-102027219D01*
X118971102Y-102027219D02*
X118959198Y-102122457D01*
X119756816Y-102979600D02*
X119655626Y-103027219D01*
X119655626Y-103027219D02*
X119465150Y-103027219D01*
X119465150Y-103027219D02*
X119375864Y-102979600D01*
X119375864Y-102979600D02*
X119334197Y-102931980D01*
X119334197Y-102931980D02*
X119298483Y-102836742D01*
X119298483Y-102836742D02*
X119334197Y-102551028D01*
X119334197Y-102551028D02*
X119393721Y-102455790D01*
X119393721Y-102455790D02*
X119447292Y-102408171D01*
X119447292Y-102408171D02*
X119548483Y-102360552D01*
X119548483Y-102360552D02*
X119738959Y-102360552D01*
X119738959Y-102360552D02*
X119828245Y-102408171D01*
D13*
%TO.C,C5*%
X120500000Y-86619420D02*
X120500000Y-86900580D01*
X121520000Y-86619420D02*
X121520000Y-86900580D01*
%TO.C,J3*%
X116460000Y-109010000D02*
X116460000Y-111670000D01*
X124140000Y-109010000D02*
X116460000Y-109010000D01*
X124140000Y-109010000D02*
X124140000Y-111670000D01*
X124140000Y-111670000D02*
X116460000Y-111670000D01*
X125410000Y-109010000D02*
X126740000Y-109010000D01*
X126740000Y-109010000D02*
X126740000Y-110340000D01*
%TO.C,C8*%
X154540580Y-87460000D02*
X154259420Y-87460000D01*
X154540580Y-88480000D02*
X154259420Y-88480000D01*
%TO.C,C6*%
X124600580Y-89652500D02*
X124319420Y-89652500D01*
X124600580Y-90672500D02*
X124319420Y-90672500D01*
%TO.C,R4*%
X129347500Y-84299758D02*
X129347500Y-83825242D01*
X130392500Y-84299758D02*
X130392500Y-83825242D01*
%TO.C,R7*%
X119286359Y-92570000D02*
X119593641Y-92570000D01*
X119286359Y-93330000D02*
X119593641Y-93330000D01*
%TO.C,U5*%
X130970000Y-92170000D02*
X130970000Y-93070000D01*
X130970000Y-97390000D02*
X130970000Y-96490000D01*
X131870000Y-92170000D02*
X130970000Y-92170000D01*
X131870000Y-97390000D02*
X130970000Y-97390000D01*
X135290000Y-92170000D02*
X136190000Y-92170000D01*
X135290000Y-97390000D02*
X135890000Y-97390000D01*
X136190000Y-92170000D02*
X136190000Y-93070000D01*
X136190000Y-96490000D02*
X136190000Y-97150000D01*
X136430000Y-97720000D02*
X135950000Y-97720000D01*
X136190000Y-97390000D01*
X136430000Y-97720000D01*
G36*
X136430000Y-97720000D02*
G01*
X135950000Y-97720000D01*
X136190000Y-97390000D01*
X136430000Y-97720000D01*
G37*
%TO.C,U4*%
X145690000Y-100710000D02*
X144890000Y-100710000D01*
X145690000Y-100710000D02*
X146490000Y-100710000D01*
X145690000Y-103830000D02*
X144890000Y-103830000D01*
X145690000Y-103830000D02*
X146490000Y-103830000D01*
X147230000Y-104110000D02*
X146750000Y-104110000D01*
X146990000Y-103780000D01*
X147230000Y-104110000D01*
G36*
X147230000Y-104110000D02*
G01*
X146750000Y-104110000D01*
X146990000Y-103780000D01*
X147230000Y-104110000D01*
G37*
%TO.C,R10*%
X142180000Y-98693641D02*
X142180000Y-98386359D01*
X142940000Y-98693641D02*
X142940000Y-98386359D01*
%TO.C,R5*%
X131917500Y-87347742D02*
X131917500Y-87822258D01*
X132962500Y-87347742D02*
X132962500Y-87822258D01*
%TO.C,FB1*%
X163770000Y-97062779D02*
X163770000Y-96737221D01*
X164790000Y-97062779D02*
X164790000Y-96737221D01*
%TO.C,C9*%
X160430000Y-96167836D02*
X160430000Y-95952164D01*
X161150000Y-96167836D02*
X161150000Y-95952164D01*
%TO.C,C2*%
X134540000Y-101892164D02*
X134540000Y-102107836D01*
X135260000Y-101892164D02*
X135260000Y-102107836D01*
%TO.C,U1*%
X123750000Y-93117500D02*
X122950000Y-93117500D01*
X123750000Y-93117500D02*
X124550000Y-93117500D01*
X123750000Y-96237500D02*
X122950000Y-96237500D01*
X123750000Y-96237500D02*
X124550000Y-96237500D01*
X122450000Y-93167500D02*
X122210000Y-92837500D01*
X122690000Y-92837500D01*
X122450000Y-93167500D01*
G36*
X122450000Y-93167500D02*
G01*
X122210000Y-92837500D01*
X122690000Y-92837500D01*
X122450000Y-93167500D01*
G37*
%TO.C,J9*%
X150350000Y-77530000D02*
X150350000Y-80190000D01*
X155490000Y-77530000D02*
X150350000Y-77530000D01*
X155490000Y-77530000D02*
X155490000Y-80190000D01*
X155490000Y-80190000D02*
X150350000Y-80190000D01*
X156760000Y-77530000D02*
X158090000Y-77530000D01*
X158090000Y-77530000D02*
X158090000Y-78860000D01*
%TO.C,R15*%
X148060000Y-103953641D02*
X148060000Y-103646359D01*
X148820000Y-103953641D02*
X148820000Y-103646359D01*
%TO.C,D6*%
X141097500Y-94205000D02*
X143382500Y-94205000D01*
X143382500Y-92735000D02*
X141097500Y-92735000D01*
X143382500Y-94205000D02*
X143382500Y-92735000D01*
%TO.C,D3*%
X131690000Y-82630000D02*
X131690000Y-84915000D01*
X133160000Y-82630000D02*
X131690000Y-82630000D01*
X133160000Y-84915000D02*
X133160000Y-82630000D01*
%TO.C,R12*%
X168126359Y-81380000D02*
X168433641Y-81380000D01*
X168126359Y-82140000D02*
X168433641Y-82140000D01*
%TO.C,C11*%
X165910000Y-96300580D02*
X165910000Y-96019420D01*
X166930000Y-96300580D02*
X166930000Y-96019420D01*
%TO.C,J4*%
X161580000Y-77530000D02*
X161580000Y-80190000D01*
X166720000Y-77530000D02*
X161580000Y-77530000D01*
X166720000Y-77530000D02*
X166720000Y-80190000D01*
X166720000Y-80190000D02*
X161580000Y-80190000D01*
X167990000Y-77530000D02*
X169320000Y-77530000D01*
X169320000Y-77530000D02*
X169320000Y-78860000D01*
%TO.C,J8*%
X136560000Y-77530000D02*
X136560000Y-80190000D01*
X144240000Y-77530000D02*
X136560000Y-77530000D01*
X144240000Y-77530000D02*
X144240000Y-80190000D01*
X144240000Y-80190000D02*
X136560000Y-80190000D01*
X145510000Y-77530000D02*
X146840000Y-77530000D01*
X146840000Y-77530000D02*
X146840000Y-78860000D01*
%TO.C,C1*%
X142220000Y-100912164D02*
X142220000Y-101127836D01*
X142940000Y-100912164D02*
X142940000Y-101127836D01*
%TO.C,J1*%
X113250000Y-89930000D02*
X114950000Y-89930000D01*
X113250000Y-99270000D02*
X114950000Y-99270000D01*
%TO.C,R14*%
X148040000Y-100506359D02*
X148040000Y-100813641D01*
X148800000Y-100506359D02*
X148800000Y-100813641D01*
%TO.C,SW2*%
X138520000Y-99350000D02*
X138520000Y-102650000D01*
X138520000Y-102650000D02*
X138820000Y-102650000D01*
X138820000Y-99350000D02*
X138520000Y-99350000D01*
X141020000Y-99350000D02*
X141320000Y-99350000D01*
X141320000Y-99350000D02*
X141320000Y-102650000D01*
X141320000Y-102650000D02*
X141020000Y-102650000D01*
%TO.C,D1*%
X129145000Y-86382500D02*
X129145000Y-88667500D01*
X129145000Y-88667500D02*
X130615000Y-88667500D01*
X130615000Y-88667500D02*
X130615000Y-86382500D01*
%TO.C,R13*%
X165613641Y-81360000D02*
X165306359Y-81360000D01*
X165613641Y-82120000D02*
X165306359Y-82120000D01*
%TO.C,R2*%
X148940000Y-87946359D02*
X148940000Y-88253641D01*
X149700000Y-87946359D02*
X149700000Y-88253641D01*
%TO.C,D4*%
X134045000Y-82586250D02*
X134045000Y-84871250D01*
X135515000Y-82586250D02*
X134045000Y-82586250D01*
X135515000Y-84871250D02*
X135515000Y-82586250D01*
%TO.C,R8*%
X138737258Y-92927500D02*
X138262742Y-92927500D01*
X138737258Y-93972500D02*
X138262742Y-93972500D01*
%TO.C,L1*%
X126500000Y-87097221D02*
X126500000Y-87422779D01*
X127520000Y-87097221D02*
X127520000Y-87422779D01*
%TO.C,R9*%
X119266359Y-96400000D02*
X119573641Y-96400000D01*
X119266359Y-97160000D02*
X119573641Y-97160000D01*
%TO.C,R3*%
X153997500Y-102047258D02*
X153997500Y-101572742D01*
X155042500Y-102047258D02*
X155042500Y-101572742D01*
%TO.C,U6*%
X123910000Y-85910000D02*
X123110000Y-85910000D01*
X123910000Y-85910000D02*
X124710000Y-85910000D01*
X123910000Y-89030000D02*
X123110000Y-89030000D01*
X123910000Y-89030000D02*
X124710000Y-89030000D01*
X122610000Y-85960000D02*
X122370000Y-85630000D01*
X122850000Y-85630000D01*
X122610000Y-85960000D01*
G36*
X122610000Y-85960000D02*
G01*
X122370000Y-85630000D01*
X122850000Y-85630000D01*
X122610000Y-85960000D01*
G37*
%TO.C,C4*%
X161162164Y-85150000D02*
X161377836Y-85150000D01*
X161162164Y-85870000D02*
X161377836Y-85870000D01*
%TO.C,J6*%
X136560000Y-109010000D02*
X136560000Y-111670000D01*
X144240000Y-109010000D02*
X136560000Y-109010000D01*
X144240000Y-109010000D02*
X144240000Y-111670000D01*
X144240000Y-111670000D02*
X136560000Y-111670000D01*
X145510000Y-109010000D02*
X146840000Y-109010000D01*
X146840000Y-109010000D02*
X146840000Y-110340000D01*
%TO.C,C12*%
X133277836Y-98100000D02*
X133062164Y-98100000D01*
X133277836Y-98820000D02*
X133062164Y-98820000D01*
%TO.C,U3*%
X145020000Y-87047500D02*
X145020000Y-86397500D01*
X145020000Y-87047500D02*
X145020000Y-87697500D01*
X148140000Y-87047500D02*
X148140000Y-86397500D01*
X148140000Y-87047500D02*
X148140000Y-87697500D01*
X145070000Y-88210000D02*
X144740000Y-88450000D01*
X144740000Y-87970000D01*
X145070000Y-88210000D01*
G36*
X145070000Y-88210000D02*
G01*
X144740000Y-88450000D01*
X144740000Y-87970000D01*
X145070000Y-88210000D01*
G37*
%TO.C,R11*%
X157903641Y-85150000D02*
X157596359Y-85150000D01*
X157903641Y-85910000D02*
X157596359Y-85910000D01*
%TO.C,J2*%
X116460000Y-77530000D02*
X116460000Y-80190000D01*
X124140000Y-77530000D02*
X116460000Y-77530000D01*
X124140000Y-77530000D02*
X124140000Y-80190000D01*
X124140000Y-80190000D02*
X116460000Y-80190000D01*
X125410000Y-77530000D02*
X126740000Y-77530000D01*
X126740000Y-77530000D02*
X126740000Y-78860000D01*
%TO.C,U2*%
X151290000Y-91447500D02*
X151290000Y-91897500D01*
X151290000Y-98667500D02*
X151290000Y-98217500D01*
X151740000Y-91447500D02*
X151290000Y-91447500D01*
X151740000Y-98667500D02*
X151290000Y-98667500D01*
X158060000Y-91447500D02*
X158510000Y-91447500D01*
X158060000Y-98667500D02*
X158510000Y-98667500D01*
X158510000Y-91447500D02*
X158510000Y-91897500D01*
X158510000Y-98667500D02*
X158510000Y-98217500D01*
X150700000Y-91897500D02*
X150360000Y-91427500D01*
X151040000Y-91427500D01*
X150700000Y-91897500D01*
G36*
X150700000Y-91897500D02*
G01*
X150360000Y-91427500D01*
X151040000Y-91427500D01*
X150700000Y-91897500D01*
G37*
%TO.C,R6*%
X134252500Y-87353992D02*
X134252500Y-87828508D01*
X135297500Y-87353992D02*
X135297500Y-87828508D01*
%TO.C,J7*%
X147810000Y-109010000D02*
X147810000Y-111670000D01*
X155490000Y-109010000D02*
X147810000Y-109010000D01*
X155490000Y-109010000D02*
X155490000Y-111670000D01*
X155490000Y-111670000D02*
X147810000Y-111670000D01*
X156760000Y-109010000D02*
X158090000Y-109010000D01*
X158090000Y-109010000D02*
X158090000Y-110340000D01*
%TO.C,SW3*%
X157950000Y-86580000D02*
X161250000Y-86580000D01*
X157950000Y-86880000D02*
X157950000Y-86580000D01*
X157950000Y-89080000D02*
X157950000Y-89380000D01*
X157950000Y-89380000D02*
X161250000Y-89380000D01*
X161250000Y-86580000D02*
X161250000Y-86880000D01*
X161250000Y-89380000D02*
X161250000Y-89080000D01*
%TO.C,R1*%
X134266359Y-106460000D02*
X134573641Y-106460000D01*
X134266359Y-107220000D02*
X134573641Y-107220000D01*
%TO.C,C3*%
X137070000Y-101852164D02*
X137070000Y-102067836D01*
X137790000Y-101852164D02*
X137790000Y-102067836D01*
%TO.C,C10*%
X161610000Y-96270580D02*
X161610000Y-95989420D01*
X162630000Y-96270580D02*
X162630000Y-95989420D01*
%TO.C,J5*%
X159040000Y-109010000D02*
X159040000Y-111670000D01*
X166720000Y-109010000D02*
X159040000Y-109010000D01*
X166720000Y-109010000D02*
X166720000Y-111670000D01*
X166720000Y-111670000D02*
X159040000Y-111670000D01*
X167990000Y-109010000D02*
X169320000Y-109010000D01*
X169320000Y-109010000D02*
X169320000Y-110340000D01*
%TO.C,SW1*%
X128210000Y-109970000D02*
X128210000Y-110760000D01*
X128810000Y-111770000D02*
X134510000Y-111770000D01*
X130060000Y-108920000D02*
X131760000Y-108920000D01*
X133060000Y-108920000D02*
X133260000Y-108920000D01*
X135110000Y-110760000D02*
X135110000Y-109970000D01*
%TO.C,C7*%
X154787836Y-88970000D02*
X154572164Y-88970000D01*
X154787836Y-89690000D02*
X154572164Y-89690000D01*
%TO.C,D2*%
X150645000Y-101715000D02*
X150645000Y-103185000D01*
X150645000Y-103185000D02*
X152930000Y-103185000D01*
X152930000Y-101715000D02*
X150645000Y-101715000D01*
%TO.C,Y1*%
X136835000Y-98845000D02*
X135485000Y-98845000D01*
X136835000Y-100595000D02*
X135485000Y-100595000D01*
%TD*%
M02*
